<?xml version="1.0" encoding="utf-8"?>
<!-- Generator: Adobe Illustrator 27.1.1, SVG Export Plug-In . SVG Version: 6.00 Build 0)  -->
<svg version="1.1" id="_Слой_1" xmlns="http://www.w3.org/2000/svg" xmlns:xlink="http://www.w3.org/1999/xlink" x="0px"
	 y="0px" viewBox="0 0 144.8 142.9" style="enable-background:new 0 0 144.8 142.9;" xml:space="preserve">
<style type="text/css">
	.st0{fill:#F6863C;}
	.st1{fill:#FFFFFF;}
	.st2{fill:none;stroke:#FFFFFF;stroke-width:3;stroke-linecap:round;stroke-linejoin:round;}
	.st3{fill:none;}
	.st4{clip-path:url(#SVGID_00000056407625312913531970000007639453414774026121_);}
</style>
<g>
	<circle class="st0" cx="71.2" cy="71.3" r="67.3"/>
	<g>
		<path class="st1" d="M36.3,51.5l-0.5,21.7c0,2.4,3.7,2.4,3.8,0l0.5-21.7C40.1,49.1,36.4,49.1,36.3,51.5L36.3,51.5z"/>
		<path class="st1" d="M55.7,42.8l-0.5,21.7c0,2.4,3.7,2.4,3.8,0l0.5-21.7C59.5,40.4,55.7,40.4,55.7,42.8
			C55.7,42.8,55.7,42.8,55.7,42.8z"/>
		<path class="st1" d="M97.1,79.2c-0.2,7.2-0.3,14.5-0.5,21.7c-0.1,2.4,3.7,2.4,3.8,0c0.2-7.2,0.3-14.5,0.5-21.7
			C100.9,76.8,97.1,76.8,97.1,79.2C97.1,79.2,97.1,79.2,97.1,79.2z"/>
		<path class="st1" d="M116.6,69.3c-0.2,7.2-0.3,14.5-0.5,21.7c-0.1,2.4,3.7,2.4,3.8,0c0.2-7.2,0.3-14.5,0.5-21.7
			C120.4,66.9,116.6,66.9,116.6,69.3L116.6,69.3z"/>
		<path class="st1" d="M121.1,45.9c-1.6,7.1-3.1,14.1-4.7,21.2c-0.5,2.3,3.1,3.4,3.6,1c1.6-7.1,3.1-14.1,4.7-21.2
			C125.2,44.6,121.6,43.5,121.1,45.9L121.1,45.9z"/>
		<path class="st1" d="M60.4,19.6c-1.5,6.7-2.9,13.5-4.4,20.2c-0.5,2.3,3.1,3.4,3.6,1c1.5-6.7,2.9-13.5,4.4-20.2
			C64.5,18.2,60.9,17.2,60.4,19.6L60.4,19.6z"/>
		<line class="st2" x1="38.5" y1="51.5" x2="98.6" y2="78.9"/>
		<line class="st2" x1="44.7" y1="48.1" x2="104.8" y2="75.5"/>
		<line class="st2" x1="51.6" y1="44.6" x2="111.7" y2="72"/>
		<line class="st2" x1="62.2" y1="19.8" x2="123.1" y2="46"/>
		<line class="st2" x1="61.2" y1="26.2" x2="121.3" y2="51.9"/>
		<line class="st2" x1="59.9" y1="32.2" x2="120" y2="58"/>
		<line class="st2" x1="57.7" y1="41.3" x2="117.8" y2="68.7"/>
		<line class="st2" x1="99" y1="78.8" x2="118.2" y2="68.9"/>
		<line class="st2" x1="38.5" y1="51.1" x2="57.7" y2="41.2"/>
	</g>
	<circle class="st3" cx="71.2" cy="71.3" r="67.3"/>
	<g>
		<defs>
			<circle id="SVGID_1_" cx="71.2" cy="71.3" r="67.3"/>
		</defs>
		<clipPath id="SVGID_00000039132295835196246760000015187331199285219203_">
			<use xlink:href="#SVGID_1_"  style="overflow:visible;"/>
		</clipPath>
		<g style="clip-path:url(#SVGID_00000039132295835196246760000015187331199285219203_);">
			<g>
				<path class="st1" d="M60.7,107.1c-0.1,2.3,0.1,4.7,0.6,7c0.2,0.9,1.2,1.5,2.1,1.3c0.9-0.1,1.7-0.9,1.6-1.8c0-1.2,0-2.4,0.1-3.7
					c0-0.2,0-0.1,0,0.2c0-0.1,0-0.2,0-0.2c0-0.2,0.1-0.3,0.1-0.5c0.1-0.3,0.1-0.6,0.2-0.8c0-0.1,0.1-0.3,0.1-0.4
					c0.1-0.2,0.1-0.2-0.1,0.1c0-0.1,0.1-0.1,0.1-0.2c0.1-0.3,0.3-0.6,0.5-0.8c0.5-0.8,0.2-2.1-0.7-2.6c-0.9-0.5-2-0.2-2.6,0.7
					c-1.6,2.4-1.6,5.4-1.5,8.2l3.7-0.5c-0.1-0.5-0.2-1-0.3-1.6c0-0.1,0-0.3-0.1-0.4c0-0.2,0,0.4,0,0c0-0.3-0.1-0.6-0.1-0.8
					c-0.1-1.1-0.1-2.1,0-3.2c0.1-1-0.9-1.9-1.9-1.9C61.5,105.2,60.7,106,60.7,107.1C60.7,107.1,60.7,107.1,60.7,107.1z"/>
				<path class="st1" d="M52.2,104.6c-1.6,1.2-2.5,3.2-3.1,5.1c-0.3,0.9-0.5,1.7-0.6,2.6c-0.1,0.6-0.2,1.1-0.2,1.7
					c0.1,0.9,0.3,1.5,0.9,2.2c0.6,0.8,2,0.7,2.7,0c0.8-0.8,0.7-1.8,0-2.7c0,0,0.3,0.4,0.2,0.4s-0.1-0.5,0-0.1c0,0.3,0,0,0-0.1
					c0-0.1,0-0.2,0-0.3c0-0.2,0.1-0.3,0,0c0-0.1,0-0.2,0-0.3c0-0.2,0.1-0.3,0.1-0.5c0.2-0.8,0.3-1.5,0.6-2.3
					c0.1-0.2,0.1-0.3,0.2-0.5c0-0.1,0.1-0.2,0.1-0.2c0.1-0.2-0.2,0.3,0,0c0.2-0.3,0.3-0.7,0.5-1c0.1-0.2,0.2-0.3,0.3-0.4
					c0.2-0.3,0.1,0,0,0c0,0,0.1-0.2,0.2-0.2c0.3-0.3,0.5-0.6,0.9-0.8c0.8-0.6,0.7-2,0-2.7C54,103.9,53,104,52.2,104.6L52.2,104.6
					L52.2,104.6z"/>
				<path class="st1" d="M41.4,109.7c0.1-0.6,0.3-1.2,0.5-1.8l-0.2,0.4c0.1-0.3,0.3-0.6,0.5-0.9c0.1-0.2,0.2-0.3,0.3-0.5
					c0-0.1,0.1-0.1,0.1-0.2c0.1-0.2-0.3,0.4-0.1,0.1c0.2-0.3,0.5-0.5,0.7-0.8c0.1-0.1,0.3-0.2,0.4-0.3c0.3-0.2-0.4,0.3-0.1,0.1
					c0.1-0.1,0.2-0.1,0.2-0.2l-2.6-2.6c-1.2,2-2.2,4.3-2.7,6.6c-0.2,1,0.3,2.1,1.3,2.3c0.9,0.2,2.1-0.3,2.3-1.3
					c0.2-1.2,0.6-2.3,1.1-3.4l-0.2,0.4c0.4-0.9,0.9-1.8,1.4-2.7c0.4-0.7,0.3-1.7-0.3-2.3s-1.6-0.8-2.3-0.3c-2.1,1.4-3.8,3.7-4.1,6.3
					c-0.1,0.5-0.1,1,0.2,1.4c0.2,0.4,0.7,0.8,1.1,0.9c0.5,0.1,1,0.1,1.4-0.2C40.9,110.6,41.3,110.2,41.4,109.7L41.4,109.7
					L41.4,109.7z"/>
				<path class="st1" d="M33.6,87.9c-0.1,0.4-0.2,0.8-0.4,1.2l0.2-0.4c-0.2,0.5-0.5,1-0.8,1.4c-0.1,0.1-0.2,0.2-0.2,0.3
					c-0.2,0.2,0.1-0.1,0.1-0.2c0,0.1-0.1,0.2-0.2,0.2c-0.2,0.2-0.4,0.4-0.6,0.6c-0.8,0.8-1.6,1.6-2.5,2.3c-0.6,0.5-0.7,1.6-0.3,2.3
					c0.5,0.7,1.3,1.1,2.1,0.9c2.6-0.7,5-2.6,6.2-5c0.2-0.5,0.3-0.9,0.2-1.4c-0.1-0.4-0.5-0.9-0.9-1.1c-0.8-0.4-2.1-0.3-2.6,0.7
					c-0.2,0.4-0.4,0.8-0.7,1.2c-0.3,0.4,0.2-0.2,0,0c-0.1,0.1-0.1,0.2-0.2,0.2c-0.2,0.2-0.3,0.3-0.5,0.5c-0.2,0.2-0.3,0.3-0.5,0.4
					c-0.1,0.1,0,0,0.2-0.2c0,0-0.1,0.1-0.2,0.1c-0.1,0.1-0.2,0.1-0.3,0.2c-0.4,0.2-0.8,0.5-1.2,0.7l0.5-0.2
					c-0.4,0.2-0.7,0.3-1.1,0.4l1.8,3.1c2.3-1.9,4.6-4.1,5.3-7.2c0.2-1-0.3-2.1-1.3-2.3C35,86.4,33.8,86.9,33.6,87.9L33.6,87.9
					L33.6,87.9z"/>
				<path class="st1" d="M24,92c0.2-0.3,0.3-0.6,0.5-0.8c0-0.1,0.1-0.1,0.1-0.2c0.2-0.3-0.2,0.2,0,0c0.1-0.1,0.2-0.2,0.3-0.4
					c0.4-0.5,0.9-1,1.5-1.4c0.1-0.1,0.2-0.2,0.4-0.3c0.2-0.2,0,0-0.1,0.1c0.1,0,0.1-0.1,0.2-0.2c0.3-0.2,0.5-0.4,0.8-0.6
					c0.6-0.4,1.2-0.8,1.8-1.2l-2.3-2.9c-1.4,1.2-2.7,2.4-3.7,3.9s-1.8,3.3-1.9,5.1c-0.1,1,0.9,1.9,1.9,1.9c1.1-0.1,1.8-0.8,1.9-1.9
					c0-0.1,0-0.2,0-0.3c0,0.1-0.1,0.4,0,0.1c0-0.2,0.1-0.4,0.1-0.6c0-0.2,0.1-0.3,0.1-0.5c0-0.1,0.1-0.2,0.1-0.2
					c0-0.1,0.1-0.3,0-0.1s0,0,0-0.1c0-0.1,0.1-0.2,0.1-0.3c0.1-0.2,0.2-0.3,0.3-0.5c0.2-0.3,0.4-0.6,0.6-0.9c0.1-0.2-0.2,0.2,0,0.1
					c0.1-0.1,0.1-0.1,0.2-0.2c0.1-0.1,0.2-0.3,0.4-0.4c0.3-0.3,0.5-0.6,0.8-0.9c0.6-0.6,1.2-1.1,1.8-1.6c0.7-0.6,0.7-1.8,0.1-2.5
					s-1.6-1-2.4-0.5c-2.6,1.7-5.3,3.4-6.8,6.2c-0.5,0.9-0.2,2.1,0.7,2.6S23.5,92.9,24,92L24,92L24,92z"/>
				<path class="st1" d="M17.8,83.9c0-0.1,0.1-0.3,0.1-0.4c0.1-0.2,0.1-0.3,0-0.1c0.1-0.2,0.2-0.5,0.3-0.7c0.2-0.5,0.5-1,0.8-1.4
					c0.1-0.2,0.3-0.4,0.5-0.7c0,0,0.3-0.4,0.1-0.2s0.2-0.2,0.2-0.2c0.4-0.4,0.7-0.8,1.1-1.2c0.2-0.2,0.4-0.4,0.6-0.6
					c0.1-0.1,0.2-0.1,0.2-0.2c0.4-0.3-0.3,0.2,0.1-0.1s0.9-0.6,1.4-0.9c0.1-0.1,0.3-0.1,0.4-0.2c-0.3,0.1,0,0,0.1,0
					c0.3-0.1,0.5-0.1,0.8-0.2c0.2-0.1-0.3,0,0.1,0c0.1,0,0.3,0,0.4,0c0.2,0,0.3,0.1,0.1,0c0.2,0,0.3,0.1,0.5,0.1
					c0.9,0.3,2.1-0.3,2.3-1.3c0.2-1-0.3-2-1.3-2.3c-3-0.9-6,0.8-8.1,2.8c-2,1.8-3.5,4.2-4.4,6.8c-0.3,0.9,0.4,2.1,1.3,2.3
					C16.5,85.4,17.4,84.9,17.8,83.9L17.8,83.9L17.8,83.9z"/>
				<path class="st1" d="M15.1,66.5c-1.1,0.7-2,1.5-2.8,2.5c-0.9,1.1-1.6,2.3-2.1,3.6c-0.2,0.4,0,1.1,0.2,1.4s0.5,0.6,0.9,0.8
					c0.8,0.3,1.9,0.1,2.3-0.8c0.2-0.4,0.4-0.8,0.7-1.1L14,73.3c0.4-0.6,0.9-1.1,1.5-1.5l-0.4,0.3c0.6-0.4,1.2-0.8,1.8-1.1l-0.5,0.2
					c0.6-0.2,1.2-0.4,1.9-0.5c0.4-0.1,0.9-0.5,1.1-0.9c0.2-0.4,0.3-1,0.2-1.4s-0.4-0.9-0.9-1.1c-0.5-0.2-0.9-0.3-1.4-0.2
					c-2.9,0.5-5.6,2.4-7,5l3.4,1.4c0-0.1,0.1-0.2,0.1-0.3l-0.2,0.4c0.4-0.8,0.8-1.6,1.4-2.3l-0.3,0.4c0.6-0.7,1.2-1.3,1.9-1.9
					l-0.4,0.3c0.2-0.2,0.5-0.3,0.7-0.5c0.8-0.5,1.2-1.7,0.7-2.6C17.2,66.3,16,65.9,15.1,66.5L15.1,66.5L15.1,66.5z"/>
				<path class="st1" d="M-1.7,64.2c3.4-0.5,7.2,1,10.3,2.2s6,2.6,8.8,4.2c5.4,3.3,10.2,7.6,13.7,13c3.7,5.8,6.1,12.4,11,17.4
					s12.2,7.9,19.2,7.4c3.4-0.2,7-1.3,10.5-0.8c1.3,0.2,2.7,0.7,3.2,2s-0.6,2.1-1.6,2.6c-2.7,1.4-6.1,2.1-9,2.4
					c-3.1,0.3-6.3,0.3-9.5-0.1c-6.2-0.9-12.3-3.3-17.3-7.2S28.9,98,25.3,92.8c-3.6-5.2-7.5-10.3-12.8-13.9c-6-4.1-13.4-5.2-20.5-5.6
					c-1.9-0.1-3.7-0.1-5.6-0.2c-2.4-0.1-2.4,3.7,0,3.8C-6,77.1,2,77.2,8.8,81c5.7,3.2,9.7,8.6,13.4,13.9s7.6,11,12.9,15.1
					c5.4,4.2,11.9,7,18.7,8.1s13.9,0.6,20.2-2c3-1.2,5.8-3.9,4.7-7.5s-5-4.8-8.4-4.8c-3.7,0-7.4,1.1-11.1,1s-7.2-1.3-10.3-3.1
					c-6.3-3.8-9.2-10.8-12.7-17s-8-11.1-13.6-15.1c-5.6-4-12.3-7.1-19-8.6c-2-0.5-4-0.6-6.1-0.2c-1,0.2-1.6,1.4-1.3,2.3
					C-3.7,64-2.7,64.4-1.7,64.2L-1.7,64.2L-1.7,64.2z"/>
			</g>
		</g>
	</g>
</g>
</svg>
