<?xml version="1.0" encoding="utf-8"?>
<!-- Generator: Adobe Illustrator 27.1.1, SVG Export Plug-In . SVG Version: 6.00 Build 0)  -->
<svg version="1.1" id="_Слой_1" xmlns="http://www.w3.org/2000/svg" xmlns:xlink="http://www.w3.org/1999/xlink" x="0px"
	 y="0px" viewBox="0 0 142.3 146.7" style="enable-background:new 0 0 142.3 146.7;" xml:space="preserve">
<style type="text/css">
	.st0{fill:none;stroke:#FFFFFF;stroke-width:4;stroke-linecap:round;stroke-linejoin:round;}
	.st1{clip-path:url(#SVGID_00000165195088165613160330000016850342183295454599_);}
	.st2{fill:#FFFFFF;}
</style>
<g>
	<circle cx="69.1" cy="74.5" r="67.3"/>
	<path class="st0" d="M39.9,101.8h58.3c1.9,0,3.4,1.5,3.4,3.4v14.9c0,1.9-1.5,3.4-3.4,3.4H39.9c-1.9,0-3.4-1.5-3.4-3.4v-14.9
		C36.5,103.3,38,101.8,39.9,101.8z"/>
	<g>
		<defs>
			<circle id="SVGID_1_" cx="69.1" cy="74.5" r="67.3"/>
		</defs>
		<clipPath id="SVGID_00000010291192324820019690000006551265184187755137_">
			<use xlink:href="#SVGID_1_"  style="overflow:visible;"/>
		</clipPath>
		<g style="clip-path:url(#SVGID_00000010291192324820019690000006551265184187755137_);">
			<g>
				<g>
					<path class="st2" d="M112.4,23.8c-9,7-17.3,14.9-24.8,23.5c-3.8,4.3-7.4,8.8-10.7,13.4c-1.6,2.2-3.4,4.5-3.7,7.3
						c-0.3,2.3,0.6,4.9,2.6,6.3c2.7,1.8,6.2,0.6,8.9-0.6s5.1-3.1,7.1-5.2c1.7-1.8-0.8-4.1-2.7-2.7c-2.3,1.8-4.6,3.7-5.8,6.5
						c-0.9,2.3-0.8,5.2,0.7,7.3c1.6,2.3,4.6,3,7.2,2c2.8-1.1,4.9-3.5,6.5-5.9c1.2-1.8-1.4-3.7-2.9-2.3c-3,2.9-6.2,6.8-4.1,11.2
						c0.8,1.7,2.4,3.1,4.3,3.3c2.5,0.2,4.3-1.4,6-3c7.9-7.5,15.8-15.1,23.7-22.6c4.5-4.3,9.1-8.7,13.6-13c1.8-1.7-0.9-4.3-2.6-2.7
						c-6.8,6.5-13.6,13-20.4,19.5c-3.5,3.3-6.9,6.6-10.4,9.9c-1.7,1.6-3.3,3.2-5,4.8c-0.8,0.8-1.6,1.5-2.4,2.3
						c-0.5,0.5-1.4,1.2-2.2,1c-1.2-0.3-1.6-2.1-1.4-3.1c0.4-2,2.2-3.6,3.7-4.9l-2.9-2.3c-1.2,1.7-5.9,7.1-7.7,3.2
						c-1.6-3.6,2.5-6.7,4.9-8.5l-2.7-2.7c-1.5,1.7-3.3,3.1-5.3,4.1c-1.5,0.8-4.7,2.5-6.2,1.1s-0.7-3.7,0.1-5.1
						c1.2-2.2,2.9-4.2,4.4-6.2c6-7.9,12.7-15.3,19.9-22.1c4.2-3.9,8.5-7.6,13-11.2c0.8-0.6,0.7-2,0-2.6
						C114.3,23,113.3,23.2,112.4,23.8L112.4,23.8L112.4,23.8z"/>
					<path class="st2" d="M74.5,70.3c-1.9,1.3-3.6,3-4.7,5.1c-0.2,0.4-0.3,1-0.2,1.4c0.1,0.4,0.5,0.9,0.9,1.1
						c0.9,0.5,2.1,0.2,2.6-0.7c0.3-0.6,0.7-1.2,1.1-1.7L73.9,76c0.6-0.8,1.3-1.5,2.2-2.2l-0.4,0.3c0.2-0.2,0.5-0.4,0.8-0.5
						c0.4-0.3,0.7-0.6,0.9-1.1c0.1-0.4,0.1-1.1-0.2-1.4s-0.6-0.8-1.1-0.9S74.9,70,74.5,70.3L74.5,70.3z"/>
					<path class="st2" d="M84.4,78.5c-1.5,1.2-2.8,2.6-3.9,4.2c-0.3,0.4-0.3,1-0.2,1.4s0.5,0.9,0.9,1.1c0.4,0.2,1,0.3,1.4,0.2
						l0.4-0.2c0.3-0.2,0.5-0.4,0.7-0.7c0.1-0.2,0.2-0.3,0.4-0.5l-0.3,0.4c0.9-1.2,2.1-2.3,3.3-3.3c0.3-0.3,0.6-0.9,0.6-1.3
						c0-0.5-0.2-1-0.6-1.3s-0.8-0.6-1.3-0.6L85.2,78C84.9,78.1,84.6,78.2,84.4,78.5L84.4,78.5L84.4,78.5z"/>
					<path class="st2" d="M92.6,83.5c-2.2,1.6-4,3.6-5.2,6.1c-0.2,0.5-0.3,0.9-0.2,1.4c0.1,0.4,0.5,0.9,0.9,1.1
						c0.8,0.4,2.1,0.3,2.6-0.7s1-1.8,1.6-2.6l-0.3,0.4c0.7-0.9,1.6-1.8,2.5-2.5L94,87.1c0.1-0.1,0.3-0.2,0.4-0.3
						c0.4-0.3,0.7-0.6,0.9-1.1c0.1-0.4,0.1-1.1-0.2-1.4s-0.6-0.8-1.1-0.9S92.9,83.2,92.6,83.5L92.6,83.5L92.6,83.5z"/>
					<path class="st2" d="M88.4,50.8c4.9,4.2,9.1,9.2,12.4,14.7c0.5,0.8,1.5,1.1,2.3,0.8c0.8-0.3,1.4-1.3,1.1-2.2
						c-2.6-6.8-6.2-13.1-10.8-18.7c-0.8-1-2.9-0.5-3.1,0.8c-0.1,0.6-0.2,1.3-0.3,1.9c-0.2,1,0.3,2,1.3,2.3c0.9,0.2,2.2-0.3,2.3-1.3
						c0.1-0.6,0.2-1.3,0.3-1.9l-3.1,0.8c4.1,5.1,7.5,10.9,9.9,17.1l3.4-1.4c-3.5-5.8-7.9-11-13-15.5c-0.8-0.7-1.9-0.8-2.7,0
						C87.8,48.8,87.7,50.1,88.4,50.8L88.4,50.8L88.4,50.8z"/>
					<path class="st2" d="M90.3,49.2c1.3,2,3.1,3.7,5.2,5c0.4,0.2,1,0.3,1.4,0.2c0.4-0.1,0.9-0.5,1.1-0.9c0.5-0.9,0.2-2-0.7-2.6
						c-0.5-0.3-1-0.6-1.5-1l0.4,0.3c-0.9-0.7-1.8-1.6-2.5-2.5l0.3,0.4c-0.2-0.3-0.4-0.5-0.6-0.8c-0.3-0.4-0.6-0.7-1.1-0.9
						c-0.4-0.1-1.1-0.1-1.4,0.2s-0.8,0.6-0.9,1.1S90,48.8,90.3,49.2L90.3,49.2L90.3,49.2z"/>
					<path class="st2" d="M101.3,47.2c5.7,6.1,10.3,13.2,13.6,20.9l3.2-1.9c-0.3-0.4-0.6-0.8-0.9-1.3c-0.6-0.8-1.6-1.2-2.6-0.7
						c-0.8,0.5-1.3,1.7-0.7,2.6c0.3,0.4,0.6,0.8,0.9,1.3c1.4,2,4.2,0.3,3.2-1.9c-3.5-8-8.3-15.3-14.2-21.7
						C102.3,42.8,99.7,45.5,101.3,47.2L101.3,47.2L101.3,47.2z"/>
					<path class="st2" d="M101,46.8c7.4,3.5,13.9,8.8,18.6,15.6c0.6,0.8,1.6,1.2,2.6,0.7c0.8-0.5,1.2-1.7,0.7-2.6
						c-5-7.3-11.9-13.2-19.9-17c-0.9-0.4-2-0.3-2.6,0.7C99.8,45,100,46.3,101,46.8L101,46.8L101,46.8z"/>
					<path class="st2" d="M108.4,53.5c0.8,0.8,1.6,1.6,2.4,2.4c0.4,0.4,0.8,0.8,1.1,1.3c0.1,0.1,0.2,0.2,0.3,0.4
						c0,0,0.3,0.4,0.1,0.1c0.2,0.2,0.3,0.5,0.5,0.7c0.3,0.5,0.6,0.9,0.9,1.4c0.1,0.2,0.3,0.5,0.4,0.7c0.1,0.1,0.1,0.2,0.2,0.3
						c0.1,0.3,0-0.1,0.1,0.1c0.2,0.5,0.3,1,0.5,1.5c0,0.1,0.1,0.2,0.1,0.3c0,0.1,0.1,0.4,0,0.1c0,0.3,0.1,0.6,0.1,0.9
						c0,0.8,0.4,1.4,1.2,1.7c0.7,0.3,1.4,0.1,2.1-0.4c1.2-1,2-2.6,2-4.2c0-0.9-0.3-1.8-1-2.4c-0.4-0.4-0.8-0.6-1.3-0.8
						c-0.2-0.1-0.3-0.1-0.5-0.2c-0.3-0.1-0.2-0.1,0.2,0.2c0.2,0.9,0.3,1.1,0.3,0.7l-0.3,1l-0.4,0.4l-0.9,0.3l-0.3,0l-0.8-0.5
						c0.3,0.3,0.2,0-0.3-0.9l0.3-1l-0.1,0.1l1.1-0.9l-0.1,0c-0.9,0.4-1.7,1.3-1.3,2.3c0.3,0.9,1.3,1.7,2.3,1.3
						c1.1-0.4,1.8-1.3,1.4-2.5c-0.3-1-1.1-1.6-2.1-1.7c-1.1-0.1-2,0.8-2.2,1.9c-0.1,0.8,0.2,1.7,0.8,2.3c0.4,0.3,0.8,0.5,1.2,0.7
						c0.1,0,0.3,0.1,0.4,0.1c-0.1,0-0.2-0.1-0.1,0c-0.2-0.2-0.2-0.2-0.2-0.1c0.1,0.1,0.1,0.1,0,0c-0.1-0.1-0.1-0.1,0,0l-0.1-0.2
						l0.1,0.2c-0.2,0,0-0.4,0-0.1s0.1,0.1,0,0c0,0-0.1,0.3-0.1,0.3c0,0.1-0.1,0.2-0.1,0.3c0.1-0.1,0.1-0.2,0,0
						c-0.1,0.1-0.1,0.2-0.2,0.3s-0.3,0.3,0,0c-0.2,0.2-0.3,0.3-0.5,0.5l3.2,1.3c-0.2-5.4-3.9-9.5-7.6-13c-0.7-0.7-2-0.8-2.7,0
						S107.6,52.8,108.4,53.5L108.4,53.5L108.4,53.5z"/>
					<path class="st2" d="M102.8,35.6c5.2,2.8,9.8,6.6,13.7,11.1c1.4,1.6,4.1-0.5,2.9-2.3c-3.6-5.3-8-9.9-13.2-13.7
						c-0.8-0.6-2.1-0.1-2.6,0.7c-0.6,1-0.2,2,0.7,2.6c4.6,3.4,8.7,7.6,11.9,12.3l2.9-2.3c-4-4.8-9-8.8-14.4-11.7
						c-0.9-0.5-2-0.2-2.6,0.7S101.9,35.1,102.8,35.6L102.8,35.6L102.8,35.6z"/>
					<path class="st2" d="M107,50.4c1.6,2.5,3,5,4.4,7.6c0.7,1.3,1.3,2.6,1.9,3.9c0.7,1.6,1.6,2.8,3.5,2.6c0.8-0.1,1.3-1.1,1.4-1.8
						c0.2-3.2-1.1-6.4-3.3-8.7l-2.7,2.7c1.2,1.1,2.4,2.2,3.5,3.4c0.4,0.5,0.9,1,1.2,1.5c0.2,0.3,0.3,0.5,0.4,0.7
						c0,0.1,0.1,0.3,0,0.1c0.1,0.3,0,0-0.1,0.3l1.3-1.3c-0.2,0-0.6-0.1-0.9-0.2c-0.9-0.5-2.1-0.2-2.6,0.7s-0.2,2,0.7,2.6
						c1.2,0.7,2.4,0.8,3.8,0.6c0.7-0.1,1.1-0.7,1.3-1.3c0.7-2.1-0.6-4-1.9-5.5s-2.7-2.8-4.2-4.1c-0.8-0.7-1.9-0.8-2.7,0
						s-0.7,1.9,0,2.7c1.6,1.7,2.3,3.8,2.2,6.1l1.4-1.8l-0.2,0h1c0.2,0,0.4,0.5,0.3,0.1c-0.1-0.3-0.3-0.6-0.4-0.9
						c-0.2-0.5-0.5-1.1-0.7-1.6c-0.5-1.2-1.1-2.3-1.7-3.4c-1.2-2.3-2.5-4.5-3.8-6.6c-0.5-0.8-1.7-1.2-2.6-0.7
						C106.9,48.4,106.5,49.6,107,50.4L107,50.4L107,50.4z"/>
					<path class="st2" d="M108.8,54.9c2,4.1,3.7,8.4,5.1,12.8c0.3,1,1.3,1.6,2.3,1.3s1.6-1.3,1.3-2.3c-1.4-4.7-3.3-9.3-5.5-13.7
						c-0.4-0.9-1.7-1.2-2.6-0.7C108.6,52.9,108.4,54,108.8,54.9L108.8,54.9L108.8,54.9z"/>
				</g>
				<path class="st2" d="M103.3,81.8c1.3,1.3,2.7,2.6,4,3.8s3,2.5,5,1.9c1.8-0.5,2.9-2.3,3.1-4.1s-0.8-3.4-2-4.7
					c-0.6-0.6-1.3-1.2-2-1.7c-0.3-0.3-0.7-0.5-1-0.8c-0.2-0.2-0.3-0.3-0.5-0.5c-0.1-0.1-0.1-0.1-0.2-0.2c0,0-0.4-0.4-0.1-0.1
					c-0.3-0.4-0.6-0.7-1.1-0.9c-0.4-0.1-1.1-0.1-1.4,0.2c-0.8,0.5-1.3,1.7-0.7,2.6c0.9,1.2,2,2,3.1,3c0.5,0.4,1,0.8,1.4,1.3
					c0.1,0.1,0.1,0.2,0.2,0.2c0,0-0.2-0.3-0.1-0.1c0.1,0.1,0.2,0.2,0.2,0.4s0.1,0.3,0.2,0.4c0.1,0.2-0.1-0.1,0-0.1
					c0,0,0.1,0.2,0.1,0.3c0,0.1,0.1,0.4,0.1,0.4c0,0,0-0.4,0-0.2c0,0.1,0,0.1,0,0.2s0,0.1,0,0.2c0,0.2,0-0.2,0-0.2
					c0,0-0.1,0.4-0.1,0.4c0,0.2,0.2-0.3,0.1-0.1c0,0.1-0.1,0.1-0.1,0.2c0,0-0.2,0.3-0.2,0.3c0,0,0.3-0.3,0.1-0.2
					c0,0-0.1,0.1-0.1,0.1c0,0-0.2,0.2,0,0s0,0-0.1,0c0,0-0.2,0.1-0.2,0.1s0.4-0.2,0.2-0.1c0,0-0.2,0-0.2,0c0,0,0.4,0,0.2,0
					c0,0-0.2,0-0.2,0c0,0,0.3,0.1,0.1,0c0,0-0.2,0-0.2-0.1c0,0,0.3,0.2,0.1,0c-0.2-0.1-0.3-0.2-0.4-0.3c-0.2-0.1,0.1,0.1,0.1,0.1
					c-0.1-0.1-0.1-0.1-0.2-0.2c-0.3-0.2-0.5-0.5-0.8-0.7l-3.9-3.7c-0.7-0.7-2-0.8-2.7,0S102.5,81.1,103.3,81.8L103.3,81.8
					L103.3,81.8z"/>
				<path class="st2" d="M84,53.1c-1.1-0.6-2.2-1.3-3.3-2.1l0.4,0.3c-0.8-0.7-1.6-1.3-2.4-2.1c-0.7-0.7-2-0.8-2.7,0s-0.7,1.9,0,2.7
					c1.8,1.8,3.8,3.3,6,4.5c0.9,0.5,2.1,0.2,2.6-0.7S84.9,53.6,84,53.1L84,53.1L84,53.1z"/>
				<path class="st2" d="M81.6,57.1l-5.2-4.9c-0.7-0.7-1.9-0.8-2.7,0s-0.8,1.9,0,2.7l5.2,4.9c0.7,0.7,1.9,0.8,2.7,0
					S82.4,57.8,81.6,57.1L81.6,57.1z"/>
				<path class="st2" d="M76.7,54c0.3-0.3,0.6-0.6,0.9-0.8l-0.4,0.3c0.2-0.2,0.5-0.4,0.8-0.5c1.2-0.7,1.2-2.5,0-3.2s-2.8-0.2-3.4,1
					c-0.5,0.9-0.4,2,0.4,2.7c0.3,0.2,0.6,0.5,0.8,0.7c1.1,1,2.1,2,3,3.2c0.3,0.3,0.7,0.5,1.1,0.5c0.4,0.1,0.8,0,1.2-0.2
					c0.6-0.3,1-0.8,1.4-1.3l-3.2-1.9c-0.1,0.2-0.3,0.5-0.4,0.7c-0.5,0.8-0.2,2.1,0.7,2.6s2,0.2,2.6-0.7c0.1-0.2,0.3-0.5,0.4-0.7
					c0.5-0.8,0.2-2.1-0.7-2.6c-0.4-0.2-1-0.3-1.4-0.2s-0.8,0.4-1.1,0.9l-0.1,0.1l0.3-0.4c-0.1,0.2-0.2,0.3-0.4,0.4l0.4-0.3
					c-0.1,0.1-0.2,0.1-0.3,0.2l2.3,0.3c-1.2-1.5-2.6-2.8-4-4l0.6,1.3c0,0,0-0.1,0-0.1L78,52.2c0,0,0-0.1,0-0.1l-0.2,0.5
					c0,0,0-0.1,0.1-0.1l-0.3,0.4c0,0,0.1-0.1,0.1-0.1L77.4,53c0.1,0,0.1-0.1,0.2-0.1l-0.4,0.2c0,0,0.1,0,0.1,0l-0.5,0.1
					c0.1,0,0.1,0,0.2,0l-0.5-0.1c0,0,0.1,0,0.1,0l-0.4-0.2l0.1,0v-3.2c-0.8,0.4-1.5,1-2.1,1.6c-0.3,0.4-0.6,0.8-0.6,1.3
					c0,0.5,0.2,1,0.6,1.3C74.8,54.6,76,54.8,76.7,54L76.7,54L76.7,54z"/>
				<path class="st2" d="M108.4,79.3c-0.1-0.1-0.1-0.2-0.1-0.2l0.2,0.4c0-0.1-0.1-0.2-0.1-0.3l0.1,0.5
					C108.4,79.5,108.4,79.3,108.4,79.3l0,0.4c0-0.1,0-0.2,0.1-0.3l-0.9,1.1l0.1,0l-0.4,0.2c0.1,0,0.1-0.1,0.2-0.1l-0.5,0.1
					c0.1,0,0.1,0,0.2,0l-0.5-0.1c0.1,0,0.2,0.1,0.3,0.1l-0.4-0.2c0.1,0.1,0.2,0.1,0.4,0.2l-0.4-0.3c0.3,0.3,0.6,0.6,0.9,0.9
					c0.3,0.4,0.6,0.7,1,1.1c0.7,0.7,1.3,1.5,2,2.2l2.3-2.9c-0.8-0.4-1.6-0.9-2.4-1.5l0.4,0.3c-0.5-0.4-1-0.8-1.5-1.3
					c-0.7-0.7-2-0.8-2.7,0c-0.3,0.4-0.6,0.8-0.6,1.3c0,0.5,0.2,0.9,0.6,1.3c1.2,1.6,2.9,2.9,4.7,3.8c0.4,0.2,0.9,0.3,1.4,0.2
					c0.4-0.1,0.9-0.5,1.1-0.9c0.4-0.8,0.3-2.1-0.7-2.6c-0.8-0.4-1.5-0.8-2.2-1.3l0.4,0.3c-0.8-0.6-1.5-1.3-2.1-2.1l-2.7,2.7
					c1.2,1.2,2.7,2.3,4.2,3.1c0.8,0.4,1.8,0.3,2.4-0.5s0.5-1.8-0.2-2.5c-1.2-1.3-2.3-2.6-3.4-3.9c-0.8-0.8-2-1.5-3.2-1.1
					c-0.6,0.2-1.1,0.6-1.4,1.2c-0.2,0.4-0.2,0.7-0.2,1.1c0,0.6,0.2,1.3,0.5,1.8c0.5,0.8,1.7,1.2,2.6,0.7S108.9,80.2,108.4,79.3
					C108.4,79.3,108.4,79.3,108.4,79.3z"/>
				<path class="st2" d="M77,50.2c-1.1-0.6-2.1-1.3-3.1-2.1l0.4,0.3c-0.6-0.5-1.2-1-1.8-1.6c-0.4-0.3-0.8-0.5-1.3-0.5
					c-0.5,0-1,0.2-1.3,0.5c-0.7,0.7-0.8,1.9,0,2.7c1.6,1.5,3.4,2.8,5.3,3.9c0.9,0.5,2.1,0.2,2.6-0.7S77.9,50.7,77,50.2L77,50.2
					L77,50.2z"/>
				<path class="st2" d="M70.4,46.4c-2.6,0.4-5.2,0.8-7.7,1.2l-1.1,0.2c-1,0.2-1.6,1.4-1.3,2.3c0.3,1,1.3,1.5,2.3,1.3
					c2.6-0.4,5.1-0.8,7.7-1.2l1.1-0.2c1-0.2,1.6-1.4,1.3-2.3C72.4,46.6,71.4,46.2,70.4,46.4L70.4,46.4z"/>
				<path class="st2" d="M58.2,57.2c3.5-4.5,6.9-9,10.4-13.4c0.6-0.8,0.1-2.1-0.7-2.6c-1-0.6-1.9-0.1-2.6,0.7
					c-3.5,4.5-6.9,9-10.4,13.4c-0.6,0.8-0.1,2.1,0.7,2.6C56.6,58.5,57.5,58,58.2,57.2L58.2,57.2z"/>
				<path class="st2" d="M57.8,55.1c-3.4-3.2-7.1-6.1-10.7-9.2c-3.1-2.7-6.9-5.6-8.5-9.4c-1-2.4-0.7-6.7,2.4-7.5c2-0.5,4.2,1,5.8,2
					c2,1.3,4,2.6,5.9,4c4.4,3.1,8.7,6.4,13.3,9.4c2,1.3,3.9-1.9,1.9-3.2c-4.6-3-9-6.3-13.5-9.5c-2.2-1.5-4.4-3.1-6.7-4.4
					s-4.6-2.4-7.2-2c-4.1,0.7-6.4,5.1-6.2,9c0.3,4.8,3.9,8.5,7.2,11.6c4.4,4.1,9.2,7.8,13.7,11.9C56.9,59.4,59.6,56.7,57.8,55.1
					L57.8,55.1L57.8,55.1z"/>
			</g>
		</g>
	</g>
</g>
</svg>
