<?xml version="1.0" encoding="UTF-8"?>
<svg id="_Слой_1" data-name="Слой 1" xmlns="http://www.w3.org/2000/svg" xmlns:xlink="http://www.w3.org/1999/xlink" viewBox="0 0 146.11 140.39">
  <defs>
    <style>
      .cls-1 {
        fill: #fff;
      }

      .cls-2 {
        clip-path: url(#clippath);
      }

      .cls-3 {
        fill: #f2dd0c;
      }

      .cls-4, .cls-5 {
        fill: none;
      }

      .cls-5 {
        stroke: #fff;
        stroke-linecap: round;
        stroke-linejoin: round;
        stroke-width: 4px;
      }
    </style>
    <clipPath id="clippath">
      <circle class="cls-4" cx="72.96" cy="69.78" r="67.28"/>
    </clipPath>
  </defs>
  <g class="cls-2">
    <g>
      <circle class="cls-3" cx="72.96" cy="69.78" r="67.28"/>
      <path class="cls-1" d="m31.76,75.94c-3.75-3.01-9.09-7.24-7.55-12.76.58-2.09,2.38-3.34,4.5-3.4,2.39-.07,4.56,1.01,6.23,2.67,2.25,2.24,3.63,5.2,4.99,8.03.44.91,1.74,1.15,2.57.67.93-.55,1.11-1.65.67-2.57-2.81-5.85-6.66-12.33-13.95-12.55-3.18-.1-6.35,1.43-7.88,4.3s-1.36,6.56-.04,9.58c1.59,3.64,4.78,6.26,7.8,8.69.79.63,1.88.77,2.65,0,.66-.66.79-2.02,0-2.65h0Z"/>
      <path class="cls-1" d="m101.39,71.29c.77-2.73,1.77-5.51,3.54-7.77s4.54-4.02,7.43-4.02,3.28,3.44,2.95,5.6c-.26,1.7-.8,3.36-1.24,5.02-.48,1.81-.97,3.63-1.45,5.44-.62,2.33,2.99,3.33,3.62,1,.87-3.25,1.89-6.5,2.56-9.79.61-2.98.54-6.11-1.42-8.6-2.07-2.63-5.42-2.8-8.41-1.84-2.9.92-5.32,2.74-7.16,5.15-1.98,2.59-3.15,5.7-4.04,8.82-.66,2.33,2.96,3.32,3.62,1h0Z"/>
      <path class="cls-1" d="m29.13,75.72c-4.04,1.86-7.69,4.6-10.6,7.96-.64.74-.78,1.93,0,2.65.7.65,1.97.79,2.65,0s1.43-1.56,2.2-2.29c.38-.35.76-.69,1.15-1.03.2-.17.4-.33.6-.49,0,0,.38-.3.22-.17s.23-.17.22-.17c1.7-1.27,3.53-2.35,5.45-3.23.89-.41,1.18-1.77.67-2.57-.59-.92-1.61-1.11-2.57-.67h0Z"/>
      <path class="cls-1" d="m26.6,82.9c-7.51,6.1-15.05,13.63-15.41,23.93-.08,2.41,3.67,2.41,3.75,0,.32-9.2,7.67-15.89,14.31-21.28.79-.64.66-1.99,0-2.65-.78-.78-1.86-.64-2.65,0h0Z"/>
      <path class="cls-1" d="m113.61,77.74c1.1.52,2.16,1.12,3.17,1.79.53.35,1.05.72,1.55,1.11.3.23-.33-.27.18.14.11.08.21.17.32.26.26.21.52.43.78.66.94.82,1.84,1.69,2.69,2.61.42.46.84.93,1.23,1.41.46.56.53.65.98,1.27.57.79,1.66,1.26,2.57.67.79-.51,1.28-1.71.67-2.57-3.13-4.36-7.35-8.3-12.24-10.59-.89-.41-2.06-.28-2.57.67-.44.83-.28,2.12.67,2.57h0Z"/>
      <path class="cls-1" d="m116.32,87.63c9.07,6.06,14.57,16.04,18.16,26.08.81,2.26,4.43,1.28,3.62-1-3.93-11.02-9.94-21.69-19.88-28.32-2.01-1.34-3.89,1.9-1.89,3.24h0Z"/>
      <line class="cls-5" x1="41.75" y1="69.71" x2="70.61" y2="81.75"/>
      <line class="cls-5" x1="32.89" y1="48.71" x2="70.25" y2="64.53"/>
      <line class="cls-5" x1="73.79" y1="31.53" x2="111.15" y2="47.35"/>
      <line class="cls-5" x1="99.29" y1="70.8" x2="70.62" y2="81.75"/>
      <line class="cls-5" x1="111.15" y1="47.76" x2="70.62" y2="64.57"/>
      <line class="cls-5" x1="73.52" y1="31.67" x2="32.98" y2="48.48"/>
      <line class="cls-5" x1="70.64" y1="64.53" x2="70.64" y2="80.44"/>
      <line class="cls-5" x1="42.28" y1="53.35" x2="42.28" y2="69.26"/>
      <line class="cls-5" x1="99.27" y1="53.62" x2="99.27" y2="69.53"/>
      <path class="cls-1" d="m31.44,48.35c-1.04,4.43-1.23,8.97-.58,13.47s2.32,8.73,4.42,12.8c2.02,3.92,4.25,7.74,5.28,12.08s.85,9.18-.46,13.59c-.69,2.32,2.93,3.31,3.62,1,1.31-4.42,1.58-9.03.86-13.58s-2.71-8.62-4.82-12.64c-2.08-3.95-4.03-7.84-4.93-12.25s-.79-9.06.23-13.47c.55-2.35-3.07-3.35-3.62-1h0Z"/>
      <path class="cls-1" d="m40.71,99.26c-1.94,2.08-2.76,4.81-3.41,7.52-.71,2.98-1.15,6.04-1.33,9.09-.06,1.01.91,1.88,1.88,1.88,1.07,0,1.81-.86,1.88-1.88.16-2.64.53-5.24,1.13-7.82.49-2.11.99-4.51,2.51-6.15,1.64-1.77-1-4.42-2.65-2.65h0Z"/>
      <path class="cls-1" d="m40.32,100.98c-.22,5.03-.25,10.06-.07,15.09.08,2.41,3.83,2.42,3.75,0-.17-5.03-.15-10.06.07-15.09.04-1.01-.89-1.88-1.88-1.88-1.05,0-1.83.86-1.88,1.88h0Z"/>
      <path class="cls-1" d="m41.17,100.81c2.66,5.18,4.1,10.92,4.23,16.74.05,2.41,3.8,2.42,3.75,0-.14-6.5-1.77-12.85-4.74-18.63-1.1-2.15-4.34-.25-3.24,1.89h0Z"/>
      <path class="cls-1" d="m65.47,125.69c5.96,4.03,13.84,3.39,19.27-1.21.77-.65.67-1.98,0-2.65-.77-.77-1.88-.66-2.65,0-4.2,3.56-10.23,3.66-14.73.62-.84-.57-2.08-.16-2.57.67-.54.92-.17,2,.67,2.57h0Z"/>
      <path class="cls-1" d="m73.13,127.08c-.09,1.76.13,3.57.65,5.26.14.46.44.88.86,1.12s.99.33,1.44.19c.95-.31,1.62-1.3,1.31-2.31-.22-.71-.38-1.44-.48-2.18l.07.5c-.11-.86-.15-1.72-.1-2.58.05-.98-.9-1.92-1.88-1.88-1.06.05-1.82.82-1.88,1.88h0Z"/>
      <path class="cls-1" d="m101.24,110.74c7.31-3.71,15.38-5.69,23.58-5.82,2.41-.04,2.42-3.79,0-3.75-8.87.14-17.56,2.32-25.47,6.33-2.15,1.09-.26,4.33,1.89,3.24h0Z"/>
      <path class="cls-1" d="m101.09,116.86c5.37-2.13,11.23-2.81,16.92-1.76.99.18,2.02-.27,2.31-1.31.25-.91-.31-2.12-1.31-2.31-6.34-1.17-12.91-.62-18.92,1.76-.94.37-1.6,1.25-1.31,2.31.25.89,1.36,1.69,2.31,1.31h0Z"/>
      <circle class="cls-1" cx="52.9" cy="98.9" r="2.81"/>
      <circle class="cls-1" cx="94.9" cy="98.9" r="2.81"/>
    </g>
  </g>
</svg>