<?xml version="1.0" encoding="utf-8"?>
<!-- Generator: Adobe Illustrator 27.1.1, SVG Export Plug-In . SVG Version: 6.00 Build 0)  -->
<svg version="1.1" id="_Слой_1" xmlns="http://www.w3.org/2000/svg" xmlns:xlink="http://www.w3.org/1999/xlink" x="0px"
	 y="0px" viewBox="0 0 145.5 142.3" style="enable-background:new 0 0 145.5 142.3;" xml:space="preserve">
<style type="text/css">
	.st0{fill:#89398E;}
	.st1{fill:#FFFFFF;}
</style>
<g>
	<circle class="st0" cx="73.1" cy="70.1" r="67.3"/>
	<g>
		<polygon class="st1" points="27.1,51.6 29.1,56.2 29.1,108.5 36.1,108.5 36.1,56.2 38.1,51.6 		"/>
		<polygon class="st1" points="38.2,51.6 40.2,56.2 40.2,108.5 47.1,108.5 47.1,56.2 49.1,51.6 		"/>
		<polygon class="st1" points="97.2,51.6 99.2,56.2 99.2,108.5 106.1,108.5 106.1,56.2 108.1,51.6 		"/>
		<polygon class="st1" points="108.2,51.6 110.2,56.2 110.2,108.5 117.1,108.5 117.1,56.2 119.1,51.6 		"/>
	</g>
	<polygon class="st1" points="127.1,44.3 108.8,44.3 72.6,34.3 37.5,44.3 19.1,44.3 22.1,51.7 124.1,51.7 	"/>
	<g>
		<circle class="st1" cx="72.5" cy="30.9" r="4.9"/>
		<polygon class="st0" points="72.5,27.4 73.5,29.6 75.9,30 74.2,31.7 74.6,34.1 72.5,32.9 70.3,34.1 70.7,31.7 69,30 71.4,29.6 		
			"/>
	</g>
	<polygon class="st1" points="28.2,38.8 24.9,44.6 31.6,44.6 	"/>
	<polygon class="st1" points="118.3,38.8 114.9,44.6 121.6,44.6 	"/>
	<g>
		<path class="st1" d="M86.4,127.2c0.1-0.3,0.2-0.6,0.3-0.9l-0.2,0.4c0.1-0.3,0.3-0.6,0.5-0.9l-0.3,0.4c0.2-0.2,0.3-0.3,0.5-0.5
			l-0.4,0.3c0.2-0.1,0.3-0.2,0.5-0.3l-0.4,0.2c0.2-0.1,0.3-0.1,0.5-0.1l-0.5,0.1c0.2,0,0.4,0,0.6,0l-0.5-0.1c0.3,0,0.6,0.1,0.8,0.2
			l-0.4-0.2c0.3,0.1,0.5,0.2,0.8,0.4l-0.4-0.3c0,0,0.1,0.1,0.1,0.1l-0.3-0.4c0,0,0.1,0.1,0.1,0.1l-0.2-0.4l0,0.1l-0.1-0.5
			c0,0,0,0.1,0,0.1l0.1-0.5c0,0,0,0.1,0,0.1l0.2-0.4c0,0.1-0.1,0.1-0.1,0.2l0.3-0.4c-0.2,0.2-0.5,0.4-0.7,0.7l0.4-0.3
			c-0.6,0.4-1.1,0.8-1.8,1.1l0.4-0.2c-0.3,0.1-0.6,0.2-0.9,0.3l0.5-0.1c-0.1,0-0.2,0-0.2,0l0.5,0.1c-0.1,0-0.2,0-0.2-0.1l0.4,0.2
			c-0.1,0-0.1-0.1-0.2-0.1l0.4,0.3c0,0-0.1-0.1-0.1-0.1l0.3,0.4c0,0-0.1-0.1-0.1-0.1l0.2,0.4c0-0.1,0-0.1-0.1-0.2l0.1,0.5
			c0,0,0-0.1,0-0.1l-0.1,0.5c0-0.1,0-0.1,0.1-0.2l-0.2,0.4c0-0.1,0.1-0.2,0.1-0.2l-0.3,0.4c0.1-0.1,0.2-0.2,0.3-0.3l-0.4,0.3
			c0.3-0.3,0.7-0.5,1.1-0.6l-0.4,0.2c0.2-0.1,0.3-0.1,0.5-0.2l-0.5,0.1c0.1,0,0.2,0,0.2,0l-0.5-0.1c0.1,0,0.2,0,0.2,0.1l-0.4-0.2
			l0.1,0l-0.4-0.3l0.1,0l-0.3-0.4l0,0.1l-0.3-0.9v0.1c0.1-0.3,0.2-0.6,0.2-0.9c0,0,0,0.1-0.1,0.1l0.3-0.4c-0.1,0.1-0.2,0.2-0.3,0.3
			l0.4-0.3c-0.2,0.1-0.3,0.2-0.5,0.3l0.4-0.2c-0.2,0.1-0.3,0.1-0.5,0.1l0.5-0.1h-0.1c-0.3,0-0.5,0.1-0.7,0.2
			c-0.2,0.1-0.4,0.2-0.6,0.4c-0.3,0.3-0.6,0.9-0.6,1.3s0.2,1,0.6,1.3c0.3,0.3,0.8,0.6,1.3,0.6c0.6-0.1,1.1-0.2,1.7-0.5
			c0.4-0.2,0.8-0.5,1.1-0.8c0.4-0.4,0.7-0.9,0.7-1.5c0-0.7-0.4-1.4-1-1.8c-0.7-0.4-1.5-0.4-2.2-0.2c-0.5,0.2-0.9,0.4-1.3,0.6
			s-0.8,0.5-1.1,0.9c-0.5,0.6-0.9,1.3-0.8,2.2c0.1,0.8,0.6,1.5,1.3,1.8s1.5,0.4,2.2,0.2c0.5-0.1,0.9-0.3,1.3-0.5
			c0.7-0.4,1.4-0.9,2-1.4c0.4-0.3,0.7-0.6,0.9-1c0.5-0.9,0.4-2-0.4-2.8c-0.4-0.4-0.9-0.6-1.4-0.8c-0.6-0.2-1.1-0.4-1.7-0.4
			c-1.1-0.1-2.3,0.4-3.1,1.3s-1.2,1.8-1.4,2.8c-0.1,0.5-0.1,1,0.2,1.4c0.2,0.4,0.7,0.8,1.1,0.9C85.1,128.7,86.1,128.2,86.4,127.2
			L86.4,127.2L86.4,127.2z"/>
		<path class="st1" d="M83,125.9c-0.1,0.2-0.2,0.4-0.2,0.6c-0.1,0.4-0.1,0.8,0,1.1c0.1,0.4,0.3,0.8,0.6,1.1c0.5,0.4,1,0.6,1.6,0.6
			c0.3,0,0.6-0.1,0.9-0.1c0.9-0.2,1.7-0.7,2.4-1.3c0.2-0.2,0.3-0.4,0.4-0.6c0.1-0.2,0.2-0.5,0.2-0.7c0-0.3,0-0.5-0.2-0.7
			c-0.1-0.2-0.2-0.4-0.4-0.6c-0.4-0.3-0.8-0.6-1.3-0.6l-0.5,0.1c-0.3,0.1-0.6,0.2-0.8,0.5c-0.1,0.1-0.1,0.1-0.2,0.2l0.4-0.3
			c-0.2,0.2-0.5,0.4-0.8,0.5l0.4-0.2c-0.2,0.1-0.5,0.2-0.8,0.2l0.5-0.1c-0.1,0-0.2,0-0.2,0l0.5,0.1c-0.1,0-0.1,0-0.2,0l0.4,0.2
			c0,0-0.1,0-0.1-0.1L86,126c0,0,0,0-0.1-0.1l0.3,0.4c0,0,0-0.1-0.1-0.1l0.2,0.4c0,0,0-0.1,0-0.1l0.1,0.5c0,0,0-0.1,0-0.1l-0.1,0.5
			c0,0,0,0,0-0.1l-0.2,0.4c0,0,0-0.1,0-0.1c0.1-0.2,0.2-0.4,0.2-0.7c0.1-0.2,0-0.5,0-0.8c-0.1-0.2-0.2-0.5-0.3-0.6
			c-0.1-0.2-0.3-0.4-0.5-0.5c-0.4-0.2-1-0.3-1.4-0.2l-0.4,0.2C83.4,125.4,83.2,125.6,83,125.9L83,125.9L83,125.9z"/>
		<path class="st1" d="M80.6,126.2c2.4,0,2.4-3.8,0-3.8S78.2,126.2,80.6,126.2L80.6,126.2z"/>
		<path class="st1" d="M83.9,121.9c2.4,0,2.4-3.8,0-3.8S81.5,121.9,83.9,121.9L83.9,121.9z"/>
		<path class="st1" d="M89.3,122.1c2.4,0,2.4-3.8,0-3.8S86.9,122.1,89.3,122.1L89.3,122.1z"/>
	</g>
	<g>
		<path class="st1" d="M66.5,121.8c0.1-0.3,0.2-0.6,0.3-0.9l-0.2,0.4c0.1-0.3,0.3-0.6,0.5-0.9l-0.3,0.4c0.2-0.2,0.3-0.3,0.5-0.5
			l-0.4,0.3c0.2-0.1,0.3-0.2,0.5-0.3l-0.4,0.2c0.2-0.1,0.3-0.1,0.5-0.1l-0.5,0.1c0.2,0,0.4,0,0.6,0l-0.5-0.1c0.3,0,0.6,0.1,0.8,0.2
			l-0.4-0.2c0.3,0.1,0.5,0.2,0.8,0.4l-0.4-0.3c0,0,0.1,0.1,0.1,0.1l-0.3-0.4c0,0,0.1,0.1,0.1,0.1l-0.2-0.4l0,0.1l-0.1-0.5
			c0,0,0,0.1,0,0.1l0.1-0.5c0,0,0,0.1,0,0.1l0.2-0.4c0,0.1-0.1,0.1-0.1,0.2l0.3-0.4c-0.2,0.2-0.5,0.4-0.7,0.7l0.4-0.3
			c-0.6,0.4-1.1,0.8-1.8,1.1l0.4-0.2c-0.3,0.1-0.6,0.2-0.9,0.3l0.5-0.1c-0.1,0-0.2,0-0.2,0l0.5,0.1c-0.1,0-0.2,0-0.2-0.1l0.4,0.2
			c-0.1,0-0.1-0.1-0.2-0.1l0.4,0.3c0,0-0.1-0.1-0.1-0.1l0.3,0.4c0,0-0.1-0.1-0.1-0.1l0.2,0.4c0-0.1,0-0.1-0.1-0.2l0.1,0.5
			c0,0,0-0.1,0-0.1l-0.1,0.5c0-0.1,0-0.1,0.1-0.2l-0.2,0.4c0-0.1,0.1-0.2,0.1-0.2l-0.3,0.4c0.1-0.1,0.2-0.2,0.3-0.3l-0.4,0.3
			c0.3-0.3,0.7-0.5,1.1-0.6l-0.4,0.2c0.2-0.1,0.3-0.1,0.5-0.2l-0.5,0.1c0.1,0,0.2,0,0.2,0l-0.5-0.1c0.1,0,0.2,0,0.2,0.1l-0.4-0.2
			l0.1,0l-0.4-0.3l0.1,0l-0.3-0.4l0,0.1l-0.3-0.9v0.1c0.1-0.3,0.2-0.6,0.2-0.9c0,0,0,0.1-0.1,0.1l0.3-0.4c-0.1,0.1-0.2,0.2-0.3,0.3
			l0.4-0.3c-0.2,0.1-0.3,0.2-0.5,0.3l0.4-0.2c-0.2,0.1-0.3,0.1-0.5,0.1l0.5-0.1h-0.1c-0.3,0-0.5,0.1-0.7,0.2
			c-0.2,0.1-0.4,0.2-0.6,0.4c-0.3,0.3-0.6,0.9-0.6,1.3s0.2,1,0.6,1.3c0.3,0.3,0.8,0.6,1.3,0.6c0.6-0.1,1.1-0.2,1.7-0.5
			c0.4-0.2,0.8-0.5,1.1-0.8c0.4-0.4,0.7-0.9,0.7-1.5c0-0.7-0.4-1.4-1-1.8c-0.7-0.4-1.5-0.4-2.2-0.2c-0.5,0.2-0.9,0.4-1.3,0.6
			s-0.8,0.5-1.1,0.9c-0.5,0.6-0.9,1.3-0.8,2.2c0.1,0.8,0.5,1.5,1.3,1.8c0.7,0.4,1.5,0.4,2.2,0.2c0.5-0.1,0.9-0.3,1.3-0.5
			c0.7-0.4,1.4-0.9,2-1.4c0.4-0.3,0.7-0.6,0.9-1c0.5-0.9,0.4-2-0.4-2.8c-0.4-0.4-0.9-0.6-1.4-0.8c-0.6-0.2-1.1-0.4-1.7-0.4
			c-1.1-0.1-2.3,0.4-3.1,1.3s-1.2,1.8-1.4,2.8c-0.1,0.5-0.1,1,0.2,1.4c0.2,0.4,0.7,0.8,1.1,0.9C65.2,123.3,66.2,122.8,66.5,121.8
			L66.5,121.8L66.5,121.8z"/>
		<path class="st1" d="M63.1,120.5c-0.1,0.2-0.2,0.4-0.2,0.6c-0.1,0.4-0.1,0.8,0,1.1c0.1,0.4,0.3,0.8,0.6,1.1c0.5,0.4,1,0.6,1.6,0.7
			c0.3,0,0.6-0.1,0.9-0.1c0.9-0.2,1.7-0.7,2.4-1.3c0.2-0.2,0.3-0.4,0.4-0.6c0.1-0.2,0.2-0.5,0.2-0.7c0-0.3,0-0.5-0.2-0.7
			c-0.1-0.2-0.2-0.4-0.4-0.6c-0.4-0.3-0.8-0.6-1.3-0.6l-0.5,0.1c-0.3,0.1-0.6,0.2-0.8,0.5c-0.1,0.1-0.1,0.1-0.2,0.2l0.4-0.3
			c-0.2,0.2-0.5,0.4-0.8,0.5l0.4-0.2c-0.2,0.1-0.5,0.2-0.8,0.2l0.5-0.1c-0.1,0-0.2,0-0.2,0l0.5,0.1c-0.1,0-0.1,0-0.2,0l0.4,0.2
			c0,0-0.1,0-0.1-0.1l0.4,0.3c0,0,0,0-0.1-0.1l0.3,0.4c0,0,0-0.1-0.1-0.1l0.2,0.4c0,0,0-0.1,0-0.1l0.1,0.5c0,0,0-0.1,0-0.1l-0.1,0.5
			c0,0,0,0,0-0.1l-0.2,0.4c0,0,0-0.1,0-0.1c0.1-0.2,0.2-0.4,0.2-0.7c0.1-0.2,0-0.5,0-0.8c-0.1-0.2-0.2-0.5-0.3-0.6
			c-0.1-0.2-0.3-0.4-0.5-0.5c-0.4-0.2-1-0.3-1.4-0.2l-0.5,0.2C63.5,120,63.3,120.3,63.1,120.5L63.1,120.5L63.1,120.5z"/>
		<path class="st1" d="M60.8,120.8c2.4,0,2.4-3.8,0-3.8S58.3,120.8,60.8,120.8L60.8,120.8z"/>
		<path class="st1" d="M64,116.5c2.4,0,2.4-3.8,0-3.8S61.6,116.5,64,116.5L64,116.5z"/>
		<path class="st1" d="M69.4,116.7c2.4,0,2.4-3.8,0-3.8S67,116.7,69.4,116.7L69.4,116.7z"/>
	</g>
	<g>
		<path class="st1" d="M70.4,103.9c0.1-0.3,0.2-0.6,0.3-0.9l-0.2,0.4c0.1-0.3,0.3-0.6,0.5-0.9l-0.3,0.4c0.2-0.2,0.3-0.3,0.5-0.5
			l-0.4,0.3c0.2-0.1,0.3-0.2,0.5-0.3l-0.4,0.2c0.2-0.1,0.3-0.1,0.5-0.1l-0.5,0.1c0.2,0,0.4,0,0.6,0l-0.5-0.1c0.3,0,0.6,0.1,0.8,0.2
			l-0.4-0.2c0.3,0.1,0.5,0.2,0.8,0.4l-0.4-0.3c0,0,0.1,0.1,0.1,0.1l-0.3-0.4c0,0,0.1,0.1,0.1,0.1l-0.2-0.4l0,0.1l-0.1-0.5
			c0,0,0,0.1,0,0.1l0.1-0.5c0,0,0,0.1,0,0.1l0.2-0.4c0,0.1-0.1,0.1-0.1,0.2l0.3-0.4c-0.2,0.2-0.5,0.4-0.7,0.7l0.4-0.3
			c-0.6,0.4-1.1,0.8-1.8,1.1l0.4-0.2c-0.3,0.1-0.6,0.2-0.9,0.3l0.5-0.1c-0.1,0-0.2,0-0.2,0l0.5,0.1c-0.1,0-0.2,0-0.2-0.1l0.4,0.2
			c-0.1,0-0.1-0.1-0.2-0.1l0.4,0.3c0,0-0.1-0.1-0.1-0.1l0.3,0.4c0,0-0.1-0.1-0.1-0.1l0.2,0.4c0-0.1,0-0.1-0.1-0.2l0.1,0.5
			c0,0,0-0.1,0-0.1l-0.1,0.5c0-0.1,0-0.1,0.1-0.2l-0.2,0.4c0-0.1,0.1-0.2,0.1-0.2l-0.3,0.4c0.1-0.1,0.2-0.2,0.3-0.3l-0.4,0.3
			c0.3-0.3,0.7-0.5,1.1-0.6l-0.4,0.2c0.2-0.1,0.3-0.1,0.5-0.2l-0.5,0.1c0.1,0,0.2,0,0.2,0l-0.5-0.1c0.1,0,0.2,0,0.2,0.1l-0.4-0.2
			l0.1,0l-0.4-0.3l0.1,0l-0.3-0.4l0,0.1l-0.3-0.9v0.1c0.1-0.3,0.2-0.6,0.2-0.9c0,0,0,0.1-0.1,0.1l0.3-0.4c-0.1,0.1-0.2,0.2-0.3,0.3
			l0.4-0.3c-0.2,0.1-0.3,0.2-0.5,0.3l0.4-0.2c-0.2,0.1-0.3,0.1-0.5,0.1l0.5-0.1H70c-0.3,0-0.5,0.1-0.7,0.2c-0.2,0.1-0.4,0.2-0.6,0.4
			c-0.3,0.3-0.6,0.9-0.6,1.3s0.2,1,0.6,1.3c0.3,0.3,0.8,0.6,1.3,0.6c0.6-0.1,1.1-0.2,1.7-0.5c0.4-0.2,0.8-0.5,1.1-0.8
			c0.4-0.4,0.7-0.9,0.7-1.5c0-0.7-0.4-1.4-1-1.8c-0.7-0.4-1.5-0.4-2.2-0.2c-0.5,0.2-0.9,0.4-1.3,0.6s-0.8,0.5-1.1,0.9
			c-0.5,0.6-0.9,1.3-0.8,2.2c0.1,0.8,0.6,1.5,1.3,1.8s1.5,0.4,2.2,0.2c0.5-0.1,0.9-0.3,1.3-0.5c0.7-0.4,1.4-0.9,2-1.4
			c0.4-0.3,0.7-0.6,0.9-1c0.5-0.9,0.4-2-0.4-2.8c-0.4-0.4-0.9-0.6-1.4-0.8c-0.6-0.2-1.1-0.4-1.7-0.4c-1.1-0.1-2.3,0.4-3.1,1.3
			s-1.2,1.8-1.4,2.8c-0.1,0.5-0.1,1,0.2,1.4c0.2,0.4,0.7,0.8,1.1,0.9C69.1,105.4,70.2,104.9,70.4,103.9L70.4,103.9L70.4,103.9z"/>
		<path class="st1" d="M67.1,102.5c-0.1,0.2-0.2,0.4-0.2,0.6c-0.1,0.4-0.1,0.8,0,1.1c0.1,0.4,0.3,0.8,0.6,1.1c0.5,0.4,1,0.6,1.6,0.7
			c0.3,0,0.6-0.1,0.9-0.1c0.9-0.2,1.7-0.7,2.4-1.3c0.2-0.2,0.3-0.4,0.4-0.6c0.1-0.2,0.2-0.5,0.2-0.7c0-0.3,0-0.5-0.2-0.7
			c-0.1-0.2-0.2-0.4-0.4-0.6c-0.4-0.3-0.8-0.6-1.3-0.6l-0.5,0.1c-0.3,0.1-0.6,0.2-0.8,0.5c-0.1,0.1-0.1,0.1-0.2,0.2l0.4-0.3
			c-0.2,0.2-0.5,0.4-0.8,0.5l0.4-0.2c-0.2,0.1-0.5,0.2-0.8,0.2l0.5-0.1c-0.1,0-0.2,0-0.2,0l0.5,0.1c-0.1,0-0.1,0-0.2,0l0.4,0.2
			c0,0-0.1,0-0.1-0.1l0.4,0.3c0,0,0,0-0.1-0.1l0.3,0.4c0,0,0-0.1-0.1-0.1l0.2,0.4c0,0,0-0.1,0-0.1l0.1,0.5c0,0,0-0.1,0-0.1l-0.1,0.5
			c0,0,0,0,0-0.1l-0.2,0.4c0,0,0-0.1,0-0.1c0.1-0.2,0.2-0.4,0.2-0.7c0.1-0.2,0-0.5,0-0.8c-0.1-0.2-0.2-0.5-0.3-0.6
			c-0.1-0.2-0.3-0.4-0.5-0.5c-0.4-0.2-1-0.3-1.4-0.2l-0.4,0.2C67.5,102.1,67.2,102.3,67.1,102.5L67.1,102.5L67.1,102.5z"/>
		<path class="st1" d="M64.7,102.9c2.4,0,2.4-3.8,0-3.8S62.3,102.9,64.7,102.9L64.7,102.9z"/>
		<path class="st1" d="M67.9,98.5c2.4,0,2.4-3.8,0-3.8S65.5,98.5,67.9,98.5L67.9,98.5z"/>
		<path class="st1" d="M73.4,98.8c2.4,0,2.4-3.8,0-3.8S71,98.8,73.4,98.8L73.4,98.8z"/>
	</g>
</g>
</svg>
