<?xml version="1.0" encoding="UTF-8"?>
<svg id="_Слой_1" data-name="Слой 1" xmlns="http://www.w3.org/2000/svg" xmlns:xlink="http://www.w3.org/1999/xlink" viewBox="0 0 155.63 141.02">
  <defs>
    <style>
      .cls-1 {
        fill: #fff;
      }

      .cls-2 {
        fill: #4a9bd5;
      }

      .cls-3 {
        clip-path: url(#clippath);
      }

      .cls-4, .cls-5, .cls-6 {
        fill: none;
      }

      .cls-5 {
        stroke-miterlimit: 10;
        stroke-width: 3.91px;
      }

      .cls-5, .cls-6 {
        stroke: #fff;
      }

      .cls-6 {
        stroke-linecap: round;
        stroke-linejoin: round;
        stroke-width: 3px;
      }
    </style>
    <clipPath id="clippath">
      <circle class="cls-4" cx="80.86" cy="69.05" r="67.28"/>
    </clipPath>
  </defs>
  <g class="cls-3">
    <g>
      <circle class="cls-2" cx="80.86" cy="69.05" r="67.28"/>
      <g>
        <path class="cls-1" d="m25.48,108.23c10.3-5.46,21.16-9.95,31.96-14.31,11.16-4.5,22.48-8.99,34.11-12.14,3.66-.99,8.44-2.5,12.03-.58.74.4.93.63.42,1.31-.61.82-1.58,1.35-2.42,1.89-2.35,1.52-4.7,3.03-7.04,4.55l1.89,3.24c1.78-1.17,3.73-2.57,5.91-2.76,1.39-.12,3.2.35,3.72,1.8s-.5,3.22-1.62,4.14c-1.66,1.36-3.9,1.86-5.93,2.38l1,3.62c2.55-.7,5.68-1.4,8.31-.76.8.19,1.93.52,2.42,1.24.44.64-.01,1.12-.52,1.6-4.03,3.8-9.77,5.78-14.82,7.78-11.39,4.5-22.52,9.62-33.32,15.4-6.16,3.3-12.2,6.81-18.12,10.51-2.04,1.28-.16,4.52,1.89,3.24,11.58-7.24,23.63-13.72,36.07-19.38,6.08-2.77,12.29-5.18,18.46-7.73,2.91-1.2,5.79-2.49,8.46-4.16,2.3-1.44,5.52-3.35,5.82-6.34s-2.46-4.94-5.03-5.67c-3.37-.95-7.33-.23-10.63.68-2.33.64-1.35,4.22,1,3.62,2.87-.74,5.99-1.62,8.1-3.84,1.88-1.97,2.95-4.98,1.95-7.62s-3.76-4.12-6.52-4.23c-3.15-.13-5.98,1.61-8.5,3.28-2,1.32-.15,4.55,1.89,3.24,2.21-1.43,4.42-2.85,6.63-4.28,1.71-1.1,3.62-2.23,4.53-4.14,2.39-5-4.25-7.13-7.97-7.15s-7.13.99-10.54,1.96c-2.72.78-5.41,1.64-8.09,2.54-13.47,4.53-26.7,9.86-39.73,15.55-5.97,2.61-11.93,5.28-17.69,8.33-2.13,1.13-.24,4.37,1.89,3.24h0Z"/>
        <path class="cls-1" d="m107.18,82.3c.21-.1.42-.19.63-.28l-.45.19c1.67-.7,3.43-1.17,5.22-1.42l-.5.07c.15-.02.31-.04.46-.06.51-.06.95-.17,1.33-.55.33-.33.57-.86.55-1.33s-.18-.99-.55-1.33c-.34-.31-.84-.6-1.33-.55-2.54.29-4.93.95-7.26,2.01-.4.18-.75.71-.86,1.12-.12.45-.07,1.05.19,1.44s.64.75,1.12.86c.52.12.96.03,1.44-.19h0Z"/>
        <path class="cls-1" d="m109.68,92.59c.37-.26.75-.5,1.15-.71.2-.11.4-.21.6-.3.1-.05.21-.09.31-.14-.5.24-.14.06-.03.02.84-.32,1.72-.54,2.61-.66l-.5.07c.48-.06.97-.09,1.46-.1.98,0,1.92-.86,1.88-1.88s-.82-1.88-1.88-1.88c-2.64.02-5.31.82-7.48,2.33-.41.28-.73.63-.86,1.12-.12.45-.07,1.05.19,1.44.51.8,1.71,1.27,2.57.67h0Z"/>
        <path class="cls-1" d="m114.04,102.57c.26-.14.52-.28.78-.41.24-.12.54-.32.8-.37-.25.11-.29.12-.1.04.08-.03.16-.06.23-.09.12-.05.24-.09.35-.13.3-.11.6-.21.9-.3.56-.17,1.13-.32,1.71-.43.29-.06.58-.11.87-.15.49-.07-.33.03.06,0,.17-.02.33-.04.5-.05.51-.05.95-.18,1.33-.55.33-.33.57-.86.55-1.33-.04-.94-.83-1.97-1.88-1.88-2.82.27-5.52,1.06-8.01,2.42-.86.47-1.21,1.73-.67,2.57s1.64,1.18,2.57.67h0Z"/>
        <path class="cls-1" d="m71.09,87.63c2.74,5.31,4.4,11.15,4.84,17.11l3.49-.95c-2.69-5.92-5.97-11.56-9.78-16.83-.59-.82-1.63-1.22-2.57-.67-.81.47-1.27,1.74-.67,2.57,3.81,5.27,7.09,10.91,9.78,16.83.77,1.68,3.63.86,3.49-.95-.49-6.65-2.29-13.08-5.35-19-1.11-2.14-4.34-.25-3.24,1.89h0Z"/>
        <path class="cls-1" d="m69.84,87.01c-.4.85-.4,1.6,0,2.45.17.37.39.71.58,1.07.45.83.88,1.67,1.28,2.52.19.41.38.83.56,1.25.09.2.1.22.03.06.05.11.09.22.14.34.08.2.16.39.24.59.34.88.66,1.77.95,2.66l3.13-1.82c.11.13.11.15.01,0-.06-.09-.11-.18-.16-.27-.1-.18-.19-.37-.28-.56.07.15.07.19,0,0-.04-.1-.08-.2-.11-.3-.07-.2-.14-.4-.21-.6-.33-.96-.68-1.91-1.2-2.78-1.05-1.75-2.34-3.38-3.51-5.05-.54-.77-1.43-1.15-2.34-.77-.78.33-1.43,1.34-1.09,2.21.08.2.16.39.23.59.36.91,1.27,1.65,2.31,1.31.88-.28,1.7-1.33,1.31-2.31-.08-.2-.16-.39-.23-.59l-3.43,1.44c1.21,1.71,2.55,3.39,3.6,5.2.12.2.23.4.33.61.02.03.15.35.07.15s.04.11.05.15c.16.43.3.86.45,1.29.38,1.08.84,2.03,1.56,2.92.5.61,1.63.71,2.27.29.68-.44,1.12-1.31.86-2.12-.56-1.72-1.21-3.4-1.95-5.04-.35-.78-.72-1.54-1.11-2.3-.2-.38-.4-.75-.6-1.12-.09-.16-.18-.32-.27-.48-.06-.1-.11-.19-.16-.29.07.12.12.25.14.38l-.26.95.06-.13c.41-.89.28-2.06-.67-2.57-.83-.44-2.12-.28-2.57.67h0Z"/>
        <path class="cls-1" d="m60.94,102.54c4.52,6.41,7.84,13.54,9.79,21.15.6,2.34,4.22,1.35,3.62-1-2.03-7.89-5.48-15.39-10.17-22.04-.58-.83-1.64-1.21-2.57-.67-.82.48-1.26,1.73-.67,2.57h0Z"/>
        <path class="cls-1" d="m60.73,101.88c2.78,7.17,5.64,14.48,6.35,22.2.22,2.38,3.97,2.41,3.75,0-.75-8.09-3.57-15.67-6.49-23.2-.37-.94-1.26-1.6-2.31-1.31-.9.25-1.68,1.36-1.31,2.31h0Z"/>
        <path class="cls-1" d="m67.08,116.23c.31,1.17.58,2.35.8,3.54.11.59.22,1.19.31,1.79.04.27.06.56.12.83-.11-.48,0-.07,0,.06.02.18.05.37.07.55.06.51.17.95.55,1.33.33.33.86.57,1.33.55.92-.04,2-.83,1.88-1.88-.3-2.62-.77-5.21-1.44-7.77-.25-.95-1.35-1.62-2.31-1.31s-1.58,1.29-1.31,2.31h0Z"/>
        <path class="cls-1" d="m43.7,97.42c1.13,8.72,3.56,17.13,7.29,25.1,1.02,2.18,4.26.28,3.24-1.89-3.43-7.32-5.74-15.19-6.78-23.21-.13-1-.77-1.88-1.88-1.88-.91,0-2.01.86-1.88,1.88h0Z"/>
        <path class="cls-1" d="m39.22,100.53c2.97,7.96,6.81,15.57,11.51,22.65,1.02,1.54,3.43.96,3.49-.95.08-2.19-1.21-3.85-2.3-5.62s-1.97-3.55-2.73-5.43-1.45-3.86-2.09-5.82c-.36-1.08-.71-2.16-1.06-3.24-.26-.78-.98-2.19-.94-2.9l-.55,1.33.14-.18-.83.48-.03.03-.95-.26.21.13-.67-.67c.31.47.24,1.43.31,1.97.1.82.19,1.63.29,2.45.12,1.01.78,1.88,1.88,1.88.92,0,1.99-.86,1.88-1.88-.26-2.22-.03-8.5-3.91-7.27-1.79.57-1.59,2.38-1.13,3.79.52,1.58,1.03,3.16,1.55,4.74.97,2.96,2,5.9,3.29,8.74.62,1.37,1.32,2.71,2.11,3.99.7,1.13,1.84,2.33,1.79,3.72l3.49-.95c-4.52-6.81-8.28-14.1-11.14-21.75-.35-.95-1.27-1.59-2.31-1.31-.91.25-1.67,1.35-1.31,2.31h0Z"/>
        <path class="cls-1" d="m50.76,122.24l.79,1.27,1.12-2.75c-.06.02-.11.03-.17.04l.5-.07c-.07,0-.15,0-.22,0l.5.07c-.07,0-.13-.03-.19-.05-.25-.08-.5-.09-.75-.03-.25.01-.48.09-.7.22-.22.12-.39.28-.53.48-.17.18-.28.39-.34.64l-.07.5c0,.34.09.65.26.95l.29.38c.23.23.51.39.83.48.05.02.1.03.15.04.21.04.43.08.64.08s.44-.05.63-.08c.05,0,.11-.02.16-.04.32-.09.59-.25.83-.48.18-.17.31-.37.39-.6.12-.22.17-.46.16-.72,0-.34-.09-.65-.26-.95l-.79-1.27c-.12-.22-.28-.39-.48-.53-.18-.17-.39-.28-.64-.34-.25-.08-.5-.09-.75-.03-.25.01-.48.09-.7.22l-.38.29c-.23.23-.39.51-.48.83l-.07.5c0,.34.09.65.26.95h0Z"/>
        <path class="cls-1" d="m40.18,100.47c.94,2.87,2.13,5.67,3.55,8.33.46.87,1.74,1.21,2.57.67.88-.57,1.17-1.64.67-2.57-.66-1.24-1.26-2.51-1.83-3.8-.05-.13-.04-.09.04.11-.04-.09-.08-.18-.11-.27-.07-.16-.13-.32-.19-.48-.13-.32-.25-.64-.37-.97-.25-.67-.49-1.35-.71-2.03-.3-.93-1.31-1.63-2.31-1.31-.93.3-1.64,1.31-1.31,2.31h0Z"/>
        <path class="cls-1" d="m65.45,111.54c.64,2.22,1.33,4.42,2.07,6.61.37,1.09.76,2.18,1.15,3.27.19.51.33,1.09.58,1.56l.05.18c-.08-.54.06-.95.42-1.23.21-.08.22-.09,0-.03-.1.03-.2.05-.3.07-.99.19-1.56,1.38-1.31,2.31.29,1.04,1.31,1.5,2.31,1.31,1.6-.31,2.81-1.53,2.51-3.24-.1-.62-.4-1.21-.61-1.8-.24-.66-.48-1.32-.71-1.98-.93-2.65-1.78-5.32-2.56-8.01-.28-.97-1.32-1.58-2.31-1.31s-1.59,1.33-1.31,2.31h0Z"/>
        <path class="cls-1" d="m67.62,122.36c-.02.25-.04.49-.07.73l.07-.5c-.08.58-.21,1.15-.38,1.71l3.62,1c.06-.24.12-.49.18-.73.12-.48.06-1.01-.19-1.44-.12-.22-.28-.39-.48-.53-.18-.17-.39-.28-.64-.34-.48-.11-1.02-.09-1.44.19-.4.26-.74.64-.86,1.12-.06.24-.12.49-.18.73-.12.48-.06,1.01.19,1.44.12.22.28.39.48.53.18.17.39.28.64.34.48.11,1.02.09,1.44-.19s.71-.64.86-1.12c.3-.95.46-1.95.52-2.94,0-.26-.04-.5-.16-.72-.08-.23-.2-.43-.39-.6-.17-.18-.37-.31-.6-.39-.22-.12-.46-.17-.72-.16-.48.02-.99.18-1.33.55l-.29.38c-.17.29-.25.61-.26.95h0Z"/>
        <path class="cls-1" d="m73.07,95.9c.58,1.49,1.16,2.97,1.74,4.46.18.47.41.86.86,1.12.4.24.99.33,1.44.19s.89-.43,1.12-.86.37-.98.19-1.44c-.58-1.49-1.16-2.97-1.74-4.46-.18-.47-.41-.86-.86-1.12-.4-.24-.99-.33-1.44-.19s-.89.43-1.12.86-.37.98-.19,1.44h0Z"/>
        <path class="cls-1" d="m70.81,88.73l1.6,3.57c.18.4.71.75,1.12.86.45.12,1.05.07,1.44-.19s.75-.64.86-1.12l.07-.5c0-.34-.09-.65-.26-.95l-1.6-3.57c-.18-.4-.71-.75-1.12-.86-.45-.12-1.05-.07-1.44.19s-.75.64-.86,1.12l-.07.5c0,.34.09.65.26.95h0Z"/>
      </g>
      <g>
        <rect class="cls-1" x="76.82" y="69.91" width="8.62" height="13.26" rx="1.68" ry="1.68" transform="translate(-19.34 28.09) rotate(-17.59)"/>
        <rect class="cls-1" x="66.7" y="69.18" width="25.88" height="5.38" rx="1.68" ry="1.68" transform="translate(-18 27.43) rotate(-17.59)"/>
        <rect class="cls-5" x="66.28" y="32.47" width="14.79" height="41.17" rx="1.68" ry="1.68" transform="translate(-12.59 24.75) rotate(-17.59)"/>
        <rect class="cls-1" x="62.37" y="27.8" width="8.62" height="6.33" rx="1.68" ry="1.68" transform="translate(-6.24 21.6) rotate(-17.59)"/>
        <line class="cls-6" x1="66.6" y1="30.74" x2="61.34" y2="14.15"/>
      </g>
    </g>
  </g>
</svg>