<?xml version="1.0" encoding="utf-8"?>
<!-- Generator: Adobe Illustrator 27.1.1, SVG Export Plug-In . SVG Version: 6.00 Build 0)  -->
<svg version="1.1" id="_Слой_1" xmlns="http://www.w3.org/2000/svg" xmlns:xlink="http://www.w3.org/1999/xlink" x="0px"
	 y="0px" viewBox="0 0 148.1 147.8" style="enable-background:new 0 0 148.1 147.8;" xml:space="preserve">
<style type="text/css">
	.st0{fill:#458A42;}
	.st1{clip-path:url(#SVGID_00000111901956497292059630000014222180536414165667_);}
	.st2{fill:#FFFFFF;}
</style>
<g>
	<circle class="st0" cx="73.5" cy="73.7" r="69.5"/>
	<g>
		<defs>
			<circle id="SVGID_1_" cx="73.5" cy="73.7" r="69.5"/>
		</defs>
		<clipPath id="SVGID_00000122701626554486591820000013715678257493855398_">
			<use xlink:href="#SVGID_1_"  style="overflow:visible;"/>
		</clipPath>
		<g style="clip-path:url(#SVGID_00000122701626554486591820000013715678257493855398_);">
			<g>
				<path class="st2" d="M93.7,108.9c-3.1-19.7-2.8-39.9,0.8-59.5c0.4-2.4-3.2-3.4-3.6-1c-3.7,20.3-4,41.1-0.8,61.5
					c0.2,1,1.4,1.6,2.3,1.3C93.5,110.9,93.9,109.9,93.7,108.9L93.7,108.9L93.7,108.9z"/>
				<path class="st2" d="M94.6,48.5c-0.1-9.3-5.2-18.2-13.1-23.1c-1.2-0.7-2.9,0.2-2.8,1.6c0.3,5.4,1.7,10.6,4.1,15.5
					c2.2,4.3,5.4,8.9,10.3,10.2c2.3,0.6,3.3-3,1-3.6c-4-1.1-6.5-5.4-8.2-8.9c-2-4.1-3.2-8.6-3.4-13.2l-2.8,1.6
					c6.8,4.2,11.2,11.9,11.3,19.9C90.9,50.9,94.7,50.9,94.6,48.5L94.6,48.5L94.6,48.5z"/>
				<path class="st2" d="M93,52.7c5.5-1.2,9.3-5.8,11.5-10.7c1.2-2.7,2.1-5.5,3.1-8.3c0.8-2.2,2.5-5.7-0.3-7.3
					c-0.6-0.3-1.3-0.4-1.9,0c-8.2,5.6-13.5,14.7-14.3,24.6c-0.2,2.4,3.6,2.4,3.8,0c0.7-8.5,5.4-16.6,12.5-21.4h-1.9
					c-0.5-0.3-0.2-0.6-0.4-0.1s-0.4,1.1-0.6,1.7c-0.4,1.2-0.8,2.3-1.2,3.5c-0.8,2.2-1.5,4.4-2.5,6.5c-1.8,3.6-4.6,6.9-8.7,7.8
					C89.7,49.6,90.7,53.2,93,52.7L93,52.7L93,52.7z"/>
				<path class="st2" d="M74.6,119.5c5.7-2.1,11.4-4.3,17.2-6.2c2.9-0.9,5.4-0.6,8.3,0.1s6,1.5,8.9,2.3c2.3,0.6,3.3-3,1-3.6
					c-3.1-0.8-6.3-1.6-9.4-2.4s-5.9-1.1-8.9-0.2s-5.9,2-8.8,3.1l-9.2,3.3C71.4,116.7,72.3,120.3,74.6,119.5L74.6,119.5L74.6,119.5z"
					/>
				<g>
					<path class="st2" d="M1.7,75.5l28.7,23.5c2.4,2,4.8,3.9,7.2,5.9c2,1.7,4.1,3.4,6.5,4.5c4.2,1.9,9.9,2,13-2s1.6-10.2-2-13.6
						l-1.3,3.2c1.1,0.1,2.1,0.9,3,1.4c1.1,0.6,2.3,1.2,3.6,1.3c2.5,0.3,4.7-1.1,5.9-3.2c3.1-5.2-0.8-10.4-4.6-13.9l-2.3,2.9
						c2.5,1.8,5.5,3.5,8.7,3.1s5.3-2.6,5.8-5.6c0.6-3.1-0.6-6-2.5-8.5c-2-2.7-4.5-5.1-6.9-7.4c-9.8-9.9-20.2-19.2-31.2-27.6
						c-6.3-4.8-12.8-9.4-19.4-13.7c-2-1.3-3.9,1.9-1.9,3.2C22.8,36,32.9,43.5,42.5,51.6c4.8,4.1,9.5,8.3,14,12.6
						c2.3,2.2,4.5,4.4,6.7,6.7c2.1,2.1,4.4,4.2,6.1,6.7c1.2,1.9,2.3,5.1,0.2,6.9c-2.3,1.9-6-0.7-7.9-2.1c-1.7-1.3-3.8,1.5-2.3,2.9
						c2.4,2.2,6.4,6.1,3.8,9.6c-0.9,1.3-2.2,1.3-3.5,0.7c-1.9-0.9-3.5-2.1-5.7-2.3c-1.7-0.2-2.4,2.2-1.3,3.2c2.3,2.1,3.9,6.4,1.4,9
						c-3,3-7.8,1.1-10.7-0.9c-4.2-2.9-8.1-6.5-12.1-9.7L18.5,84.5c-4.7-3.9-9.4-7.7-14.2-11.6c-0.8-0.7-1.9-0.8-2.7,0
						C1,73.5,0.9,74.9,1.7,75.5L1.7,75.5L1.7,75.5z"/>
					<path class="st2" d="M55.3,108.3l3.8,2.4c0.4,0.3,1,0.3,1.4,0.2s0.9-0.5,1.1-0.9c0.5-0.9,0.2-2-0.7-2.6l-3.8-2.4
						c-0.4-0.3-1-0.3-1.4-0.2s-0.9,0.5-1.1,0.9C54.2,106.7,54.5,107.7,55.3,108.3C55.3,108.3,55.3,108.3,55.3,108.3z"/>
					<path class="st2" d="M63.6,98.8l3.9,2.8c0.4,0.3,1,0.3,1.4,0.2s0.9-0.5,1.1-0.9c0.2-0.4,0.3-1,0.2-1.4L70.1,99
						c-0.2-0.3-0.4-0.5-0.7-0.7l-3.9-2.8c-0.4-0.3-1-0.3-1.4-0.2s-0.9,0.5-1.1,0.9c-0.2,0.4-0.3,1-0.2,1.4l0.2,0.4
						C63.1,98.4,63.4,98.6,63.6,98.8C63.6,98.8,63.6,98.8,63.6,98.8z"/>
					<path class="st2" d="M70.5,85.7c1.5,1.3,3.2,2.4,4.9,3.4c0.4,0.2,1,0.3,1.4,0.2c0.4-0.1,0.9-0.5,1.1-0.9c0.5-0.9,0.2-2-0.7-2.6
						c-1.3-0.7-2.5-1.6-3.7-2.4l0.4,0.3c-0.3-0.2-0.6-0.4-0.8-0.7c-0.4-0.3-0.8-0.6-1.3-0.6c-0.5,0-1,0.2-1.3,0.6s-0.6,0.8-0.6,1.3
						C70,84.9,70.1,85.4,70.5,85.7L70.5,85.7L70.5,85.7z"/>
					<path class="st2" d="M44.6,53.6c-6.1,9.5-9.2,20.4-12.1,31.2c-0.6,2.4,2.8,3.2,3.6,1c3.3-8.6,7.3-16.9,12.1-24.8
						c1-1.7,2.9-3.8,1.5-5.8C49,54.3,48,53.8,47,54c-1.2,0.2-1.8,1.2-2.3,2.2c-2.3,4.1-4.3,8.3-6.2,12.6c-0.4,0.9,0.4,2.1,1.3,2.3
						c1.1,0.3,1.9-0.4,2.3-1.3c0.9-2.2,1.9-4.4,3-6.5c0.5-1,1.1-2.1,1.6-3.1c0.3-0.5,0.6-1.1,0.9-1.6c0.2-0.3,0.3-0.5,0.5-0.8
						c0.3-0.5,0.3-0.5-0.1-0.1h-1l-0.7-0.8l-0.2,0.3c-0.2,0.2-0.5,0.7-0.6,1c-0.3,0.5-0.6,1-1,1.6c-0.7,1.1-1.3,2.2-2,3.4
						c-1.3,2.3-2.6,4.7-3.8,7.1c-2.4,4.8-4.5,9.6-6.4,14.6l3.6,1c2.9-10.5,5.8-21,11.8-30.3C49.2,53.5,45.9,51.6,44.6,53.6
						L44.6,53.6L44.6,53.6z"/>
					<path class="st2" d="M14.2,81.4C18.8,70,25.8,59.7,34.7,51.2l-2.9-2.3c-6.6,11.7-11.6,24.2-14.6,37.3c-0.5,2.3,3.1,3.3,3.6,1
						c3-12.8,7.8-25,14.3-36.4c1.1-1.9-1.4-3.8-2.9-2.3c-9.4,9-16.7,19.9-21.5,31.9c-0.4,0.9,0.4,2.1,1.3,2.3
						C13,83.1,13.8,82.4,14.2,81.4L14.2,81.4L14.2,81.4z"/>
					<path class="st2" d="M16.4,81.8c0.5-3,1.6-5.7,3.4-8.1l-3.4-1.4c-1.1,3.2-2,6.4-2.7,9.7c-0.5,2.1,2.3,3.3,3.4,1.4
						c1.3-2.1,2.2-4.3,2.9-6.7s-2.9-3.3-3.6-1c-0.9,2.7-1.3,5.6-1.2,8.5c0.1,2.1,3.2,2.6,3.7,0.5c0.7-3.3,1.7-6.6,2.9-9.8l-3.6-1
						c-0.8,2.9-1.6,5.8-2.3,8.8l3.7,0.5c-0.3-2.4-0.4-4.8-0.3-7.2c0.1-1.6-1.6-2.2-2.8-1.6c-1.6,0.7-2.8,1.9-3.6,3.4
						c-1.1,2.2,1.9,3.9,3.2,1.9c2.9-4.5,5.7-9,8.6-13.6l-3.2-1.9c-2.2,4.4-4,9.1-5.2,13.9c-0.6,2.3,2.9,3.3,3.6,1
						c1.2-3.8,2.4-7.7,3.6-11.5c0.9-2.8,2-5.9,4.6-7.5l-2.6-2.6c-4.2,7.4-7.2,15.4-8.9,23.7c-0.5,2.3,3,3.3,3.6,1
						c0.9-3.4,1.8-6.8,2.7-10.2c0.6-2.3-3-3.3-3.6-1c-0.9,3.4-1.8,6.8-2.7,10.2l3.6,1c1.7-8,4.5-15.7,8.6-22.8
						c0.9-1.6-0.9-3.6-2.6-2.6c-3.1,2-4.8,5.3-6,8.7c-1.4,4.2-2.7,8.4-4,12.6l3.6,1c1.1-4.5,2.7-8.8,4.8-13c1.1-2.2-1.9-3.9-3.2-1.9
						c-2.9,4.5-5.7,9-8.6,13.6l3.2,1.9c0.5-1,1.2-1.6,2.2-2.1L15.5,76c-0.1,2.4,0,4.8,0.3,7.2c0.2,2,3.1,2.7,3.7,0.5
						c0.8-2.9,1.6-5.8,2.3-8.8c0.6-2.4-2.8-3.2-3.6-1c-1.2,3.2-2.2,6.5-2.9,9.8l3.7,0.5c-0.1-2.6,0.3-5,1.1-7.5l-3.6-1
						c-0.6,2.1-1.4,4-2.5,5.8l3.4,1.4c0.7-3.3,1.6-6.5,2.7-9.7c0.3-0.9-0.3-1.9-1.1-2.2c-0.9-0.4-1.8,0-2.3,0.8
						c-2,2.6-3.3,5.7-3.8,9c-0.2,1,0.3,2,1.3,2.3C14.9,83.4,16.2,82.8,16.4,81.8L16.4,81.8L16.4,81.8z"/>
					<path class="st2" d="M20.4,33.4c-4.6,8.4-7.9,17.5-9.8,26.9c-0.5,2.4,2.8,3.3,3.6,1c2.9-8.2,7.2-15.8,12.7-22.5
						c0.6-0.8,0.8-1.9,0-2.7c-0.7-0.7-2-0.8-2.6,0c-5.9,7.2-10.6,15.3-13.7,24.2l3.6,1c1.8-9.1,5-17.8,9.4-26
						C24.8,33.2,21.6,31.3,20.4,33.4L20.4,33.4L20.4,33.4z"/>
					<path class="st2" d="M22.4,34.4c-3,2.9-5.2,6.5-6.3,10.5c-0.3,0.9,0.3,2.1,1.3,2.3s2-0.3,2.3-1.3c0.1-0.4,0.3-0.9,0.4-1.3
						c0.1-0.2,0.2-0.5,0.2-0.7c0-0.1,0.1-0.2,0.1-0.3c-0.1,0.4,0,0,0-0.1c0.4-0.8,0.8-1.7,1.3-2.5c0.2-0.4,0.5-0.8,0.7-1.1
						c0.1-0.2,0.3-0.4,0.4-0.6c0.1-0.1,0.1-0.1,0,0c0.1-0.1,0.1-0.2,0.2-0.2c0.6-0.7,1.2-1.4,1.9-2.1s0.7-2,0-2.7
						S23.2,33.7,22.4,34.4L22.4,34.4L22.4,34.4z"/>
					<path class="st2" d="M23.5,35.4c-2.6,1.7-4.6,4.2-5.7,7.1c-0.2,0.4,0,1.1,0.2,1.4s0.7,0.8,1.1,0.9c0.5,0.1,1,0.1,1.4-0.2
						s0.7-0.6,0.9-1.1c0.1-0.2,0.1-0.3,0.2-0.5l-0.2,0.5c0.4-1,0.9-1.9,1.6-2.7l-0.3,0.4c0.6-0.8,1.3-1.5,2.1-2.1l-0.4,0.3
						c0.3-0.2,0.6-0.5,0.9-0.7c0.8-0.5,1.2-1.7,0.7-2.6C25.5,35.3,24.4,34.9,23.5,35.4L23.5,35.4L23.5,35.4z"/>
					<path class="st2" d="M44.8,53.1c-0.7,1.2-1,2.7-1,4.1c0,0.5,0.2,1,0.5,1.3c0.3,0.3,0.9,0.6,1.3,0.5s1-0.2,1.3-0.5
						s0.6-0.8,0.5-1.3c0-0.3,0-0.6,0-1l-0.1,0.5c0.1-0.6,0.2-1.1,0.5-1.7l-0.2,0.5c0.1-0.2,0.2-0.3,0.2-0.5c0.2-0.4,0.3-1,0.2-1.4
						c-0.1-0.4-0.5-0.9-0.9-1.1c-0.4-0.2-1-0.3-1.4-0.2C45.5,52.4,45.1,52.7,44.8,53.1L44.8,53.1L44.8,53.1z"/>
					<path class="st2" d="M49,59.8l1.5-2.3c0.1-0.2,0.2-0.5,0.2-0.7c0.1-0.2,0-0.5,0-0.8c-0.1-0.2-0.2-0.5-0.3-0.6
						c-0.1-0.2-0.3-0.4-0.5-0.5c-0.4-0.2-1-0.3-1.4-0.2L48,54.9c-0.3,0.2-0.5,0.4-0.7,0.7l-1.5,2.3c-0.1,0.2-0.2,0.5-0.2,0.7
						c-0.1,0.2,0,0.5,0,0.8c0.1,0.2,0.2,0.5,0.3,0.6c0.1,0.2,0.3,0.4,0.5,0.5c0.4,0.2,1,0.3,1.4,0.2l0.5-0.2
						C48.6,60.3,48.9,60,49,59.8L49,59.8z"/>
				</g>
			</g>
		</g>
	</g>
</g>
</svg>
