<?xml version="1.0" encoding="UTF-8"?>
<svg id="_Слой_1" data-name="Слой 1" xmlns="http://www.w3.org/2000/svg" xmlns:xlink="http://www.w3.org/1999/xlink" viewBox="0 0 149.92 153.09">
  <defs>
    <style>
      .cls-1 {
        fill: #fff;
      }

      .cls-2 {
        fill: #beb15a;
      }

      .cls-3 {
        stroke: #fff;
        stroke-miterlimit: 10;
        stroke-width: 5px;
      }

      .cls-3, .cls-4 {
        fill: none;
      }

      .cls-5 {
        clip-path: url(#clippath);
      }
    </style>
    <clipPath id="clippath">
      <circle class="cls-4" cx="75.35" cy="77.91" r="67.28"/>
    </clipPath>
  </defs>
  <g class="cls-5">
    <g>
      <circle class="cls-2" cx="75.35" cy="77.91" r="67.28"/>
      <g>
        <path class="cls-1" d="m140.7,99.03c-9.49,4.13-19.49,8.07-29.24,12.02-10.08,4.09-20.21,8.09-30.2,12.41-3.33,1.44-7.88,3.63-11.26,1.13-3.16-2.34-.69-6.43,2.01-7.86,1.32-.7,1.18-3.19-.45-3.43-2.02-.29-3.64.42-5.6.65-1.22.14-1.97-.43-2.22-1.63-.65-3.19,3.03-5.05,5.36-6.23,1.87-.95.56-4.18-1.44-3.43-2.21.83-7.66,2.16-6.9-2.07.58-3.24,4.66-4.96,7.23-6.43,5.24-2.98,10.66-5.66,16.12-8.24,12.89-6.11,26.06-11.66,39.39-16.76,6.16-2.36,12.36-4.63,18.65-6.58,2.3-.71,1.32-4.33-1-3.62-13.38,4.15-26.43,9.47-39.31,14.94s-25.77,11.05-37.74,18.18c-3.86,2.3-8.48,5.97-6.86,11.11s7.48,4.55,11.42,3.07l-1.44-3.43c-3.97,2.01-8.05,5.19-7.14,10.18.34,1.88,1.55,3.59,3.35,4.31,1.17.47,2.4.43,3.63.22,1.11-.2,2.37-.79,3.52-.63l-.45-3.43c-3.17,1.68-5.71,5.26-5.32,8.96.43,4.14,4.15,6.62,8.06,6.96s7.57-1.54,11.05-3.04c2.05-.88,4.11-1.73,6.28-2.63,12.05-4.98,24.16-9.82,36.23-14.74,5.4-2.2,10.81-4.4,16.16-6.73.94-.41,1.13-1.76.67-2.57-.55-.96-1.64-1.07-2.57-.67h0Z"/>
        <path class="cls-1" d="m66.01,122.13c-1.23.37-2.46.74-3.7,1.1-.46.14-.88.45-1.12.86s-.33.99-.19,1.44.43.89.86,1.12.95.34,1.44.19c1.23-.37,2.46-.74,3.7-1.1.46-.14.88-.45,1.12-.86s.33-.99.19-1.44-.43-.89-.86-1.12-.95-.34-1.44-.19h0Z"/>
        <path class="cls-1" d="m61.42,112.44c-1.28.46-2.55.91-3.83,1.37-.47.17-.86.42-1.12.86-.24.4-.33.99-.19,1.44s.43.89.86,1.12.97.36,1.44.19l3.83-1.37c.47-.17.86-.42,1.12-.86.24-.4.33-.99.19-1.44s-.43-.89-.86-1.12-.97-.36-1.44-.19h0Z"/>
        <path class="cls-1" d="m57.98,100.51c-.13.06-.25.11-.38.17l.45-.19c-1.3.55-2.65,1-4.02,1.35-.45.12-.89.46-1.12.86s-.33.99-.19,1.44c.32.98,1.29,1.57,2.31,1.31,1.67-.43,3.27-1.02,4.85-1.71.4-.18.75-.72.86-1.12.12-.45.07-1.05-.19-1.44s-.64-.75-1.12-.86l-.5-.07c-.34,0-.65.09-.95.26h0Z"/>
        <path class="cls-1" d="m84.95,84.15c2.71,8.87,2.67,18.17,2.61,27.35h3.75c-.4-4.45-1-8.88-1.83-13.27-.41-2.19-.88-4.37-1.4-6.54-.26-1.08-.53-2.16-.82-3.24-.12-.46-.25-.92-.38-1.38-.09-.31-.17-.61-.26-.92-.02-.57-.19-.61-.51-.12l-.95.26h.24c-.32-.09-.63-.18-.95-.26-.4-.63-.48-.63-.26-.01.06.23.12.46.17.69.11.46.22.92.33,1.38.23,1,.44,2,.63,3,.39,2,.71,4.01.96,6.03.12,1,.77,1.88,1.88,1.88.92,0,2-.86,1.88-1.88-.49-4-1.19-7.96-2.17-11.87-.43-1.73-1.65-3.4-3.66-2.45s-1.57,3.08-1.08,4.82c2.2,7.81,3.68,15.81,4.41,23.89.21,2.36,3.73,2.45,3.75,0,.06-9.51.06-19.17-2.74-28.35-.7-2.3-4.32-1.32-3.62,1h0Z"/>
        <path class="cls-1" d="m110.2,113.04c-1.17-11.02-4.63-21.67-10.27-31.23-1.09-1.85-3.94-.62-3.43,1.44,2.66,10.78,3.74,21.86,3.26,32.95-.11,2.41,3.65,2.41,3.75,0,.5-11.41-.66-22.86-3.39-33.95l-3.43,1.44c5.28,8.96,8.65,18.99,9.76,29.33.11,1.01.79,1.88,1.88,1.88.93,0,1.98-.86,1.88-1.88h0Z"/>
        <path class="cls-1" d="m108.32,112.85c.33-2.81-.03-5.66-1.03-8.3-.7-1.84-3.79-1.77-3.68.5.14,2.84.13,5.69-.03,8.53l3.68-.5c-.48-1.72-.72-3.43-.71-5.22h-3.75c.06,2.16-.22,4.22-.85,6.29l3.68.5c.16-2.9.12-5.8-.14-8.7-.21-2.37-3.71-2.45-3.75,0s-.07,5.14-.11,7.71c-.01.92.72,1.73,1.63,1.84,1,.12,1.68-.46,2.06-1.34.8-1.89,1.43-3.83,1.91-5.83l-3.13.83c.7.59,1.06,1.18,1.24,2.08l3.62-1c-1.3-4.35-2.6-8.71-3.9-13.06-.7-2.33-4.08-1.35-3.62,1,.75,3.84,1.03,7.72.9,11.63h3.75c-.11-3.69-.13-7.4-.34-11.09-.18-3.22-.8-6.35-2.99-8.83-1.29-1.47-3.55.11-3.13,1.82,1.64,6.73,2.2,13.62,1.72,20.52h3.75c.05-2.97.11-5.95.16-8.92.04-2.41-3.71-2.41-3.75,0-.05,2.97-.11,5.95-.16,8.92-.04,2.43,3.59,2.39,3.75,0,.5-7.22-.15-14.49-1.86-21.52l-3.13,1.82c1.72,1.95,1.85,4.8,1.94,7.27.12,3.33.2,6.67.29,10,.07,2.41,3.67,2.41,3.75,0,.15-4.24-.22-8.47-1.03-12.63l-3.62,1c1.3,4.35,2.6,8.71,3.9,13.06.7,2.33,4.08,1.35,3.62-1-.29-1.46-1.07-2.78-2.21-3.73-1.02-.85-2.78-.65-3.13.83-.48,2-1.11,3.94-1.91,5.83l3.68.5c.04-2.57.07-5.14.11-7.71h-3.75c.26,2.9.3,5.79.14,8.7-.12,2.17,3.08,2.46,3.68.5.72-2.36,1.06-4.82.99-7.28s-3.75-2.42-3.75,0c0,2.1.28,4.19.85,6.22s3.57,1.58,3.68-.5c.16-2.84.16-5.69.03-8.53l-3.68.5c.9,2.38,1.19,4.78.9,7.3-.12,1.01.95,1.88,1.88,1.88,1.11,0,1.76-.86,1.88-1.88h0Z"/>
        <path class="cls-1" d="m135.3,103.9c-1.17-11.02-4.63-21.67-10.27-31.23-1.09-1.85-3.94-.62-3.43,1.44,2.55,10.33,3.4,20.81,2.93,31.44-.11,2.41,3.64,2.41,3.75,0,.48-10.94-.44-21.79-3.06-32.43l-3.43,1.44c5.28,8.96,8.65,18.99,9.76,29.33.11,1.01.79,1.88,1.88,1.88.93,0,1.98-.86,1.88-1.88h0Z"/>
        <path class="cls-1" d="m125.73,103.7l-.57.57c-1.23,1.23.01,3.87,1.82,3.13,2.08-.84,4.13-1.75,6.14-2.73s.53-3.83-1.44-3.43c-1.09.22-2.11.61-3.1,1.13l2.75,2.12.05-.14-.86,1.12c.8-.6,1.46-.91,1.78-1.96.29-.95.41-2.02.44-3,.03-1.05-.08-2.11-.25-3.15-.16-.98-.71-1.9-.84-2.86s-.77-1.88-1.88-1.88c-.98,0-1.92.86-1.88,1.88.14,2.84.13,5.69-.03,8.53l3.68-.5c-.48-1.72-.72-3.43-.71-5.22h-3.75c.06,2.16-.22,4.22-.85,6.29l3.68.5c.16-2.9.12-5.8-.14-8.7-.21-2.37-3.71-2.45-3.75,0s-.07,5.14-.11,7.71c-.01.92.72,1.73,1.63,1.84,1,.12,1.68-.46,2.06-1.34.8-1.89,1.43-3.83,1.91-5.83l-3.13.83c.71.6,1.06,1.16,1.24,2.08l3.62-1c-1.3-4.35-2.6-8.71-3.9-13.06-.7-2.33-4.08-1.35-3.62,1,.75,3.84,1.03,7.72.9,11.63h3.75c-.11-3.78-.12-7.57-.36-11.35-.2-3.14-.85-6.16-2.97-8.58-1.29-1.47-3.55.11-3.13,1.82,1.64,6.73,2.2,13.62,1.72,20.52h3.75c.05-2.97.11-5.95.16-8.92.04-2.41-3.71-2.41-3.75,0-.05,2.97-.11,5.95-.16,8.92-.04,2.43,3.59,2.39,3.75,0,.5-7.22-.15-14.49-1.86-21.52l-3.13,1.82c1.67,1.9,1.84,4.65,1.93,7.06.13,3.4.2,6.81.3,10.21.07,2.41,3.67,2.41,3.75,0,.15-4.24-.22-8.46-1.03-12.63l-3.62,1c1.3,4.35,2.6,8.71,3.9,13.06.7,2.33,4.09,1.36,3.62-1-.3-1.46-1.06-2.77-2.21-3.73-1.02-.86-2.78-.65-3.13.83-.48,2-1.11,3.94-1.91,5.83l3.68.5c.04-2.57.07-5.14.11-7.71h-3.75c.25,2.9.3,5.79.14,8.7-.12,2.17,3.08,2.47,3.68.5.72-2.36,1.06-4.82.99-7.28s-3.75-2.42-3.75,0c0,2.1.28,4.19.85,6.22s3.57,1.58,3.68-.5c.15-2.84.16-5.69.03-8.53h-3.75c.23,1.76,1.01,3.3,1.08,5.11.03.87-.06,1.68-.22,2.54.34-.22.36-.23.04-.05l-.17.13c-.45.41-.7.66-.91,1.26-.59,1.64,1.41,2.82,2.75,2.12.71-.37,1.42-.59,2.2-.75l-1.44-3.43c-1.72.84-3.47,1.63-5.25,2.35l1.82,3.13.57-.57c1.71-1.71-.94-4.36-2.65-2.65h0Z"/>
        <path class="cls-1" d="m109.37,73.19c1.75,7.65,2.3,15.5,1.7,23.32h3.75c-.53-7.99-2.45-15.73-5.66-23.06-.41-.93-1.76-1.14-2.57-.67-.96.56-1.08,1.63-.67,2.57,2.93,6.68,4.66,13.89,5.15,21.17.16,2.42,3.57,2.41,3.75,0,.63-8.15-.01-16.35-1.83-24.32-.54-2.35-4.15-1.36-3.62,1h0Z"/>
        <path class="cls-1" d="m107.85,74.77c.39.66.74,1.35,1.04,2.05-.17-.39.09.25.12.31.06.15.11.31.17.46.14.39.26.78.37,1.18.21.74.35,1.49.48,2.25.02.14.02.11-.01-.09.01.11.03.22.04.33.02.19.04.38.05.57.03.41.05.82.05,1.23.01.98.85,1.92,1.88,1.88s1.89-.82,1.88-1.88c-.04-3.57-1.01-7.1-2.82-10.19-.5-.85-1.71-1.22-2.57-.67s-1.2,1.66-.67,2.57h0Z"/>
      </g>
      <path class="cls-1" d="m71.57,82.25h0c1.94,0,3.52,1.58,3.52,3.52v4.15h-7.03v-4.15c0-1.94,1.58-3.52,3.52-3.52Z" transform="translate(-26.05 31.28) rotate(-20.95)"/>
      <path class="cls-1" d="m88.49,122.75h0c1.94,0,3.52,1.58,3.52,3.52v11.44h-7.03v-11.44c0-1.94,1.58-3.52,3.52-3.52Z" transform="translate(217.69 220.21) rotate(159.05)"/>
      <path class="cls-1" d="m65.44,76.87h7.03v3.16c0,1.94-1.58,3.52-3.52,3.52h0c-1.94,0-3.52-1.58-3.52-3.52v-3.16h0Z" transform="translate(-24.12 29.96) rotate(-20.95)"/>
      <circle class="cls-3" cx="58" cy="51.29" r="26"/>
      <path class="cls-1" d="m61.98,36.36c4.49.71,8.44,3.91,9.89,8.22.21.64.86,1.06,1.54.87.62-.17,1.09-.89.87-1.54-1.71-5.1-6.28-9.12-11.63-9.97-.67-.11-1.34.17-1.54.87-.16.59.2,1.43.87,1.54h0Z"/>
    </g>
  </g>
</svg>