<?xml version="1.0" encoding="UTF-8"?>
<svg id="_Слой_1" data-name="Слой 1" xmlns="http://www.w3.org/2000/svg" xmlns:xlink="http://www.w3.org/1999/xlink" viewBox="0 0 147.38 144.2">
  <defs>
    <style>
      .cls-1 {
        fill: #fff;
      }

      .cls-2 {
        clip-path: url(#clippath);
      }

      .cls-3 {
        fill: #cd5e63;
      }

      .cls-4, .cls-5 {
        fill: none;
      }

      .cls-5 {
        stroke: #fff;
        stroke-linecap: round;
        stroke-linejoin: round;
        stroke-width: 4px;
      }
    </style>
    <clipPath id="clippath">
      <circle class="cls-4" cx="74.3" cy="73.12" r="67.28"/>
    </clipPath>
  </defs>
  <g class="cls-2">
    <g>
      <circle class="cls-3" cx="74.3" cy="73.12" r="67.28"/>
      <g>
        <path class="cls-1" d="m26.72,21.64c10.47,1.42,20.87,3.43,31.15,5.86s20.5,5.23,30.31,9.11c1.98.78,5.63,2.26,5.16,5.02-.4,2.33-4.06,1.79-5.65,1.48-2.35-.46-3.32,2.89-1,3.62,2.16.68,5.69,1.8,5.54,4.65-.06,1.05-.55,1.58-1.61,1.64-1.7.1-3.27-.35-4.95.18-1.8.57-1.76,3.03,0,3.62,1.92.64,4.06,2.61,3.69,4.84-.39,2.36-3.21,3.29-5.27,3.31-3.3.03-6.66-1.2-9.83-1.99s-6.62-1.66-9.93-2.49c-12.9-3.23-25.79-6.54-38.71-9.7-7.09-1.74-14.21-3.35-21.38-4.72-2.36-.45-3.37,3.16-1,3.62,14.27,2.73,28.32,6.47,42.4,10l22.29,5.58c3.53.88,7.06,1.8,10.6,2.65,3.29.79,6.76,1.31,9.95-.12s5.11-4.42,4.54-7.83-3.33-5.74-6.35-6.76v3.62c2.15-.68,4.41.44,6.56-.65,1.78-.91,2.7-2.85,2.75-4.79.11-4.76-4.37-7.03-8.29-8.26l-1,3.62c2.53.49,5.47.75,7.77-.67,2.51-1.55,3.2-4.63,2.11-7.27-1.22-2.96-4.03-4.43-6.84-5.57-2.54-1.03-5.12-1.95-7.71-2.82-11.46-3.86-23.25-6.74-35.1-9.11-6.37-1.27-12.77-2.38-19.2-3.25-1.01-.14-2,.24-2.31,1.31-.25.87.31,2.17,1.31,2.31h0Z"/>
        <path class="cls-1" d="m91.65,64.2l3.52.44c.44.06,1.03-.25,1.33-.55.33-.33.57-.86.55-1.33s-.18-.99-.55-1.33l-.38-.29c-.29-.17-.61-.25-.95-.26l-3.52-.44c-.44-.06-1.03.25-1.33.55-.33.33-.57.86-.55,1.33s.18.99.55,1.33l.38.29c.29.17.61.25.95.26h0Z"/>
        <path class="cls-1" d="m93.84,54.65l3.68.66c.51.09.99.08,1.44-.19.39-.23.76-.67.86-1.12.11-.48.09-1.02-.19-1.44-.25-.39-.65-.78-1.12-.86l-3.68-.66c-.51-.09-.99-.08-1.44.19-.39.23-.76.67-.86,1.12-.11.48-.09,1.02.19,1.44.25.39.65.78,1.12.86h0Z"/>
        <path class="cls-1" d="m94.71,43.2c1.55.39,3.13.64,4.72.78.45.04,1.01-.24,1.33-.55s.57-.86.55-1.33-.18-.99-.55-1.33-.81-.51-1.33-.55c-.43-.04-.86-.08-1.29-.14l.5.07c-.99-.13-1.97-.32-2.93-.57-.48-.12-1.02-.06-1.44.19-.39.23-.76.67-.86,1.12-.11.48-.09,1.02.19,1.44s.64.74,1.12.86h0Z"/>
        <path class="cls-1" d="m53.95,58.79c-.58-9.72.93-19.38,4.42-28.48l-3.68-.5c-.79,10.49-.05,21.04,2.13,31.33.5,2.36,4.12,1.36,3.62-1-2.12-9.97-2.77-20.18-2-30.34.07-.92-.77-1.74-1.63-1.84-.98-.12-1.71.45-2.06,1.34-3.59,9.36-5.14,19.46-4.55,29.47.14,2.4,3.89,2.41,3.75,0h0Z"/>
        <path class="cls-1" d="m55.55,57.83c-.59-2.04-.72-4.14-.31-6.22l-3.68-.5c.33,2.77.78,5.51,1.39,8.23.2.9,1.18,1.47,2.06,1.34.98-.15,1.52-.89,1.63-1.84.21-1.96.1-3.87-.23-5.8-.17-1-1.4-1.56-2.31-1.31-1.08.3-1.45,1.3-1.31,2.31.31,2.27,1.03,4.41,2.05,6.46s3.88.55,3.43-1.44c-.55-2.45-.93-4.91-1.13-7.41l-3.68.5c.42,2.33.85,4.65,1.27,6.98l3.43-1.44c-1.01-1.6-1.88-3.26-2.62-5-.45-1.07-2.23-1.22-2.94-.38-1.05,1.24-1.62,2.59-1.67,4.22-.04,1.01.89,1.88,1.88,1.88,1.12,0,1.75-.87,1.88-1.88.52-4.14,1.04-8.29,1.56-12.43h-3.75c-.11,3.91.25,7.81,1.03,11.64.2.99,1.38,1.56,2.31,1.31,1.08-.3,1.45-1.3,1.31-2.31-.4-2.93-.83-5.87-1.21-8.8-.3-2.35-.59-4.93.72-7.03l-3.49-.95c-.48,6.65.08,13.35,1.63,19.83.57,2.37,4.05,1.35,3.62-1-.5-2.69-1-5.38-1.5-8.07-.19-1-1.39-1.56-2.31-1.31-1.05.29-1.5,1.31-1.31,2.31.5,2.69,1,5.38,1.5,8.07l3.62-1c-1.48-6.18-1.96-12.5-1.5-18.83.14-1.94-2.57-2.43-3.49-.95-1.6,2.59-1.63,5.65-1.27,8.58.41,3.39.92,6.77,1.39,10.15l3.62-1c-.71-3.51-1-7.07-.9-10.65.03-1.01-.88-1.88-1.88-1.88-1.12,0-1.75.87-1.88,1.88-.52,4.14-1.04,8.29-1.56,12.43h3.75c.02-.59.19-1.11.57-1.57l-2.94-.38c.74,1.74,1.61,3.4,2.62,5,1.18,1.86,3.8.62,3.43-1.44-.42-2.33-.85-4.65-1.27-6.98-.38-2.06-3.85-1.61-3.68.5.22,2.83.64,5.64,1.26,8.4l3.43-1.44c-.88-1.76-1.41-3.62-1.68-5.57l-3.62,1c.27,1.59.26,3.2.09,4.81l3.68-.5c-.54-2.39-.96-4.8-1.25-7.23-.11-.93-.63-1.72-1.63-1.84-.86-.1-1.87.41-2.06,1.34-.55,2.75-.47,5.52.31,8.22.67,2.31,4.29,1.33,3.62-1h0Z"/>
        <path class="cls-1" d="m41.49,22.63c-.44,7.51.27,15.06,2.08,22.37.5,2,3.9,1.64,3.68-.5-.68-6.84-.21-13.71,1.47-20.37.59-2.34-3.03-3.34-3.62-1-1.76,6.97-2.32,14.21-1.61,21.37l3.68-.5c-1.73-7-2.37-14.18-1.95-21.37.14-2.41-3.61-2.4-3.75,0h0Z"/>
        <path class="cls-1" d="m43.27,22.9c-1.19,3.12-1.43,6.48-.92,9.77.15.97,1.42,1.6,2.31,1.31,1.06-.34,1.47-1.26,1.31-2.31-.02-.1-.03-.21-.05-.32.03.24.03.24,0,.02-.01-.16-.03-.32-.05-.48-.03-.37-.05-.74-.06-1.11-.01-.69.02-1.38.09-2.07,0-.06.06-.59.01-.13.02-.18.06-.37.09-.55.06-.34.13-.68.21-1.01.17-.72.4-1.43.66-2.13.35-.92-.39-2.1-1.31-2.31-1.07-.24-1.93.33-2.31,1.31h0Z"/>
        <path class="cls-1" d="m32,53.35c.84-5.69,1.69-11.59,4.71-16.6l-3.43-1.44c-1.16,6-1.85,12.09-2.03,18.2-.07,2.41,3.68,2.41,3.75,0,.17-5.78.8-11.53,1.9-17.2.39-2.03-2.28-3.35-3.43-1.44-3.19,5.31-4.2,11.46-5.08,17.5-.15,1,.25,2.01,1.31,2.31.88.24,2.16-.3,2.31-1.31h0Z"/>
        <path class="cls-1" d="m30.21,48.1c-.19,1.51-.19,3.04-.02,4.55.06.51.17.95.55,1.33.33.33.86.57,1.33.55s.99-.18,1.33-.55c.31-.34.61-.84.55-1.33-.17-1.51-.17-3.04.02-4.55.05-.44-.25-1.03-.55-1.33-.33-.33-.86-.57-1.33-.55s-.99.18-1.33.55l-.29.38c-.17.29-.25.61-.26.95h0Z"/>
      </g>
      <path class="cls-1" d="m61.79,76.94c1.14-8.56,2.4-17.1,3.79-25.62.66-4.06,1.31-8.12,2.29-12.12.87-3.54,1.87-7.63,3.97-10.67.81-1.16,2.6-2.55,3.92-1.28,1.06,1.02,1.26,2.9,1.47,4.27.15,1,1.41,1.56,2.31,1.31,1.07-.3,1.47-1.3,1.31-2.31-.53-3.45-2.18-7.63-6.37-7.52-4.7.13-6.78,4.85-8.21,8.61-1.69,4.45-2.68,9.13-3.5,13.81-.84,4.79-1.58,9.59-2.31,14.39-.86,5.7-1.67,11.4-2.43,17.11-.13,1.01.96,1.88,1.88,1.88,1.12,0,1.74-.87,1.88-1.88h0Z"/>
      <path class="cls-1" d="m84.37,67.74c.73,3.06,1.45,6.12,2.18,9.19.23.95,1.37,1.61,2.31,1.31.99-.32,1.55-1.28,1.31-2.31-.73-3.06-1.45-6.12-2.18-9.19-.23-.95-1.37-1.61-2.31-1.31-.99.32-1.55,1.28-1.31,2.31h0Z"/>
      <path class="cls-1" d="m44.79,79.94h60.01c2.41,0,2.42-3.75,0-3.75h-60.01c-2.41,0-2.42,3.75,0,3.75h0Z"/>
      <line class="cls-5" x1="44.96" y1="78.31" x2="39.12" y2="118.61"/>
      <line class="cls-5" x1="51.57" y1="78.53" x2="48.82" y2="117.9"/>
      <line class="cls-5" x1="105.12" y1="78.31" x2="110.97" y2="118.61"/>
      <path class="cls-1" d="m38.84,120.94h72.44c2.41,0,2.42-3.75,0-3.75H38.84c-2.41,0-2.42,3.75,0,3.75h0Z"/>
    </g>
  </g>
</svg>