<?xml version="1.0" encoding="UTF-8"?>
<svg id="_Слой_1" data-name="Слой 1" xmlns="http://www.w3.org/2000/svg" xmlns:xlink="http://www.w3.org/1999/xlink" viewBox="0 0 149.28 144.2">
  <defs>
    <style>
      .cls-1 {
        fill: #fff;
      }

      .cls-2 {
        fill: #90cae9;
      }

      .cls-3 {
        clip-path: url(#clippath);
      }

      .cls-4 {
        fill: none;
      }
    </style>
    <clipPath id="clippath">
      <circle class="cls-4" cx="74.56" cy="72.58" r="67.28"/>
    </clipPath>
  </defs>
  <g class="cls-3">
    <g>
      <circle class="cls-2" cx="74.56" cy="72.58" r="67.28"/>
      <g>
        <path class="cls-1" d="m40.09,115.37c18.13,0,36.26,0,54.39,0h15.38c2.41,0,2.42-3.75,0-3.75-18.13,0-36.26,0-54.39,0h-15.38c-2.41,0-2.42,3.75,0,3.75h0Z"/>
        <path class="cls-1" d="m111.7,114.29c1.78-2.19,3.02-4.6,3.21-7.45.17-2.39-.46-4.78-1.07-7.08-.68-2.55-1.34-5.11-1.42-7.76-.05-1.66.12-3.26.41-4.89.27-1.55.3-3.27-.9-4.46-1.48-1.47-3.93-.94-5.67-.26-2.08.83-3.84,2.17-5.56,3.58-1.86,1.54.8,4.18,2.65,2.65,1.48-1.23,3.11-2.49,5-2.99.36-.1.86-.06,1.2-.18-.76.27.04-.65-.29.25-.27.72-.29,1.71-.39,2.48-.41,3.19-.13,6.38.58,9.51.54,2.38,1.41,4.74,1.67,7.17s-.46,4.78-2.08,6.77c-.64.79-.76,1.87,0,2.65.65.67,2.02.78,2.65,0h0Z"/>
        <path class="cls-1" d="m75.6,87.74c.83-2.96,2.79-7.07,1.08-10.05-.73-1.27-2-2.15-3.48-2.22-1.85-.08-3.4,1.35-4.8,2.36-2.92,2.12-5.8,4.32-8.85,6.26s-6.12,3.37-9.39,4.63c-6.53,2.52-13.22,4.54-19.98,6.35-2.69.72-5.73,1.67-7.28,4.17-1.66,2.67-1.3,5.99.17,8.65,3.49,6.26,10.73,7.77,17.33,7.43,2.4-.13,2.42-3.88,0-3.75-4.64.24-9.53-.21-12.84-3.84-1.51-1.65-2.71-4.11-1.6-6.29.99-1.95,4.08-2.46,5.99-2.95,5.63-1.42,11.16-3.23,16.63-5.19s10.87-4.47,15.74-7.92c2.73-1.94,5.36-4.18,8.22-5.92,1.32-.8,1.02,1.46.85,2.18-.41,1.71-.95,3.4-1.42,5.09-.65,2.33,2.96,3.32,3.62,1h0Z"/>
        <path class="cls-1" d="m60.3,87.32c.12.14.24.29.36.43.1.13.29.29.35.44-.05-.11-.18-.23-.04-.05.07.09.14.19.21.28.11.15.22.3.33.45.45.63.88,1.27,1.29,1.93.81,1.32,1.53,2.69,2.15,4.11.4.9,1.78,1.18,2.57.67.93-.6,1.1-1.6.67-2.57-1.34-3.03-3.12-5.82-5.24-8.36-.63-.76-2.01-.7-2.65,0-.74.8-.67,1.85,0,2.65h0Z"/>
        <path class="cls-1" d="m55.6,90.19c.12.14.24.29.36.43.1.13.29.29.35.44-.05-.11-.18-.23-.04-.05.07.09.14.19.21.28.11.15.22.3.33.45.45.63.88,1.27,1.29,1.93.81,1.32,1.53,2.69,2.15,4.11.4.9,1.78,1.18,2.57.67.93-.6,1.1-1.6.67-2.57-1.34-3.03-3.12-5.82-5.24-8.36-.63-.76-2.01-.7-2.65,0-.74.8-.67,1.85,0,2.65h0Z"/>
        <path class="cls-1" d="m50.55,92.82c.12.14.24.29.36.43.1.13.29.29.35.44-.05-.11-.18-.23-.04-.05.07.09.14.19.21.28.11.15.22.3.33.45.45.63.88,1.27,1.29,1.93.81,1.32,1.53,2.69,2.15,4.11.4.9,1.78,1.18,2.57.67.93-.6,1.1-1.6.67-2.57-1.34-3.03-3.12-5.82-5.24-8.36-.63-.76-2.01-.7-2.65,0-.74.8-.67,1.85,0,2.65h0Z"/>
        <path class="cls-1" d="m27.16,111.27h83.77c2.41,0,2.42-3.75,0-3.75H27.16c-2.41,0-2.42,3.75,0,3.75h0Z"/>
        <path class="cls-1" d="m30.56,112.4h79.91c2.41,0,2.42-3.75,0-3.75H30.56c-2.41,0-2.42,3.75,0,3.75h0Z"/>
        <path class="cls-1" d="m32.61,113.54h76.28c2.41,0,2.42-3.75,0-3.75H32.61c-2.41,0-2.42,3.75,0,3.75h0Z"/>
        <path class="cls-1" d="m73.02,88.96c4.69,3.49,10.27,5.64,16.17,5.23,5.35-.37,10.58-1.85,14.35-5.87,1.65-1.76-.99-4.41-2.65-2.65-3.17,3.37-7.6,4.54-12.1,4.79-5.16.29-9.81-1.71-13.88-4.75-.82-.61-2.09-.13-2.57.67-.57.95-.14,1.96.67,2.57h0Z"/>
      </g>
      <g>
        <path class="cls-1" d="m101.72,7.56c-6.65,9.27-12.46,19.13-17.32,29.46-2.43,5.17-4.64,10.45-6.6,15.82-.98,2.68-2.05,5.49-1.49,8.39.44,2.3,2.12,4.51,4.45,5.13,3.02.8,5.91-1.27,8.08-3.13s4.09-4.36,5.38-7.02c1.07-2.2-1.82-3.83-3.24-1.89-1.83,2.51-3.7,5.28-3.78,8.51-.07,2.65,1.24,5.54,3.66,6.8,5.65,2.95,9.63-3.68,11.12-8.12.69-2.04-2.37-3.26-3.43-1.44-2.2,3.77-4.28,8.94-.38,12.43,1.62,1.45,3.88,2,5.88.99s3-3.11,4.06-4.93c5.4-9.3,10.79-18.6,16.19-27.9,3.07-5.29,6.14-10.59,9.22-15.88,1.21-2.09-2.03-3.98-3.24-1.89-4.61,7.94-9.22,15.88-13.82,23.82-2.32,4.01-4.65,8.01-6.97,12.02-1.16,2-2.32,4.01-3.49,6.01-.54.93-1.08,1.86-1.62,2.79-.45.78-.89,1.69-1.58,2.3-1.3,1.14-2.76-.36-3.05-1.71-.46-2.14,1.02-4.4,2.04-6.15l-3.43-1.44c-.66,1.96-2.9,7.52-5.89,5.72-1.27-.76-1.69-2.6-1.48-3.97.35-2.28,1.9-4.25,3.22-6.06l-3.24-1.89c-.99,2.04-2.27,3.87-3.91,5.45-1.19,1.15-3.58,3.49-5.42,2.95-2-.59-1.9-3.43-1.53-4.99.59-2.48,1.63-4.9,2.55-7.27,3.57-9.22,7.92-18.15,12.93-26.68,2.89-4.92,6.01-9.7,9.34-14.33.59-.83.14-2.08-.67-2.57-.94-.56-1.98-.15-2.57.67h0Z"/>
        <path class="cls-1" d="m78.26,62.85c-1.51,1.77-2.61,3.87-3.09,6.15-.1.49-.07,1,.19,1.44.23.39.67.76,1.12.86.94.21,2.09-.28,2.31-1.31.16-.76.39-1.5.69-2.22l-.19.45c.4-.93.91-1.81,1.53-2.62l-.29.38c.13-.17.26-.33.39-.49.33-.39.55-.8.55-1.33,0-.46-.2-1.01-.55-1.33s-.83-.57-1.33-.55c-.47.02-1.01.17-1.33.55h0Z"/>
        <path class="cls-1" d="m90.03,67.91c-1.11,1.56-1.97,3.28-2.62,5.08-.16.44-.04,1.06.19,1.44s.67.76,1.12.86c.48.11,1.02.09,1.44-.19s.69-.64.86-1.12c.11-.31.23-.62.36-.93l-.19.45c.55-1.31,1.25-2.55,2.07-3.7.27-.37.31-1.02.19-1.44s-.46-.91-.86-1.12c-.44-.23-.96-.35-1.44-.19s-.82.44-1.12.86h0Z"/>
        <path class="cls-1" d="m99.28,70.5c-1.67,2.12-2.86,4.57-3.29,7.26-.08.51-.08.98.19,1.44.23.39.67.76,1.12.86.48.11,1.02.09,1.44-.19.38-.25.79-.65.86-1.12.09-.58.22-1.14.38-1.7.08-.28.17-.56.27-.83.05-.14.1-.27.15-.41.03-.07.05-.14.08-.2-.11.26-.14.33-.08.2.23-.51.48-1.02.77-1.51.15-.25.3-.5.47-.74.08-.12.17-.24.25-.36.07-.1.4-.52.04-.05.32-.41.55-.78.55-1.33,0-.46-.2-1.01-.55-1.33s-.83-.57-1.33-.55c-.46.02-1.03.17-1.33.55h0Z"/>
        <path class="cls-1" d="m86.12,40.2c5.86,2.71,11.27,6.28,16.04,10.63.69.63,1.71.74,2.46.15.66-.52,1.06-1.66.48-2.42-4.4-5.79-9.62-10.83-15.6-14.99-1.09-.76-3,.23-2.82,1.62.08.64.16,1.29.24,1.93.13,1,.77,1.88,1.88,1.88.91,0,2-.86,1.88-1.88-.08-.64-.16-1.29-.24-1.93l-2.82,1.62c5.41,3.77,10.26,8.39,14.25,13.64l2.94-2.27c-5-4.56-10.66-8.37-16.8-11.22-.92-.43-2.02-.26-2.57.67-.47.81-.25,2.14.67,2.57h0Z"/>
        <path class="cls-1" d="m87.49,38.16c1.87,1.57,4.03,2.74,6.41,3.35.95.24,2.08-.31,2.31-1.31s-.29-2.05-1.31-2.31c-.67-.17-1.33-.39-1.97-.66l.45.19c-1.13-.48-2.2-1.1-3.17-1.85l.38.29c-.15-.12-.3-.24-.44-.36-.39-.33-.8-.55-1.33-.55-.46,0-1.01.2-1.33.55-.64.7-.8,1.98,0,2.65h0Z"/>
        <path class="cls-1" d="m97.53,33.22c7.19,4.31,13.56,9.81,18.92,16.26l2.65-2.65c-.41-.32-.82-.63-1.23-.95-.8-.62-1.87-.78-2.65,0-.65.65-.81,2.03,0,2.65.41.32.82.63,1.23.95,1.89,1.47,4.22-.76,2.65-2.65-5.54-6.68-12.23-12.38-19.68-16.84-2.08-1.24-3.96,2-1.89,3.24h0Z"/>
        <path class="cls-1" d="m97.04,32.89c8.11,1.27,15.83,4.59,22.21,9.78.79.64,1.88.77,2.65,0,.66-.66.79-2.01,0-2.65-6.88-5.59-15.09-9.36-23.87-10.74-1-.16-2.02.26-2.31,1.31-.24.89.3,2.15,1.31,2.31h0Z"/>
        <path class="cls-1" d="m106.08,37.24c1.02.53,2.03,1.08,3.02,1.67.5.3.99.61,1.46.93.23.15.45.31.68.47.12.09.24.18.36.27-.36-.27.04.03.09.07.42.34.82.69,1.21,1.07.21.2.41.41.6.63.1.11.19.22.28.33.07.08.34.43.06.07.32.42.6.86.86,1.32.14.25.26.51.38.77-.13-.29-.04-.09.03.09.05.14.1.28.14.42.51,1.59,2.52,1.78,3.43.45.85-1.25,1.18-3.02.78-4.49-.23-.84-.75-1.61-1.49-2.09-.33-.21-.71-.37-1.1-.45-.31-.06-.72-.12-1.05-.09-.35-.03-.25.02.29.14.63.42.68,1.12.13,2.1l-.83.48c-1.07.15-1.7-.34-1.88-1.48l.26-.95-.03.06.67-.67-.06.05c-.79.58-1.26,1.65-.67,2.57.5.78,1.72,1.29,2.57.67.94-.68,1.35-1.81.71-2.86-.53-.86-1.58-1.26-2.55-.99-1.16.32-1.76,1.7-1.4,2.8s1.32,1.71,2.44,1.82c.15.01.3.02.46.03.47.01.07-.02.07-.02.07.01.13.03.2.06l-.27-.11c.3.16-.29-.31-.07-.07.21.22-.16-.32-.08-.12,0,.02.1.21.12.21-.11-.03-.15-.44-.05-.07.06.2-.04.37.01-.08-.02.18.03.38.02.56,0,.06,0,.12-.01.17-.01.15,0,.08.03-.21-.04.05-.04.22-.06.29-.02.1-.05.19-.08.28-.12.37-.1.06.02-.01-.1.06-.26.48-.33.59l3.43.45c-1.64-5.11-6.4-7.99-10.89-10.34-.87-.46-2.08-.25-2.57.67-.46.86-.25,2.08.67,2.57h0Z"/>
        <path class="cls-1" d="m95.74,21.66c5.81,1.26,11.28,3.58,16.24,6.87,1.75,1.16,3.91-1.57,2.27-2.94-4.91-4.12-10.45-7.31-16.48-9.48-.95-.34-2.05.39-2.31,1.31-.29,1.04.35,1.96,1.31,2.31,5.39,1.93,10.44,4.83,14.83,8.51l2.27-2.94c-5.2-3.45-11.04-5.92-17.13-7.25-.99-.22-2.03.3-2.31,1.31-.26.94.32,2.09,1.31,2.31h0Z"/>
        <path class="cls-1" d="m103.88,34.69c2.17,1.91,4.25,3.91,6.23,6.01.96,1.02,1.9,2.07,2.81,3.13.48.56.92,1.18,1.55,1.58.89.58,1.79.54,2.73.13.77-.34,1.03-1.38.86-2.12-.72-3.12-2.77-5.84-5.53-7.46l-1.89,3.24c1.54.72,3.04,1.52,4.49,2.41.35.21.69.43,1.03.65.31.21.26.17.5.39.12.11.24.23.36.35.37.4-.03-.09.12.16.05.09.17.39.08.15.13.33.02-.14,0,.25l.93-1.62c-.25.12-.61.11-.91.04-.98-.24-2.03.32-2.31,1.31s.32,2.06,1.31,2.31c1.33.33,2.56.16,3.8-.42.6-.28.9-1,.93-1.62.09-2.09-1.48-3.59-3.09-4.64-1.7-1.12-3.5-2.09-5.35-2.95-.92-.43-2.02-.26-2.57.67-.51.88-.2,2.05.67,2.57,1.96,1.15,3.28,2.97,3.81,5.21l.86-2.12-.16.07.95-.26c.44-.04.68.44.22-.07-.23-.25-.44-.52-.66-.78-.39-.45-.78-.9-1.17-1.35-.82-.92-1.65-1.83-2.51-2.71-1.74-1.8-3.56-3.53-5.44-5.18-.76-.67-1.9-.75-2.65,0-.68.68-.76,1.98,0,2.65h0Z"/>
        <path class="cls-1" d="m106.88,38.48c3.2,3.5,5.87,6.93,8.46,10.88.54.82,1.68,1.24,2.57.67.82-.53,1.25-1.69.67-2.57-2.7-4.11-5.73-8.01-9.05-11.64-.66-.73-1.99-.72-2.65,0-.71.78-.71,1.88,0,2.65h0Z"/>
      </g>
    </g>
  </g>
</svg>