<?xml version="1.0" encoding="utf-8"?>
<!-- Generator: Adobe Illustrator 27.1.1, SVG Export Plug-In . SVG Version: 6.00 Build 0)  -->
<svg version="1.1" id="_Слой_1" xmlns="http://www.w3.org/2000/svg" xmlns:xlink="http://www.w3.org/1999/xlink" x="0px"
	 y="0px" viewBox="0 0 143.6 142.9" style="enable-background:new 0 0 143.6 142.9;" xml:space="preserve">
<style type="text/css">
	.st0{fill:#56547D;}
	.st1{clip-path:url(#SVGID_00000099651458096567760360000005810422162518848405_);}
	.st2{fill:#FFFFFF;}
</style>
<g>
	<circle class="st0" cx="72.2" cy="72" r="67.3"/>
	<g>
		<defs>
			<circle id="SVGID_1_" cx="72.2" cy="72" r="67.3"/>
		</defs>
		<clipPath id="SVGID_00000179645137914742455230000015566906305461594250_">
			<use xlink:href="#SVGID_1_"  style="overflow:visible;"/>
		</clipPath>
		<g style="clip-path:url(#SVGID_00000179645137914742455230000015566906305461594250_);">
			<g>
				<g>
					<path class="st2" d="M16.7,124.8c5.5-6.5,11.5-12.7,17.9-18.3c3.2-2.8,6.5-5.6,9.9-8.2c3.1-2.3,6.6-5.6,10.5-6.3
						c0.5-0.1,2.1-0.3,2.3,0.2c0.2,0.6-0.8,1.8-1.2,2.3c-1.5,2.2-3.1,4.3-4.6,6.5l3.2,1.9c0.9-1.4,1.9-2.8,3.4-3.7
						c1-0.6,2.8-1,3.7,0.1c0.8,1,0.5,2.5,0,3.6c-0.8,1.6-2.4,2.7-3.8,3.7l1.9,3.2c1.8-1.4,4-2.9,6.3-3.4c0.8-0.2,2.8-0.4,2.7,0.8
						c-0.2,1-1.1,2.2-1.7,3c-0.7,1-1.5,2-2.3,2.9c-1.7,1.9-3.5,3.7-5.4,5.4c-7.9,7.4-15.3,15.3-22.3,23.6
						c-3.9,4.7-7.7,9.5-11.3,14.5c-0.6,0.8-0.1,2.1,0.7,2.6c0.9,0.6,2,0.1,2.6-0.7c7.1-9.8,14.9-19,23.3-27.8
						c4-4.2,8.3-8.2,12.5-12.3c2-2,3.9-4.1,5.5-6.4c1.4-2.1,3.1-4.7,1.7-7.2c-1.2-2.1-3.9-2.5-6.1-2.2c-2.9,0.4-5.7,2.1-8.1,3.9
						c-0.8,0.6-1.2,1.6-0.7,2.6c0.5,0.8,1.8,1.3,2.6,0.7c2.2-1.6,4.5-3.3,5.6-5.9c1-2.3,0.8-5.2-0.9-7.1s-4.7-2.2-7-1.3
						c-2.7,1.1-4.4,3.4-6,5.6c-1.4,2,1.9,3.8,3.2,1.9c1.6-2.2,3.2-4.4,4.7-6.7c1.1-1.6,2.1-3.9,1.1-5.8c-1.2-2.3-3.9-2.4-6.2-2.1
						s-4.4,1.5-6.3,2.7c-4.1,2.7-8,5.9-11.8,9s-7.4,6.4-10.9,9.9c-4,3.9-7.8,8-11.4,12.2C12.5,124,15.1,126.6,16.7,124.8L16.7,124.8
						L16.7,124.8z"/>
					<path class="st2" d="M60,91.7c0.6-0.7,1.3-1.3,2-1.8l-0.4,0.3c0.8-0.6,1.6-1.2,2.5-1.6c0.9-0.5,1.2-1.7,0.7-2.6
						c-0.6-0.9-1.6-1.2-2.6-0.7c-1.8,1-3.5,2.3-4.9,3.8c-0.3,0.3-0.5,0.8-0.5,1.3c0,0.5,0.2,1,0.5,1.3s0.8,0.6,1.3,0.6
						S59.6,92.1,60,91.7C60,91.7,60,91.7,60,91.7z"/>
					<path class="st2" d="M65.6,98.9c0.2-0.2,0.3-0.4,0.5-0.7l-0.3,0.4c0.5-0.7,1.1-1.3,1.8-1.8l-0.4,0.3c0.7-0.5,1.4-0.9,2.2-1.3
						L69,96c0,0,0.1,0,0.1-0.1c0.5-0.2,0.8-0.4,1.1-0.9c0.2-0.4,0.3-1,0.2-1.4s-0.4-0.9-0.9-1.1s-1-0.4-1.4-0.2
						c-0.6,0.2-1.2,0.5-1.8,0.8s-1.1,0.7-1.6,1.2c-0.9,0.8-1.7,1.7-2.3,2.7c-0.5,0.8-0.2,2.1,0.7,2.6C64,100,65.1,99.7,65.6,98.9
						L65.6,98.9L65.6,98.9z"/>
					<path class="st2" d="M72.1,105.9c0.8-0.9,1.6-1.7,2.5-2.5l-0.4,0.3c0.8-0.6,1.6-1.1,2.5-1.6s1.2-1.8,0.7-2.6
						c-0.6-0.9-1.6-1.2-2.6-0.7c-2.1,1.1-3.9,2.6-5.4,4.3c-0.3,0.4-0.6,0.8-0.6,1.3c0,0.5,0.2,1,0.6,1.3s0.8,0.6,1.3,0.6
						C71.2,106.4,71.8,106.3,72.1,105.9L72.1,105.9z"/>
					<path class="st2" d="M40.3,109.7c5.6,3.6,10.5,8.2,14.4,13.6c0.6,0.8,1.6,1.2,2.6,0.7c0.8-0.5,1.3-1.7,0.7-2.6
						c-4.3-5.9-9.6-10.9-15.8-14.9c-0.8-0.6-2.1-0.2-2.6,0.7C39.1,108,39.5,109.1,40.3,109.7L40.3,109.7L40.3,109.7z"/>
					<path class="st2" d="M39.9,109.2c4.6,4.9,9.2,9.9,12.3,15.9c0.5,0.9,1.7,1.2,2.6,0.7c0.9-0.5,1.1-1.7,0.7-2.6
						c-3.2-6.3-8.1-11.6-12.9-16.7C40.9,104.8,38.2,107.5,39.9,109.2L39.9,109.2L39.9,109.2z"/>
					<path class="st2" d="M49.4,118.4c1.3,1.7,2.4,3.6,3.5,5.4c0.5,0.9,1.7,1.2,2.6,0.7c0.9-0.6,1.2-1.6,0.7-2.6
						c-1-1.9-2.2-3.7-3.5-5.4c-0.3-0.4-0.6-0.7-1.1-0.9c-0.5-0.1-1-0.1-1.4,0.2s-0.8,0.6-0.9,1.1S49.1,118,49.4,118.4L49.4,118.4
						L49.4,118.4z"/>
					<path class="st2" d="M29.3,110.1c3.7,6.6,8.3,12.5,13.8,17.7c1.8,1.6,4.4-1,2.7-2.7c-5.3-4.9-9.7-10.6-13.2-16.9
						C31.3,106.1,28.1,107.9,29.3,110.1L29.3,110.1L29.3,110.1z"/>
					<path class="st2" d="M26.8,114c5,5.5,10.6,10.4,16.8,14.6c1.3,0.9,3.3-0.6,2.8-2.1c-0.6-1.8-2-2.8-3.5-3.8s-2.8-2.3-4.1-3.6
						s-2.5-2.7-3.7-4.1c-0.6-0.7-1.2-1.5-1.8-2.2c-0.3-0.4-0.7-0.8-1-1.2l-0.4-0.5c-0.1-0.1-0.5-0.8-0.3-0.3v1l0-0.2l-0.5,0.8
						l-0.4,0.3h-1c-0.5-0.5-0.6-0.5-0.4-0.2c0.1,0.2,0.2,0.4,0.3,0.6c0.2,0.3,0.3,0.6,0.5,0.9c0.4,0.7,0.7,1.3,1.1,2
						c1.2,2.1,4.4,0.2,3.2-1.9c-0.7-1.3-1.3-2.6-2.1-3.8c-0.9-1.3-2.7-1.7-3.9-0.5c-1.5,1.6,0.2,3.2,1.2,4.4
						c0.9,1.1,1.8,2.1,2.7,3.2c1.7,2,3.4,3.9,5.3,5.7c1,0.9,2.1,1.8,3.2,2.6c0.7,0.5,1.7,1,2,1.8l2.8-2.1c-5.9-4-11.2-8.8-16-14
						c-0.7-0.8-2-0.7-2.6,0C26,112.1,26.1,113.3,26.8,114L26.8,114L26.8,114z"/>
					<path class="st2" d="M43.2,127.9l1.1,0.8l-0.4-2.9c0,0,0,0,0,0l0.4-0.3c0,0-0.1,0.1-0.2,0.1l0.5-0.2c-0.1,0-0.1,0-0.2,0.1
						l0.5-0.1c0,0-0.1,0-0.1,0c-0.3,0-0.5,0-0.7,0.2c-0.2,0.1-0.4,0.2-0.6,0.4c-0.2,0.2-0.3,0.4-0.4,0.6c-0.1,0.2-0.2,0.5-0.2,0.7
						l0.1,0.5c0.1,0.3,0.2,0.6,0.5,0.8l0.4,0.3c0.3,0.2,0.6,0.2,1,0.3c0,0,0,0,0.1,0c0.2,0,0.3,0,0.5-0.1c0,0,0,0,0,0
						c0,0,0.1,0,0.1,0c0.2-0.1,0.3-0.1,0.5-0.2c0,0,0,0,0.1,0s0,0,0.1,0c0.1-0.1,0.3-0.2,0.4-0.3c0.2-0.2,0.4-0.5,0.5-0.8
						c0.1-0.2,0.1-0.5,0-0.8c0-0.2-0.1-0.5-0.2-0.7c-0.2-0.3-0.4-0.5-0.7-0.7l-1.1-0.8c-0.2-0.1-0.5-0.2-0.7-0.2
						c-0.2-0.1-0.5,0-0.8,0c-0.2,0.1-0.5,0.2-0.6,0.3c-0.2,0.1-0.4,0.3-0.5,0.5l-0.2,0.4c-0.1,0.3-0.1,0.7,0,1l0.2,0.4
						C42.7,127.5,43,127.7,43.2,127.9L43.2,127.9L43.2,127.9z"/>
				</g>
				<g>
					<g>
						<path class="st2" d="M36.7,67.5h118.5c2.4,0,2.4-3.8,0-3.8H36.7C34.3,63.7,34.3,67.5,36.7,67.5L36.7,67.5z"/>
						<path class="st2" d="M38.2,65.4c0.2-3,0.4-6.6,2.6-9s5.8-2.9,8.9-3.7c7.7-1.9,15.5-3.5,23.4-4.5c1.8-0.2,3.6-0.4,5-1.8
							c1.2-1.2,2.1-2.9,2.9-4.3c1.6-2.6,3-5.4,4.9-7.8c4.4-5.6,11.3-7.2,18.1-7.9c8.7-0.9,17.5-0.2,26.2,0c2.4,0.1,2.4-3.7,0-3.8
							c-8-0.2-16.1-0.8-24.1-0.2c-7.3,0.5-15.4,1.7-20.9,7c-2.4,2.3-4.2,5.2-5.8,8c-0.9,1.5-1.7,2.9-2.6,4.4c-0.4,0.7-0.8,1.5-1.5,2
							c-0.7,0.5-1.9,0.5-2.7,0.6c-8.3,1.1-16.5,2.7-24.6,4.8c-3.6,0.9-7.7,1.9-10.2,4.9c-2.7,3.1-3.1,7.2-3.4,11.2
							C34.3,67.8,38.1,67.8,38.2,65.4L38.2,65.4L38.2,65.4z"/>
					</g>
					<g>
						<circle class="st2" cx="77.1" cy="72.2" r="16.1"/>
						<circle class="st0" cx="77.1" cy="72.2" r="8.6"/>
					</g>
					<path class="st2" d="M89.5,44.5c1.2-3.4,3.7-6.1,6.8-7.8c3.8-2.1,8.3-2,12.6-2.4l-1.8-2.4c-0.9,4.1-1.8,8.2-2.7,12.3
						c-0.5,2.3,3.1,3.4,3.6,1c0.9-4.1,1.8-8.2,2.7-12.3c0.2-1.1-0.5-2.5-1.8-2.4c-5.1,0.5-10.2,0.6-14.7,3.1
						c-3.9,2.2-6.8,5.7-8.3,9.9C85.1,45.8,88.7,46.8,89.5,44.5L89.5,44.5L89.5,44.5z"/>
					<path class="st2" d="M87.6,46.4c6.2,0.4,12.5,0.4,18.7,0.1c2.4-0.1,2.4-3.9,0-3.8c-6.2,0.3-12.5,0.3-18.7-0.1
						C85.1,42.5,85.2,46.3,87.6,46.4L87.6,46.4z"/>
					<path class="st2" d="M114,45.2c0.4-3.1,0.8-6.2,1.7-9.2c0.1-0.3,0.2-0.7,0.3-0.8c0.1-0.1,0.1-0.1,0.2-0.1
						c0.6-0.2,1.6-0.1,2.3-0.2c6.4-0.3,12.8-0.7,19.2-0.7c2.4,0,2.4-3.8,0-3.8c-6.9,0-13.8,0.4-20.6,0.8c-2.2,0.1-3.9,0.9-4.8,3.1
						c-1.2,3.1-1.5,6.7-2,9.9c-0.2,1,0.2,2,1.3,2.3C112.6,46.7,113.9,46.2,114,45.2L114,45.2L114,45.2z"/>
					<path class="st2" d="M112.4,46.5c8.4-0.2,16.9-0.2,25.3-0.1c2.4,0,2.4-3.8,0-3.8c-8.4,0-16.9,0-25.3,0.1
						C110,42.8,110,46.6,112.4,46.5C112.4,46.5,112.4,46.5,112.4,46.5z"/>
				</g>
				<g>
					<path class="st2" d="M58.3,81.5c-7.4-1-14.9-1.1-22.4-0.4c-0.8,0.1-0.8,1.3,0,1.2c7.5-0.7,15-0.6,22.4,0.4
						C59.1,82.8,59.1,81.6,58.3,81.5C58.3,81.5,58.3,81.5,58.3,81.5z"/>
					<path class="st2" d="M59.2,78.4c-9-3.3-18.7-4.6-28.2-3.8c-0.8,0.1-0.8,1.3,0,1.2c9.5-0.8,19,0.5,27.9,3.8
						C59.6,79.9,59.9,78.7,59.2,78.4L59.2,78.4L59.2,78.4z"/>
				</g>
			</g>
		</g>
	</g>
</g>
</svg>
