<?xml version="1.0" encoding="UTF-8"?>
<svg id="Layer_2" data-name="Layer 2" xmlns="http://www.w3.org/2000/svg" viewBox="0 0 15.02 15.26">
  <g id="Layer_1-2" data-name="Layer 1">
    <path d="M7.51,15.26c4.15,0,7.51-3.42,7.51-7.63S11.65,0,7.51,0,0,3.42,0,7.63s3.36,7.63,7.51,7.63" fill="#244b64" stroke-width="0"/>
    <path d="M6.74,5.11s0,.04-.01.06c0,.02,0,.04,0,.06,0,.43.34.78.77.78s.77-.35.77-.78c0-.02,0-.04,0-.06,0-.02-.01-.04-.01-.06v-1.12l-.58-1.48h-.38l-.58,1.48v1.12Z" fill="#fff" stroke-width="0"/>
    <rect x="5.74" y="7.87" width="3.53" height="3.61" fill="#fff" stroke-width="0"/>
    <path d="M8.66,3.95v1.16s0,.04,0,.06c0,.02.01.04.01.06,0,.43.34.78.77.78s.77-.35.77-.78c0-.02,0-.04,0-.06,0-.02-.01-.04-.01-.06v-1.11l-.88-1.5h-1.21l.53,1.37s.01.05.01.07Z" fill="#fff" stroke-width="0"/>
    <path d="M11.28,11.48v-5.08c-.37-.03-.69-.23-.88-.52-.21.32-.56.53-.96.53s-.76-.21-.96-.53c-.21.32-.56.53-.96.53s-.75-.21-.96-.53c-.21.32-.56.53-.96.53s-.76-.21-.96-.53c-.19.29-.52.5-.88.52v5.08h1.61v-3.81c0-.11.09-.2.19-.2h3.92c.11,0,.19.09.19.2v3.81h1.61Z" fill="#fff" stroke-width="0"/>
    <path d="M4.82,5.11s0,.04-.01.06c0,.02,0,.04,0,.06,0,.43.34.78.77.78s.77-.35.77-.78c0-.02,0-.04.01-.06,0-.02,0-.04,0-.06v-1.16s0-.05.01-.07l.53-1.37h-1.2l-.88,1.5v1.11Z" fill="#fff" stroke-width="0"/>
    <path d="M3.66,6.01c.42,0,.77-.35.77-.78,0-.02,0-.04.01-.06,0-.02,0-.04,0-.06v-1.16s0-.07.03-.1l.79-1.34h-1.19l-1.17,1.5v1.22c0,.43.35.78.77.78Z" fill="#fff" stroke-width="0"/>
    <path d="M10.96,2.5h-1.19l.79,1.34s.03.07.03.1v1.16s0,.04,0,.06c0,.02.01.04.01.06,0,.43.34.78.77.78s.77-.35.77-.78v-1.22s-1.17-1.5-1.17-1.5Z" fill="#fff" stroke-width="0"/>
  </g>
</svg>