<svg id="Слой_1" data-name="Слой 1" xmlns="http://www.w3.org/2000/svg" viewBox="0 0 150 190"><defs><style>.cls-1{fill-rule:evenodd;}</style></defs><title>Монтажная область 42</title><path class="cls-1" d="M80.3,115.83H78l-26.63-.69v-.07l-11.09-.29L38.79,100l12.45.08L51,78.61l-1.35-15S63.83,63.2,80,63.2C123.44,63.2,119.64,115.83,80.3,115.83ZM79.21,78.46c-1.74,0-10.62.1-10.62.1L69.32,100l16.19-.1C91.5,96,99.33,78.46,79.21,78.46Zm17.76,58-28.3-.55,0,11.64-17-.29-.11-11.68-9.21-.17-1.27-12.59,58.15-.27Z" fill="#D9D08F"/></svg>