<?xml version="1.0" encoding="UTF-8"?>
<svg id="Layer_2" data-name="Layer 2" xmlns="http://www.w3.org/2000/svg" viewBox="0 0 15.02 15.26">
  <g id="Layer_1-2" data-name="Layer 1">
    <path d="M7.51,15.26c4.15,0,7.51-3.42,7.51-7.63S11.65,0,7.51,0,0,3.42,0,7.63s3.36,7.63,7.51,7.63" fill="#244b64" stroke-width="0"/>
    <path d="M3.92,9.32c-.14,0-.27.07-.35.19,0,0-.34.53-1.08.97-.2.12-.27.38-.15.58.12.2.38.27.58.15.15-.09.29-.18.41-.28.09-.07.17-.04.17.08v1.27c0,.23.19.42.43.42s.42-.19.42-.42v-1.29c0-.12.07-.15.16-.07.55.46,1.43.94,2.81.94s2.26-.48,2.81-.94c.09-.07.16-.04.16.07v1.29c0,.23.19.42.42.42s.42-.19.42-.42v-1.27c0-.12.07-.15.17-.08.12.09.26.19.41.28.2.12.46.05.58-.15s.05-.46-.15-.58c-.74-.44-1.08-.97-1.08-.97-.17-.26-.54-.26-.71,0,0,0-.96,1.5-3.04,1.5s-3.04-1.5-3.04-1.5c-.08-.12-.22-.2-.36-.19" fill="#fff" stroke-width="0"/>
    <path d="M8.6,4.24c-.23,0-.42.19-.42.42s.19.42.42.42.42-.19.42-.42-.19-.42-.42-.42M7.54,3.4h2.54c.12,0,.21.1.21.21v3.81c0,.12-.1.21-.21.21h-1.32c-.13,0-.25-.07-.31-.19l-.45-.89c-.06-.12-.18-.19-.31-.19h-.37c-.18,0-.33-.15-.33-.33,0-.03,0-.05.01-.08l.27-1.08c.04-.14.05-.28.05-.42v-.85c0-.12.1-.21.21-.21M4.36,2.55c-.46,0-.85.39-.85.85v4.23c0,.46.39.85.85.85h5.94c.46,0,.85-.39.85-.85V3.4c0-.46-.39-.85-.85-.85h-5.94Z" fill="#fff" stroke-width="0"/>
  </g>
</svg>