<?xml version="1.0" encoding="UTF-8"?>
<svg id="Layer_2" data-name="Layer 2" xmlns="http://www.w3.org/2000/svg" viewBox="0 0 15.02 15.26">
  <g id="Layer_1-2" data-name="Layer 1">
    <path d="M7.51,15.26c4.15,0,7.51-3.42,7.51-7.63S11.65,0,7.51,0,0,3.42,0,7.63s3.36,7.63,7.51,7.63" fill="#244b64" stroke-width="0"/>
    <path d="M12.31,3.45s-.08-.05-.13-.04c-3.12.4-6.33.24-9.47.04-.04.03-.06.08-.06.13v4.7c0,.1.09.18.18.17,3.1-.28,6.24-.28,9.34,0,.1,0,.19-.07.18-.17V3.58s-.02-.09-.06-.13" fill="#fff" stroke-width="0"/>
    <path d="M4.1,11.39h-.73c-.23,0-.41.19-.41.41v1.03h1.56v-1.03c0-.23-.18-.41-.41-.41Z" fill="#fff" stroke-width="0"/>
    <path d="M5.99,11.39h-.73c-.23,0-.41.19-.41.41v1.03h1.55v-1.03c0-.23-.18-.41-.41-.41" fill="#fff" stroke-width="0"/>
    <path d="M7.88,11.39h-.73c-.23,0-.41.19-.41.41v1.03h1.55v-1.03c0-.23-.18-.41-.41-.41" fill="#fff" stroke-width="0"/>
    <path d="M9.77,11.39h-.73c-.23,0-.41.19-.41.41v1.03h1.55v-1.03c0-.23-.18-.41-.41-.41" fill="#fff" stroke-width="0"/>
    <path d="M11.66,11.39h-.73c-.23,0-.41.19-.41.41v1.03h1.56v-1.03c0-.23-.18-.41-.41-.41" fill="#fff" stroke-width="0"/>
    <path d="M5.46,11.05v-.93c0-.28-.23-.51-.51-.51h-.53c-.28,0-.51.23-.51.51v.93h.2c.23,0,.44.11.58.28.14-.17.35-.28.58-.28h.2Z" fill="#fff" stroke-width="0"/>
    <path d="M7.35,11.05v-.93c0-.28-.23-.51-.51-.51h-.53c-.28,0-.51.23-.51.51v.93h.2c.24,0,.45.11.58.28.14-.17.35-.28.58-.28h.2Z" fill="#fff" stroke-width="0"/>
    <path d="M9.24,11.05v-.93c0-.28-.23-.51-.51-.51h-.53c-.28,0-.51.23-.51.51v.93h.2c.23,0,.44.11.58.28.14-.17.35-.28.58-.28h.2Z" fill="#fff" stroke-width="0"/>
    <path d="M11.13,11.05v-.93c0-.28-.23-.51-.51-.51h-.53c-.28,0-.51.23-.51.51v.93h.2c.23,0,.44.11.58.28.14-.17.35-.28.58-.28h.2Z" fill="#fff" stroke-width="0"/>
  </g>
</svg>