<?xml version="1.0" encoding="UTF-8"?>
<svg id="Layer_2" data-name="Layer 2" xmlns="http://www.w3.org/2000/svg" viewBox="0 0 15.02 15.26">
  <g id="Layer_1-2" data-name="Layer 1">
    <path d="M7.51,15.26c4.15,0,7.51-3.42,7.51-7.63S11.65,0,7.51,0,0,3.42,0,7.63s3.36,7.63,7.51,7.63" fill="#244b64" stroke-width="0"/>
    <path d="M12.69,11.18c-1.37,0-1.71-.97-2-1.84-.26-.75-1.13-1.65-2.48-1.9v-.18c1.21.23,2.25.87,2.65,2.03.3.88.59,1.71,1.83,1.71.12,0,.12.18,0,.18M6.13,8.2h0c-.62,0-1.12-.5-1.12-1.13s.5-1.13,1.12-1.13,1.12.5,1.12,1.13c0,.62-.5,1.13-1.12,1.13M5.19,4.39h1.89v.88h-1.89v-.88ZM12.69,10.65c-.99,0-1.19-.59-1.5-1.47-.25-.72-1.19-1.93-2.98-2.28v-2.51h.78c.05,0,.11-.03.14-.07.06-.08.04-.19-.04-.25l-2.33-1.74c-.38-.28-.89-.28-1.27,0l-2.33,1.74s-.07.08-.07.14c0,.1.08.18.18.18h.79v5h-.62c-.1,0-.18.08-.18.17h0v.63h-.34c-.1,0-.18.08-.18.18v.63h-.34c-.1,0-.18.08-.18.18v.81c0,.1.08.18.18.18h2s.88,0,.88,0c.1,0,.18-.08.18-.18v-1.21c0-.9,1.35-.9,1.35,0v1.21c0,.1.08.18.18.18h.89,0s.94,0,.94,0c.1,0,.18-.08.18-.18v-1.35c0-.66.99-.66.99,0v1.35c0,.1.08.18.18.18h2.53c.1,0,.18-.08.18-.18v-.49c.43-.19.31-.85-.18-.85" fill="#fff" stroke-width="0"/>
  </g>
</svg>