<svg id="Слой_1" data-name="Слой 1" xmlns="http://www.w3.org/2000/svg" viewBox="0 0 150 190"><defs><style>.cls-1{fill-rule:evenodd;}</style></defs><title>Монтажная область 63</title><path class="cls-1" d="M102.94,147.18c-4.66,0-49.09-1-55-1-10.47,0-14.65-7.29-14.65-16.06,0-3.13,0-9.14.15-21.91.1-9.76,5.25-16.25,16.85-16.25,10,0,42.89.37,52,.37,12.07,0,14.5,7.81,14.5,17.16,0,12.65-.1,18.37-.1,22C116.66,140.69,110.54,147.18,102.94,147.18ZM74.88,97.63c-27.52,0-29.86,42.83,2,42.83C103.64,140.46,102.94,97.63,74.88,97.63Zm5.85,35.76-11.19-.31.12-9.18-9.91-.1v-9.65l10-.25.13-9.57,10.35.2.14,9.1,9.8-.25.3,10.73-9.93-.1ZM84.51,88,84.74,82l-18.41-.26,0,5.83-9.2.46-.3-5.44,10.37-8.07,16.85.25,9.5,8.56-.16,5.21Z" fill="#DC7759"/></svg>