<?xml version="1.0" encoding="UTF-8"?>
<svg id="Layer_2" data-name="Layer 2" xmlns="http://www.w3.org/2000/svg" viewBox="0 0 15.02 15.26">
  <g id="Layer_1-2" data-name="Layer 1">
    <path d="M7.51,15.26c4.15,0,7.51-3.42,7.51-7.63S11.65,0,7.51,0,0,3.42,0,7.63s3.36,7.63,7.51,7.63" fill="#244b64" stroke-width="0"/>
    <path d="M14.9,8.76s-.05-.07-.09-.08c-.04-.02-.07-.02-.11-.03-.24-.02-.43-.1-.59-.23s-.29-.31-.42-.5c-.14-.21-.26-.43-.38-.66-.13-.22-.26-.45-.42-.65-.15-.18-.31-.34-.5-.45-.19-.11-.41-.17-.66-.17h-.02c-.43,0-.86,0-1.3,0-.41,0-.82,0-1.23,0h-.02c-.23,0-.43.06-.61.15-.18.1-.33.23-.46.39-.24.28-.42.61-.6.93-.18-.31-.35-.63-.58-.91-.13-.16-.28-.29-.45-.4-.17-.1-.38-.17-.61-.16h0c-.42,0-.84,0-1.26,0-.46,0-.92,0-1.38,0h0c-.23,0-.43.06-.61.16-.18.1-.32.24-.45.4-.18.21-.32.45-.45.68-.13.24-.26.47-.4.69-.12.19-.25.36-.41.49-.16.13-.34.21-.58.23-.02,0-.05,0-.07.01-.02,0-.04.01-.05.02-.03.01-.05.04-.07.07-.02.03-.02.06-.02.1,0,0,0,.02,0,.03,0,.03,0,.06.02.09.02.04.05.08.09.1.04.02.09.03.14.03,0,0,.02,0,.02,0h2.48s0,0,0,0c.02,0,.03,0,.05,0,.26-.05.51-.13.74-.27.05-.03.11-.07.16-.12.39-.42.63-.91.9-1.38.08-.14.17-.28.26-.41.1-.13.2-.24.33-.31.19-.11.37-.16.54-.16.16,0,.31.04.45.13s.27.21.39.38c.3.43.54.92.83,1.37.13.2.31.39.53.53.22.14.48.24.74.24.14,0,.28-.02.41-.08.36-.15.64-.38.84-.68.3-.45.54-.92.83-1.36.12-.17.25-.31.39-.39.14-.09.3-.13.46-.13s.35.05.54.15c.13.07.23.17.32.29.09.12.18.26.26.39.14.23.26.46.4.7.14.23.29.46.49.67.13.14.28.23.43.3.16.07.32.12.5.14.02,0,.03,0,.05,0,.03,0,.07,0,.1-.02.02-.01.04-.03.05-.04.02-.02.03-.05.05-.08,0-.03.02-.05.02-.08,0-.01,0-.03,0-.04,0-.03,0-.06-.02-.08" fill="#fff" stroke-width="0"/>
  </g>
</svg>