<?xml version="1.0" encoding="UTF-8"?>
<svg id="Layer_2" data-name="Layer 2" xmlns="http://www.w3.org/2000/svg" viewBox="0 0 15.02 15.26">
  <g id="Layer_1-2" data-name="Layer 1">
    <path d="M7.51,15.26c4.15,0,7.51-3.42,7.51-7.63S11.65,0,7.51,0,0,3.42,0,7.63s3.36,7.63,7.51,7.63" fill="#244b64" stroke-width="0"/>
    <path d="M6.01,11.31h.37v.54h-.37v-.54ZM2.65,11.31h.37v.54h-.37v-.54ZM5.64,11.85h-2.24v-.54h2.24v.54ZM3.4,9.87h2.24v.36h-2.24v-.36ZM13.3,11.85h-2.8v-2.82c.31.2.68.3,1.07.3,1.06,0,1.92-.81,1.92-1.8,0-.54-.26-1.05-.7-1.39.08-.19.12-.39.12-.59,0-.56-.32-1.09-.83-1.38.04-.14.06-.28.06-.42,0-.89-.78-1.62-1.73-1.62s-1.73.73-1.73,1.62c0,.11.01.22.04.33-.6.26-1,.83-1,1.47,0,.21.04.4.12.59-.44.34-.7.85-.7,1.39,0,.99.86,1.8,1.92,1.8.39,0,.75-.11,1.07-.3v2.82h-3.36v-.54h.37c.1,0,.19-.08.19-.18v-.72c0-.1-.08-.18-.19-.18h-1.12v-.36h.56c.1,0,.19-.08.19-.18v-1.8c0-.1-.08-.18-.19-.18H2.47c-.1,0-.19.08-.19.18v1.8c0,.1.08.18.19.18h.56v.36h-1.12c-.1,0-.19.08-.19.18v.72c0,.1.08.18.19.18h.37v.54h-.56c-.1,0-.19.08-.19.18s.08.18.19.18h11.57c.1,0,.19-.08.19-.18s-.08-.18-.19-.18" fill="#fff" stroke-width="0"/>
  </g>
</svg>