<svg id="Слой_1" data-name="Слой 1" xmlns="http://www.w3.org/2000/svg" viewBox="0 0 150 190"><defs><style>.cls-1{fill-rule:evenodd;}</style></defs><title>Монтажная область 35</title><path class="cls-1" d="M85.46,110.55l37.89-1.84-.34,6.82-16.94.19.6,7.49,8.87.13-.1,24.14h-4.87l-3.37-8.14-62.75.51L41,147H36.17L34.9,122.2l24,.34-1.63-13.89L39.39,77.11c11.13-20.78,48.12-20.53,59.06,0L80.39,108.53l-1.54,14.29,14.93.21.23-7.18-9.13.1ZM84.2,87.3l5.53-9.93c-11-11.05-31.38-11.43-41.52.54l6,10.08,11.36-.26,9.07-12.26,1.6,1.4L74.94,87.51ZM52.5,118.13l-24.64.61-1.21-7.07L52,112.76Z" fill="#79B0D7"/></svg>