<?xml version="1.0" encoding="UTF-8"?>
<svg id="Layer_2" data-name="Layer 2" xmlns="http://www.w3.org/2000/svg" viewBox="0 0 15.02 15.26">
  <g id="Layer_1-2" data-name="Layer 1">
    <path d="M7.51,15.26c4.15,0,7.51-3.42,7.51-7.63S11.65,0,7.51,0,0,3.42,0,7.63s3.36,7.63,7.51,7.63" fill="#244b64" stroke-width="0"/>
    <path d="M11.01,12.17c0,.64-.52,1.17-1.17,1.17s-1.17-.52-1.17-1.17.52-1.17,1.17-1.17,1.17.52,1.17,1.17M6.73,12.17c0,.64-.52,1.17-1.17,1.17s-1.17-.52-1.17-1.17.52-1.17,1.17-1.17,1.17.52,1.17,1.17M12.47,5.3c-.07-.09-.18-.14-.3-.14h-7.69l-.09-1.58c-.01-.21-.18-.37-.39-.37h-1.17c-.21,0-.39.17-.39.39s.17.39.39.39h.8l.37,6.25c.01.21.18.37.39.37h7c.19,0,.35-.14.38-.33l.78-4.67c.02-.11-.01-.23-.09-.32" fill="#fff" stroke-width="0"/>
  </g>
</svg>