<?xml version="1.0" encoding="UTF-8"?>
<svg id="Layer_2" data-name="Layer 2" xmlns="http://www.w3.org/2000/svg" viewBox="0 0 15.02 15.26">
  <g id="Layer_1-2" data-name="Layer 1">
    <path d="M7.51,15.26c4.15,0,7.51-3.42,7.51-7.63S11.65,0,7.51,0,0,3.42,0,7.63s3.36,7.63,7.51,7.63" fill="#244b64" stroke-width="0"/>
    <path d="M12.3,12.1l-1.78-1.74,1.24-1.98s.03-.07.04-.11c0-.02.02-.04.03-.05h0c.01-.08.01-.16,0-.23,0,0,0-.01,0-.02-.02-.06-.05-.12-.09-.17,0,0,0-.01,0-.02l-2.39-2.75c-.09-.11-.23-.17-.37-.18-.14-.01-.28.05-.39.15l-.76.74-1.25,1.14h-1.87c-.29,0-.52.23-.52.51s.23.51.52.51h2.07c.13,0,.26-.05.35-.14l1.01-.92,1.37,1.57-2.22,1.05c-.12.06-.22.16-.26.29s-.03.27.03.39l1.33,2.54c.09.18.27.27.46.27.08,0,.16-.02.24-.06.25-.13.35-.43.22-.68l-1.09-2.07,1.75-.83-.53.84c-.13.2-.09.46.07.62l2.07,2.03c.1.1.24.15.37.15s.26-.05.37-.15c.2-.21.2-.53,0-.73" fill="#fff" stroke-width="0"/>
    <path d="M7.8,2.83c.57,0,1.03.45,1.03,1.01s-.46,1.01-1.03,1.01-1.03-.45-1.03-1.01.46-1.01,1.03-1.01" fill="#fff" stroke-width="0"/>
    <path d="M2.88,3.84c.43,0,.77.34.77.76s-.35.76-.77.76-.78-.34-.78-.76.35-.76.78-.76" fill="#fff" stroke-width="0"/>
  </g>
</svg>