<?xml version="1.0" encoding="UTF-8"?>
<svg id="Layer_2" data-name="Layer 2" xmlns="http://www.w3.org/2000/svg" viewBox="0 0 15.02 15.26">
  <g id="Layer_1-2" data-name="Layer 1">
    <path d="M7.51,15.26c4.15,0,7.51-3.42,7.51-7.63S11.65,0,7.51,0,0,3.42,0,7.63s3.36,7.63,7.51,7.63" fill="#244b64" stroke-width="0"/>
    <path d="M10.87,11.39c.62,0,1.12-.5,1.12-1.12s-.5-1.12-1.12-1.12-1.12.5-1.12,1.12.5,1.12,1.12,1.12M10.87,8.02c1.24,0,2.24,1.01,2.24,2.24s-1.01,2.24-2.24,2.24-2.24-1.01-2.24-2.24,1.01-2.24,2.24-2.24" fill="#fff" stroke-width="0"/>
    <path d="M4.14,11.39c.62,0,1.12-.5,1.12-1.12s-.5-1.12-1.12-1.12-1.12.5-1.12,1.12.5,1.12,1.12,1.12M4.14,8.02c1.24,0,2.24,1.01,2.24,2.24s-1.01,2.24-2.24,2.24-2.24-1.01-2.24-2.24,1.01-2.24,2.24-2.24" fill="#fff" stroke-width="0"/>
    <path d="M8.9,6.28l-.74-.74c-.51.59-1.54,1.36-3.45,1.36-.31,0-.56-.25-.56-.56s.25-.56.56-.56c2.25,0,2.82-1.28,2.84-1.33.07-.18.23-.3.41-.34.18-.04.38.02.51.15l1.68,1.68c.11.11.17.27.16.44-.01.16-.09.31-.22.41l-2.02,1.51v1.96c0,.31-.25.56-.56.56s-.56-.25-.56-.56v-2.24c0-.18.08-.34.23-.45l1.73-1.3Z" fill="#fff" stroke-width="0"/>
    <path d="M6.67,2.42c-.46,0-.84.38-.84.84s.38.84.84.84.84-.38.84-.84-.38-.84-.84-.84" fill="#fff" stroke-width="0"/>
  </g>
</svg>