<?xml version="1.0" encoding="UTF-8"?>
<svg id="Layer_2" data-name="Layer 2" xmlns="http://www.w3.org/2000/svg" viewBox="0 0 15.02 15.26">
  <g id="Layer_1-2" data-name="Layer 1">
    <path d="M7.51,15.26c4.15,0,7.51-3.42,7.51-7.63S11.65,0,7.51,0,0,3.42,0,7.63s3.36,7.63,7.51,7.63" fill="#244b64" stroke-width="0"/>
    <path d="M1.5,4.28c.21.01.41.02.62.03v2.53l1.03-.62s.09-.02.12,0l1.03.62v-2.54c.51-.02,1-.05,1.46-.09v3.36l1.04-.62s.09-.02.12,0l1.03.62v-3.64c.53-.1,1.01-.2,1.43-.31l.53,2.22.86-.84s.08-.04.12-.03l1.15.36-.57-2.39c.85-.34,1.27-.62,1.3-.64.06-.04.07-.11.03-.17-.04-.06-.11-.07-.17-.03,0,0-.9.59-2.71,1.11-1.67.48-4.49,1.02-8.43.81-.07,0-.12.05-.13.11,0,.07.05.12.12.13" fill="#fff" stroke-width="0"/>
    <path d="M12.68,9.73c-4.38.23-7.51-.37-9.37-.91-2.01-.58-3-1.23-3.01-1.24-.06-.04-.15-.02-.19.04-.04.06-.02.15.04.19.03.02.5.32,1.45.71l-.62,2.58,1.28-.4s.1,0,.14.03l.96.94.58-2.4c.47.12,1.01.24,1.61.34v2.9l1.15-.69s.1-.03.14,0l1.15.69v-2.58c.51.04,1.05.08,1.63.1v2.75l1.15-.69s.1-.03.14,0l1.15.69v-2.75c.22,0,.44-.02.66-.03.08,0,.13-.07.13-.14,0-.07-.06-.13-.13-.13" fill="#fff" stroke-width="0"/>
  </g>
</svg>