<svg id="Слой_1" data-name="Слой 1" xmlns="http://www.w3.org/2000/svg" viewBox="0 0 150 190"><defs><style>.cls-1{fill-rule:evenodd;}</style></defs><title>Монтажная область 15</title><path class="cls-1" d="M54.57,81.36c0-28.61,40.87-27.31,40.87-.46,0,11.76,9,17,9.39,35.69l-59.66.68C45.55,96.13,54.57,93.53,54.57,81.36Zm37.61,28.83c0-9.14-6.63-12.9-14.28-9.89C78.25,109.43,85.3,111.92,92.18,110.19Zm-16.8-43C57.13,67.2,56.25,95,75.69,95,93.45,95,93.56,67.2,75.38,67.2Zm-2.11,33.1c-7.65-3-14.28.75-14.28,9.89C65.87,111.92,72.92,109.43,73.27,100.3ZM97,147.12l-43.26,0c0-6.95-7.44-13.29-8.44-25.65L104.58,123C103.18,135,97,139.69,97,147.12Z" fill="#805835"/></svg>