<svg id="Слой_1" data-name="Слой 1" xmlns="http://www.w3.org/2000/svg" viewBox="0 0 150 190"><defs><style>.cls-1{fill-rule:evenodd;}</style></defs><title>Монтажная область 77</title><path class="cls-1" d="M137.2,91.38c-.94,22.25-11.46,28.5-11.46,28.5s6.62-15.88,5.45-29.94ZM75.44,148.1c-3.38,0-10.64-.41-14.29-.62v-9l22.87.64s.55,1.64.8,2.52c21.9-4.31,33.09-23.39,33.39-42.71-4.8-.1-5.47-9.63-.54-9.63,2.9,0,6.07.13,6.07.13l.09,9.59h0C123.42,123.72,107.21,148.1,75.44,148.1ZM75,135.52c-52.89,0-50.5-75.23-.85-75.23C123.62,60.29,123.31,135.52,75,135.52Zm-.92-47.09c-12.41,0-13,18.67.21,18.67C86.37,107.1,86.45,88.43,74.08,88.43ZM29.81,105l-6.43-1.23c.69-26.68,14.51-33.87,14.51-33.87S27.51,86.86,29.81,105Zm-11.52-3.89-5.49-4C14.94,80.3,24.72,74,24.72,74S17.78,89.29,18.29,101.14Z" fill="#D4A43A"/></svg>