<?xml version="1.0" encoding="UTF-8"?>
<svg id="_Слой_2" data-name="Слой 2" xmlns="http://www.w3.org/2000/svg" viewBox="0 0 906.59 198.1">
  <defs>
    <style>
      .cls-1 {
        fill: #fff;
      }
    </style>
  </defs>
  <g id="Logo_Full_R_RU_White">
    <g id="Logo_Full_RU_White">
      <polygon class="cls-1" points="12.33 155.7 85.78 198.1 95.57 192.45 46.59 142.64 12.33 155.7"/>
      <path class="cls-1" d="M85.48,127.81h-.01l-30.72,11.71,47.98,48.8,9.34-5.39-17.46-50.1c-3.65-.48-6.87-2.33-9.13-5.02Z"/>
      <polygon class="cls-1" points="0 95.25 0 148.58 3.41 150.54 40.47 136.41 0 95.25"/>
      <polygon class="cls-1" points="132.72 27.1 85.78 0 66.06 11.38 90.88 82.63 132.72 27.1"/>
      <path class="cls-1" d="M137.96,30.11l-44.7,59.33,5.17,14.85c4.16,.55,7.76,2.88,10.01,6.2l63.13-24.08V49.52l-33.61-19.41Z"/>
      <path class="cls-1" d="M110.92,118.56c0,3.89-1.53,7.41-4.03,9.99l16.64,47.76,48.04-27.73v-53.6l-60.66,23.13c0,.15,0,.3,0,.45Z"/>
      <path class="cls-1" d="M82.25,120.47c-.09-.62-.13-1.26-.13-1.91,0-3.89,1.54-7.42,4.04-10L54.6,18,0,49.52v34.33l48.63,49.45,33.62-12.83Z"/>
      <path class="cls-1" d="M90.74,117.71c-.04,.28-.06,.56-.06,.86,0,.1,0,.22,0,.32,0,.04,0,.09,0,.13,.02,.19,.03,.36,.07,.54,.14,.87,.48,1.68,.98,2.38,.17,.24,.36,.48,.57,.69,.09,.1,.18,.18,.29,.27,.43,.39,.92,.72,1.44,.97,.74,.35,1.58,.55,2.47,.55,2.41,0,4.48-1.46,5.37-3.54,.19-.42,.32-.88,.4-1.36,.04-.23,.06-.48,.07-.71,0-.08,0-.16,0-.23,0-.12,0-.24-.02-.36-.05-1-.36-1.93-.87-2.73-.05-.09-.1-.16-.16-.24-.26-.36-.54-.69-.86-.98-.06-.05-.12-.11-.19-.16-.74-.62-1.64-1.07-2.62-1.25-.36-.08-.74-.11-1.12-.11-2.89,0-5.31,2.11-5.76,4.88,0,.03,0,.08-.02,.11Z"/>
      <g>
        <path class="cls-1" d="M253.85,76.47c-10.97,0-17.71-7.03-17.71-17.23s6.74-17.29,17.71-17.29h.6v-3.93h4.59v3.93h.54c10.97,0,17.77,7.09,17.77,17.29s-6.8,17.23-17.77,17.23h-.54v4.47h-4.59v-4.47h-.6Zm.6-4.05v-26.41h-.48c-8.82,0-13.41,5.72-13.41,13.24s4.59,13.17,13.41,13.17h.48Zm5.01,0c8.82,0,13.47-5.66,13.47-13.17s-4.65-13.24-13.47-13.24h-.42v26.41h.42Z"/>
        <path class="cls-1" d="M282.71,73.37c0-6.8,4.17-9.54,17.65-9.54v-.18c0-4.53-1.91-6.44-5.96-6.44-3.28,0-5.43,.83-8.35,4.29l-2.8-3.04c3.4-3.82,6.56-5.25,11.45-5.25,8.94,0,10.02,6.02,10.02,10.37v17.35h-4.35v-4.17c-2.27,3.1-5.43,4.89-8.94,4.89-5.25,0-8.7-3.1-8.7-8.29Zm17.65-1.79v-4.11c-10.31,0-13.29,1.43-13.29,5.9,0,3.22,1.85,4.41,4.95,4.41,2.92,0,5.37-1.61,8.35-6.2Z"/>
        <path class="cls-1" d="M312.22,54h4.35v10.97h2.15l10.55-10.97h5.37l-12.22,12.76c3.88,1.61,6.5,10.19,11.15,10.19,.54,0,1.07-.12,1.67-.36v4.35c-.89,.24-1.73,.36-2.44,.36-7.21,0-9.18-9.78-13.71-12.28h-2.5v11.92h-4.35v-26.95Z"/>
        <path class="cls-1" d="M347.7,80.53l-11.15-26.53h4.71l8.88,20.87,8.7-20.87h4.71l-17.17,40.66h-4.71l6.02-14.13Z"/>
        <path class="cls-1" d="M362.66,76.59c.54,.24,1.31,.3,1.79,.3,4.17,0,5.31-6.38,5.31-22.89h18.42v26.95h-4.35v-22.89h-9.84c0,15.56-2.21,23.13-9,23.13-.78,0-1.55-.12-2.33-.3v-4.29Z"/>
        <path class="cls-1" d="M395.99,80.95v-26.95h4.35v10.37h7.81c5.48,0,8.35,3.93,8.35,8.23s-2.86,8.35-8.35,8.35h-12.16Zm11.45-12.34h-7.09v8.11h7.21c3.04,0,4.59-1.67,4.59-4.11s-1.67-3.99-4.71-3.99Z"/>
        <path class="cls-1" d="M426.22,80.95v-22.89h-10.02v-4.05h24.38v4.05h-10.02v22.89h-4.35Z"/>
        <path class="cls-1" d="M456.86,53.22c7.99,0,13.35,4.83,13.35,13.95,0,.66-.06,1.37-.06,2.03h-23.13c1.07,5.01,5.13,8.35,10.19,8.35,3.76,0,6.98-1.91,9.42-4.95l2.92,2.62c-2.98,4.23-7.39,6.44-12.4,6.44-8.11,0-14.49-6.08-14.49-14.19s6.08-14.25,14.19-14.25Zm-9.9,12.16h19.14c-.66-5.01-4.17-8.35-9.24-8.35s-9.06,3.4-9.9,8.35Z"/>
        <path class="cls-1" d="M482.32,80.95v-22.89h-10.02v-4.05h24.38v4.05h-10.02v22.89h-4.35Z"/>
        <path class="cls-1" d="M534.07,54v4.05h-13.18v22.89h-4.35v-26.95h17.53Z"/>
        <path class="cls-1" d="M549.75,53.22c7.87,0,13.83,6.38,13.83,14.25s-5.96,14.19-13.83,14.19-13.95-6.38-13.95-14.19,6.08-14.25,13.95-14.25Zm-9.6,14.25c0,5.54,4.05,10.13,9.6,10.13s9.48-4.59,9.48-10.13-3.88-10.19-9.48-10.19-9.6,4.59-9.6,10.19Z"/>
        <path class="cls-1" d="M574.38,77.43v17.47h-4.35V54h4.05v3.64c2.38-2.68,5.6-4.41,9.48-4.41,8.29,0,12.52,6.14,12.52,14.25s-4.23,14.13-12.52,14.13c-3.88,0-6.92-1.61-9.18-4.17Zm8.76-20.03c-3.99,0-7.03,2.27-8.76,5.54v8.88c1.73,3.34,4.77,5.66,8.76,5.66,5.78,0,8.58-4.23,8.58-10.02s-2.8-10.08-8.58-10.08Z"/>
        <path class="cls-1" d="M615.1,53.22c7.87,0,13.83,6.38,13.83,14.25s-5.96,14.19-13.83,14.19-13.95-6.38-13.95-14.19,6.08-14.25,13.95-14.25Zm-9.6,14.25c0,5.54,4.05,10.13,9.6,10.13s9.48-4.59,9.48-10.13-3.88-10.19-9.48-10.19-9.6,4.59-9.6,10.19Z"/>
        <path class="cls-1" d="M635.79,88.81h-4.17v-11.92h3.34c3.88-6.32,3.88-15.8,3.88-22.89h18.84v22.89h3.88v11.92h-4.17v-7.87h-21.58v7.87Zm17.53-30.76h-10.13c0,6.44-.72,12.88-3.4,18.84h13.53v-18.84Z"/>
        <path class="cls-1" d="M690.82,75.22c-2.68,3.93-6.86,6.44-11.69,6.44-7.87,0-14.01-6.38-14.01-14.19s6.14-14.25,14.01-14.25c4.83,0,9,2.5,11.69,6.44l-3.4,2.33c-1.91-2.8-4.89-4.71-8.29-4.71-5.6,0-9.66,4.59-9.66,10.19s4.05,10.13,9.66,10.13c3.4,0,6.38-1.91,8.29-4.71l3.4,2.33Z"/>
        <path class="cls-1" d="M696.49,54h4.35v10.97h2.15l10.55-10.97h5.37l-12.22,12.76c3.88,1.61,6.5,10.19,11.15,10.19,.54,0,1.07-.12,1.67-.36v4.35c-.89,.24-1.73,.36-2.44,.36-7.21,0-9.18-9.78-13.71-12.28h-2.5v11.92h-4.35v-26.95Z"/>
        <path class="cls-1" d="M735.66,53.22c7.87,0,13.83,6.38,13.83,14.25s-5.96,14.19-13.83,14.19-13.95-6.38-13.95-14.19,6.08-14.25,13.95-14.25Zm-9.6,14.25c0,5.54,4.05,10.13,9.6,10.13s9.48-4.59,9.48-10.13-3.88-10.19-9.48-10.19-9.6,4.59-9.6,10.19Z"/>
        <path class="cls-1" d="M773.46,54v4.05h-13.18v22.89h-4.35v-26.95h17.53Z"/>
        <path class="cls-1" d="M789.14,53.22c7.87,0,13.83,6.38,13.83,14.25s-5.96,14.19-13.83,14.19-13.95-6.38-13.95-14.19,6.08-14.25,13.95-14.25Zm-9.6,14.25c0,5.54,4.05,10.13,9.6,10.13s9.48-4.59,9.48-10.13-3.88-10.19-9.48-10.19-9.6,4.59-9.6,10.19Z"/>
        <path class="cls-1" d="M241.57,119.14v20.03l15.44-20.03h4.05v26.95h-4.35v-20.21l-15.5,20.21h-3.99v-26.95h4.35Z"/>
        <path class="cls-1" d="M287.84,142.57v17.47h-4.35v-40.9h4.05v3.64c2.38-2.68,5.6-4.41,9.48-4.41,8.29,0,12.52,6.14,12.52,14.25s-4.23,14.13-12.52,14.13c-3.88,0-6.92-1.61-9.18-4.17Zm8.76-20.03c-3.99,0-7.03,2.27-8.76,5.54v8.88c1.73,3.34,4.77,5.66,8.76,5.66,5.78,0,8.58-4.23,8.58-10.02s-2.8-10.08-8.58-10.08Z"/>
        <path class="cls-1" d="M328.8,118.37c7.99,0,13.35,4.83,13.35,13.95,0,.66-.06,1.37-.06,2.03h-23.13c1.07,5.01,5.13,8.35,10.19,8.35,3.76,0,6.98-1.91,9.42-4.95l2.92,2.62c-2.98,4.23-7.39,6.44-12.4,6.44-8.11,0-14.49-6.08-14.49-14.19s6.08-14.25,14.19-14.25Zm-9.9,12.16h19.14c-.66-5.01-4.17-8.35-9.24-8.35s-9.06,3.4-9.9,8.35Z"/>
        <path class="cls-1" d="M366.12,119.14v4.05h-13.18v22.89h-4.35v-26.95h17.53Z"/>
        <path class="cls-1" d="M374.77,119.14v20.03l15.44-20.03h4.05v26.95h-4.35v-20.21l-15.5,20.21h-3.99v-26.95h4.35Z"/>
        <path class="cls-1" d="M414.65,118.37c7.87,0,13.83,6.38,13.83,14.25s-5.96,14.19-13.83,14.19-13.95-6.38-13.95-14.19,6.08-14.25,13.95-14.25Zm-9.6,14.25c0,5.54,4.05,10.13,9.6,10.13s9.48-4.59,9.48-10.13-3.88-10.19-9.48-10.19-9.6,4.59-9.6,10.19Z"/>
        <path class="cls-1" d="M434.92,146.09v-26.95h4.35v10.97h14.9v-10.97h4.35v26.95h-4.35v-11.92h-14.9v11.92h-4.35Z"/>
        <path class="cls-1" d="M464.97,138.52c0-6.8,4.17-9.54,17.65-9.54v-.18c0-4.53-1.91-6.44-5.96-6.44-3.28,0-5.43,.83-8.35,4.29l-2.8-3.04c3.4-3.82,6.56-5.25,11.45-5.25,8.94,0,10.02,6.02,10.02,10.37v17.35h-4.35v-4.17c-2.27,3.1-5.43,4.89-8.94,4.89-5.25,0-8.7-3.1-8.7-8.29Zm17.65-1.79v-4.11c-10.31,0-13.29,1.43-13.29,5.9,0,3.22,1.85,4.41,4.95,4.41,2.92,0,5.37-1.61,8.35-6.2Z"/>
        <path class="cls-1" d="M491.03,141.74c.54,.24,1.31,.3,1.79,.3,4.17,0,5.31-6.38,5.31-22.89h18.42v26.95h-4.35v-22.89h-9.84c0,15.56-2.21,23.13-9,23.13-.78,0-1.55-.12-2.33-.3v-4.29Z"/>
        <path class="cls-1" d="M524.36,146.09v-26.95h4.35v10.37h7.81c5.48,0,8.35,3.93,8.35,8.23s-2.86,8.35-8.35,8.35h-12.16Zm11.45-12.34h-7.09v8.11h7.21c3.04,0,4.59-1.67,4.59-4.11s-1.67-3.99-4.71-3.99Z"/>
        <path class="cls-1" d="M550.11,146.09v-26.95h4.35v10.97h14.9v-10.97h4.35v26.95h-4.35v-11.92h-14.9v11.92h-4.35Z"/>
        <path class="cls-1" d="M594.11,118.37c7.87,0,13.83,6.38,13.83,14.25s-5.96,14.19-13.83,14.19-13.95-6.38-13.95-14.19,6.08-14.25,13.95-14.25Zm-9.6,14.25c0,5.54,4.05,10.13,9.6,10.13s9.48-4.59,9.48-10.13-3.88-10.19-9.48-10.19-9.6,4.59-9.6,10.19Z"/>
        <path class="cls-1" d="M631.91,119.14v4.05h-13.18v22.89h-4.35v-26.95h17.53Z"/>
        <path class="cls-1" d="M647.59,118.37c7.87,0,13.83,6.38,13.83,14.25s-5.96,14.19-13.83,14.19-13.95-6.38-13.95-14.19,6.08-14.25,13.95-14.25Zm-9.6,14.25c0,5.54,4.05,10.13,9.6,10.13s9.48-4.59,9.48-10.13-3.88-10.19-9.48-10.19-9.6,4.59-9.6,10.19Z"/>
        <path class="cls-1" d="M686.83,142.57v17.47h-4.35v-40.9h4.05v3.64c2.38-2.68,5.6-4.41,9.48-4.41,8.29,0,12.52,6.14,12.52,14.25s-4.23,14.13-12.52,14.13c-3.88,0-6.92-1.61-9.18-4.17Zm8.76-20.03c-3.99,0-7.03,2.27-8.76,5.54v8.88c1.73,3.34,4.77,5.66,8.76,5.66,5.78,0,8.58-4.23,8.58-10.02s-2.8-10.08-8.58-10.08Z"/>
        <path class="cls-1" d="M713.59,138.52c0-6.8,4.17-9.54,17.65-9.54v-.18c0-4.53-1.91-6.44-5.96-6.44-3.28,0-5.43,.83-8.35,4.29l-2.8-3.04c3.4-3.82,6.56-5.25,11.45-5.25,8.94,0,10.02,6.02,10.02,10.37v17.35h-4.35v-4.17c-2.27,3.1-5.43,4.89-8.94,4.89-5.25,0-8.7-3.1-8.7-8.29Zm17.65-1.79v-4.11c-10.31,0-13.29,1.43-13.29,5.9,0,3.22,1.85,4.41,4.95,4.41,2.92,0,5.37-1.61,8.35-6.2Z"/>
        <path class="cls-1" d="M757.06,137.86c0-2.38-2.27-3.76-5.25-3.76h-3.64v-3.99h3.64c2.68,0,4.41-1.61,4.41-3.82,0-2.33-1.43-3.82-4.35-3.82-3.52,0-4.89,1.07-7.51,4.11-.06-.06-2.92-2.8-2.92-2.8,3.1-3.88,6.14-5.37,10.43-5.37,5.54,0,8.58,3.4,8.58,7.33,0,2.86-1.37,4.89-3.52,6.2,2.8,1.25,4.47,3.4,4.47,6.2,0,4.35-3.4,8.76-10.31,8.76-3.99,0-6.92-1.13-10.43-5.01l2.92-2.86c2.86,2.86,4.35,3.76,7.51,3.76,3.99,0,5.96-2.38,5.96-4.95Z"/>
        <path class="cls-1" d="M767.02,119.14h12.4c4.59,0,7.57,3.04,7.57,6.8,0,2.38-1.13,4.77-3.58,6.08,2.92,.95,4.71,3.76,4.71,6.8,0,3.93-3.22,7.27-8.11,7.27h-13v-26.95Zm4.35,11.09h6.92c2.62,0,4.35-1.49,4.35-3.76s-1.73-3.28-4.35-3.28h-6.92v7.03Zm0,11.8h7.33c3.1,0,5.07-1.25,5.07-3.7s-2.09-4.11-5.19-4.11h-7.21v7.81Z"/>
        <path class="cls-1" d="M799.21,119.14v20.03l15.44-20.03h4.05v26.95h-4.35v-20.21l-15.5,20.21h-3.99v-26.95h4.35Z"/>
        <path class="cls-1" d="M833.97,146.09v-22.89h-10.02v-4.05h24.38v4.05h-10.02v22.89h-4.35Z"/>
        <path class="cls-1" d="M857.94,119.14v20.03l15.44-20.03h4.05v26.95h-4.35v-20.21l-15.5,20.21h-3.99v-26.95h4.35Z"/>
        <path class="cls-1" d="M893.77,119.14h12.82v26.95h-4.35v-9.84h-6.32c-3.58,3.22-5.07,10.08-10.97,10.08-.54,0-1.13-.12-1.79-.24v-4.35c.48,.24,.89,.3,1.31,.3,2.86,0,4.29-4.17,7.15-6.08-4.71-1.19-6.08-4.89-6.08-8.29,0-4.29,2.86-8.52,8.23-8.52Zm-3.88,8.35c0,2.44,1.73,4.59,5.13,4.59h7.21v-8.7h-7.27c-3.46,0-5.07,1.67-5.07,4.11Z"/>
      </g>
    </g>
  </g>
</svg>