<?xml version="1.0" encoding="UTF-8"?>
<svg id="Layer_2" data-name="Layer 2" xmlns="http://www.w3.org/2000/svg" viewBox="0 0 15.02 15.26">
  <g id="Layer_1-2" data-name="Layer 1">
    <path d="M7.51,15.26c4.15,0,7.51-3.42,7.51-7.63S11.65,0,7.51,0,0,3.42,0,7.63s3.36,7.63,7.51,7.63" fill="#244b64" stroke-width="0"/>
    <path d="M13.54,9.43h-.97v-.39h.59c.06,0,.12-.03.16-.09.04-.05.04-.12.02-.18l-.2-.51h.02c.07,0,.12-.03.16-.09.04-.05.04-.12.02-.18l-.78-1.96c-.03-.07-.1-.12-.18-.12s-.15.05-.18.12l-.78,1.96c-.02.06-.02.13.02.18.04.05.1.09.16.09h.02l-.21.51c-.02.06-.02.13.02.18.04.05.1.09.16.09h.58v.39h-1.95v-.39h.58c.07,0,.12-.03.16-.09.04-.05.04-.12.02-.18l-.2-.51h.02c.06,0,.12-.03.16-.09.04-.05.04-.12.02-.18l-.78-1.96c-.03-.07-.1-.12-.18-.12s-.15.05-.18.12l-.78,1.96c-.02.06-.02.13.02.18.04.05.1.09.16.09h.02l-.2.51c-.02.06-.02.13.02.18.04.05.1.09.16.09h.58v.39H1.47c-.11,0-.2.09-.2.2v1.17c0,.11.09.2.2.2h12.07c.11,0,.19-.09.19-.2v-1.17c0-.11-.09-.2-.19-.2" fill="#fff" stroke-width="0"/>
    <path d="M8.29,3.95c.43,0,.78.35.78.78s-.35.78-.78.78-.78-.35-.78-.78.35-.78.78-.78" fill="#fff" stroke-width="0"/>
    <path d="M6.48,7.73s.05.07.05.11l.17,1.21h1.59l-1.95-2.25-.79-1.92c-.03-.08-.1-.13-.18-.13h-.35l.34,1.86,1.12,1.13Z" fill="#fff" stroke-width="0"/>
    <path d="M6.16,7.96l-1.12-1.13s-.05-.06-.05-.1l-.35-1.92-1.35,1.36s-.02.03-.03.04l-.96,1.93-1.01.91h5.03l-.15-1.08Z" fill="#fff" stroke-width="0"/>
  </g>
</svg>