<svg id="Слой_1" data-name="Слой 1" xmlns="http://www.w3.org/2000/svg" viewBox="0 0 150 190"><defs><style>.cls-1{fill-rule:evenodd;}</style></defs><title>Монтажная область 37</title><path class="cls-1" d="M107.72,108.91l0,23.13L42.6,131.3l-.2-22.84s.19-1.24.5-3.22l-4.12.07.16-18.69H45.8c.9-5.81,1.64-10.62,1.69-11.06,1-8.2,3.44-12.18,10.5-12.18,5.7,0,25.19-.16,32.49,0,8.32.18,11.18,5,12.19,12.57.07.58.76,5.08,1.61,10.59h6.4l.54,17.62-4.22.07C107.43,107,107.72,108.91,107.72,108.91ZM94.84,125.44c6.13,0,6.17-9.58-.11-9.58S88.13,125.44,94.84,125.44ZM55.48,127c8.16,0,8.22-12.78-.15-12.78S46.54,127,55.48,127ZM99.31,96.79c-1-7.13-2.3-14-2.3-14l-43.7-.4S52.4,89,51.58,95.58c-.59,4.76-.82,8.91,5.67,8.91s29.27-.27,36.57-.27C99,104.22,99.93,101,99.31,96.79Zm-41.55,45.8c0,7-14.19,7-14.19,0v-6.2l14.19.15Zm49.05,0c0,7-14.19,7-14.19,0V136.9l14.19.14Z" fill="#37576C"/></svg>